<?xml version="1.0" encoding="utf-8"?>
<!-- Generator: Adobe Illustrator 23.0.2, SVG Export Plug-In . SVG Version: 6.00 Build 0)  -->
<svg version="1.1" id="Layer_1" xmlns="http://www.w3.org/2000/svg" xmlns:xlink="http://www.w3.org/1999/xlink" x="0px" y="0px"
	 viewBox="0 0 501.7 165.6" style="enable-background:new 0 0 501.7 165.6;" xml:space="preserve">
<style type="text/css">
	.st0{fill:none;}
	.st1{fill:#808080;stroke:#666666;stroke-width:0.3;}
	.st2{fill:#CCCCCC;stroke:#808080;stroke-miterlimit:10;}
	.st3{fill:url(#disco_1_);stroke:#808080;stroke-miterlimit:10;}
	.st4{fill:#FFFFFF;stroke:#808080;stroke-miterlimit:10;}
	.st5{fill:#808080;}
	.st6{fill:#F752E4;}
	.st7{font-family:'ArialMT';}
	.st8{font-size:111.2456px;}
	.st9{fill:none;stroke:#00D39C;stroke-miterlimit:10;}
	.st10{fill:#4D4D4D;}
	.st11{fill:none;stroke:#969696;stroke-miterlimit:10;}
</style>
<pattern  y="165.6" width="46.8" height="54" patternUnits="userSpaceOnUse" id="disco_2_" viewBox="2.9 -56.7 46.8 54" style="overflow:visible;">
	<g>
		<rect x="2.9" y="-56.7" class="st0" width="46.8" height="54"/>
		<g>
			<rect x="3" y="-56.7" class="st0" width="46.8" height="54"/>
			<g>
				<rect x="3" y="-56.7" class="st0" width="46.8" height="54"/>
				<g>
					<rect x="3" y="-56.7" class="st0" width="46.8" height="54"/>
					<g>
						<path class="st1" d="M44-24.4c0.4,0.7,0.2,1.6-0.5,2s-1.6,0.2-2-0.5s-0.2-1.6,0.5-2C42.8-25.2,43.6-25.1,44-24.4z"/>
						<path class="st1" d="M42.8-32.7c-0.4,0.7-1.3,1-2,0.5c-0.7-0.4-1-1.3-0.5-2c0.4-0.7,1.3-1,2-0.5C43-34.4,43.2-33.4,42.8-32.7z
							"/>
						<path class="st1" d="M34.5-19.6c-0.4,0.7-1.3,1-2,0.5c-0.7-0.4-1-1.3-0.5-2c0.4-0.7,1.3-1,2-0.5C34.8-21.2,35-20.2,34.5-19.6z
							"/>
						<path class="st1" d="M26.9-26.4c0.4,0.7,0.2,1.6-0.5,2s-1.6,0.2-2.1-0.5c-0.4-0.7-0.2-1.6,0.6-2
							C25.6-27.4,26.5-27.1,26.9-26.4z"/>
						<path class="st1" d="M29.8-32.6c-0.4,0.7-1.3,1-2,0.5c-0.7-0.4-1-1.3-0.5-2c0.4-0.7,1.3-1,2-0.5
							C29.9-34.3,30.2-33.3,29.8-32.6z"/>
						<circle class="st1" cx="35.5" cy="-38.8" r="1.5"/>
						<path class="st1" d="M9.8-26.4c-0.4,0.7-0.2,1.6,0.5,2s1.6,0.2,2-0.5s0.2-1.6-0.5-2C11.1-27.4,9.9-27.2,9.8-26.4z"/>
						<path class="st1" d="M10.2-34c0.4,0.7,1.3,1,2,0.5c0.7-0.4,1-1.3,0.5-2.1c-0.4-0.7-1.3-1-2-0.5C9.9-35.7,9.9-34.8,10.2-34z"/>
						<path class="st1" d="M15.4-19.2c0.4,0.7,1.3,1,2.1,0.5c0.7-0.4,1-1.3,0.5-2c-0.4-0.7-1.3-1-2-0.5
							C15.2-20.9,14.9-19.9,15.4-19.2z"/>
						<circle class="st1" cx="20.9" cy="-37.8" r="1.5"/>
						<path class="st1" d="M44-52.8c-0.4-0.7-1.3-1-2-0.5c-0.7,0.4-1,1.3-0.5,2c0.4,0.7,1.3,1,2,0.5C44.1-51.2,44.5-52,44-52.8z"/>
						<path class="st1" d="M28.2-52.9c-0.4-0.7-1.3-1-2-0.5c-0.7,0.4-1,1.3-0.5,2c0.4,0.7,1.3,1,2,0.5
							C28.4-51.2,28.8-52.2,28.2-52.9z"/>
						<circle class="st1" cx="34.1" cy="-47.8" r="1.5"/>
						<path class="st1" d="M8.9-53.2c0.4-0.7,1.3-1,2-0.5c0.7,0.4,1,1.3,0.5,2c-0.4,0.7-1.3,1-2,0.5C8.8-51.5,8.4-52.5,8.9-53.2z"/>
						<circle class="st1" cx="18.8" cy="-45.8" r="1.5"/>
						<path class="st1" d="M43.2-6.4c0.4-0.7,0.2-1.6-0.5-2c-0.7-0.4-1.6-0.2-2,0.5s-0.2,1.6,0.5,2C42-5.6,42.8-5.8,43.2-6.4z"/>
						<path class="st1" d="M35.5-12.4c-0.4-0.7-1.3-1-2-0.5c-0.7,0.4-1,1.3-0.5,2c0.4,0.7,1.3,1,2,0.5
							C35.6-10.9,35.8-11.8,35.5-12.4z"/>
						<path class="st1" d="M28.3-5.9c0.4-0.7,0.2-1.6-0.5-2c-0.7-0.4-1.6-0.2-2,0.5s-0.2,1.6,0.5,2S27.9-5.2,28.3-5.9z"/>
						<path class="st1" d="M9.4-6.4c-0.4-0.8-0.1-1.7,0.6-2.1s1.6-0.2,2,0.5s0.2,1.6-0.5,2C10.9-5.6,9.9-5.8,9.4-6.4z"/>
						<path class="st1" d="M17.8-11.4c0.4-0.7,1.3-1,2-0.5c0.7,0.4,1,1.3,0.5,2c-0.4,0.7-1.3,1-2,0.5C17.6-9.9,17.3-10.8,17.8-11.4z
							"/>
						<circle class="st1" cx="50.5" cy="-20.2" r="1.5"/>
						<circle class="st1" cx="50.5" cy="-47.8" r="1.5"/>
						<path class="st1" d="M28.8-42.1c-0.4,0.7-1.3,1-2,0.5c-0.7-0.4-1-1.3-0.5-2c0.4-0.7,1.3-1,2-0.5
							C28.9-43.8,29.2-42.8,28.8-42.1z"/>
						<path class="st1" d="M20.2-29.1c-0.4,0.7-1.3,1-2,0.5c-0.7-0.4-1-1.3-0.5-2c0.4-0.7,1.3-1,2-0.5
							C20.4-30.8,20.8-29.8,20.2-29.1z"/>
						<path class="st1" d="M36.5-27.3c-0.4,0.7-1.3,1-2,0.5c-0.7-0.4-1-1.3-0.5-2c0.4-0.7,1.3-1,2-0.5C36.8-28.9,37-28,36.5-27.3z"
							/>
						<path class="st1" d="M27.5-15.6c-0.4,0.7-1.3,1-2,0.5c-0.7-0.4-1-1.3-0.5-2c0.4-0.7,1.3-1,2-0.5
							C27.8-17.2,27.9-16.2,27.5-15.6z"/>
						<path class="st1" d="M11.2-15.1c-0.4,0.7-1.3,1-2,0.5c-0.7-0.4-1-1.3-0.5-2c0.4-0.7,1.3-1,2-0.5
							C11.2-16.7,11.4-15.8,11.2-15.1z"/>
						<path class="st1" d="M43.1-15c-0.4,0.7-1.3,1-2,0.5c-0.7-0.4-1-1.3-0.6-2c0.4-0.7,1.3-1,2.1-0.5C43.2-16.7,43.5-15.8,43.1-15z
							"/>
						<path class="st1" d="M11.2-42.1c-0.4,0.7-1.3,1-2,0.5c-0.7-0.4-1-1.3-0.5-2c0.4-0.7,1.3-1,2-0.5
							C11.4-43.8,11.9-42.8,11.2-42.1z"/>
						<path class="st1" d="M19.8-54.9c-0.4,0.7-1.3,1-2,0.5c-0.7-0.4-1-1.3-0.5-2c0.4-0.7,1.3-1,2-0.5
							C19.9-56.5,20.2-55.5,19.8-54.9z"/>
						<path class="st1" d="M37.5-55.4c-0.4,0.7-1.3,1-2,0.5c-0.7-0.4-1-1.3-0.5-2c0.4-0.7,1.3-1,2-0.5C37.8-57,38-56,37.5-55.4z"/>
						<circle class="st1" cx="42.5" cy="-44" r="1.5"/>
						<circle class="st1" cx="49.8" cy="-57.6" r="1.5"/>
						<path class="st1" d="M50.8-29c-0.4,0.7-1.3,1-2.1,0.5c-0.7-0.4-1-1.3-0.5-2c0.4-0.7,1.3-1,2-0.5C51-30.6,51.1-29.7,50.8-29z"
							/>
						<circle class="st1" cx="50.5" cy="-10.8" r="1.5"/>
						<circle class="st1" cx="48.5" cy="-39" r="1.5"/>
					</g>
					<g>
						<circle class="st1" cx="3.8" cy="-20.2" r="1.5"/>
						<circle class="st1" cx="3.8" cy="-47.8" r="1.5"/>
						<circle class="st1" cx="3" cy="-57.6" r="1.5"/>
						<path class="st1" d="M4.2-29c-0.4,0.7-1.3,1-2.1,0.5c-0.7-0.4-1-1.3-0.5-2c0.4-0.7,1.3-1,2-0.5C4.2-30.6,4.7-29.7,4.2-29z"/>
						<circle class="st1" cx="3.8" cy="-10.8" r="1.5"/>
						<circle class="st1" cx="1.6" cy="-39" r="1.5"/>
					</g>
					<g>
						<path class="st1" d="M19.8-0.9c-0.4,0.7-1.3,1-2,0.5c-0.7-0.4-1-1.3-0.5-2c0.4-0.7,1.3-1,2-0.5C19.9-2.4,20.2-1.6,19.8-0.9z"
							/>
						<path class="st1" d="M37.5-1.4c-0.4,0.7-1.3,1-2,0.5c-0.7-0.4-1-1.3-0.5-2c0.4-0.7,1.3-1,2-0.5C37.8-3,38-2.1,37.5-1.4z"/>
						<circle class="st1" cx="49.8" cy="-3.4" r="1.5"/>
					</g>
					<g>
						<circle class="st1" cx="3" cy="-3.4" r="1.5"/>
					</g>
				</g>
			</g>
		</g>
	</g>
</pattern>
<path d="M418.9,165.6H82.8C37.1,165.6,0,128.5,0,82.8l0,0C0,37.1,37.1,0,82.8,0H419c45.7,0,82.8,37.1,82.8,82.8l0,0
	C501.7,128.5,464.7,165.6,418.9,165.6z"/>
<g id="figure">
	<g id="head_1_">
		<g id="head">
			<circle id="base" class="st2" cx="82.2" cy="82.9" r="81.3"/>
			<pattern  id="disco_1_" xlink:href="#disco_2_" patternTransform="matrix(1 0 0 -1 -46 -33241.3906)">
			</pattern>
			<circle id="disco" class="st3" cx="82.2" cy="82.9" r="81.3"/>
		</g>
		<g id="eyes">
			
				<ellipse id="eye_1_" transform="matrix(0.6246 -0.7809 0.7809 0.6246 -39.4344 90.8404)" class="st4" cx="74.8" cy="86.4" rx="52.3" ry="20"/>
			
				<ellipse id="eye" transform="matrix(0.1904 -0.9817 0.9817 0.1904 13.032 205.565)" class="st4" cx="131.1" cy="94.9" rx="50" ry="19.1"/>
			<g id="pupil_1_">
				<g>
					<path class="st5" d="M78.4,56.7c-0.6,6.7-3.2,13.2-4.2,19.9c-0.9,5.9-1.4,11.8-1.9,17.7c-0.2,1.9,2.8,1.9,3,0
						c0.6-6.9,1.1-13.7,2.4-20.5c1.1-5.7,3.2-11.3,3.7-17.1C81.6,54.8,78.6,54.8,78.4,56.7L78.4,56.7z"/>
				</g>
			</g>
			<g id="pupil">
				<g>
					<path class="st5" d="M132.1,59.6c-5.2,18.9-8.1,38.2-8.8,57.8c-0.1,1.9,2.9,1.9,3,0c0.7-19.3,3.6-38.4,8.7-57
						C135.5,58.5,132.6,57.7,132.1,59.6L132.1,59.6z"/>
				</g>
			</g>
		</g>
	</g>
	
		<image style="overflow:visible;opacity:0.34;enable-background:new    ;" width="163" height="164" xlink:href="41561F271B71357B.png"  transform="matrix(0.9939 0 0 0.9939 1.5075 1.7443)">
	</image>
	
		<image style="overflow:visible;opacity:0.34;enable-background:new    ;" width="163" height="164" xlink:href="41561F271B713579.png"  transform="matrix(0.9939 0 0 0.9939 1.5075 1.7443)">
	</image>
</g>
<g id="Layer_2_1_">
	<text transform="matrix(0.4915 -2.123131e-03 4.319696e-03 1 169.7149 122.3521)" class="st6 st7 st8">DISCO</text>
	<text transform="matrix(0.4915 -2.123131e-03 4.319696e-03 1 169.7149 122.3521)" class="st9 st7 st8">DISCO</text>
	<text transform="matrix(0.4915 -2.123131e-03 4.319696e-03 1 318.2303 122.1949)" class="st10 st7 st8">CIATE</text>
	<text transform="matrix(0.4915 -2.123131e-03 4.319696e-03 1 318.2303 122.1949)" class="st11 st7 st8">CIATE</text>
</g>
</svg>
