<?xml version="1.0" encoding="utf-8"?>
<!-- Generator: Adobe Illustrator 23.0.2, SVG Export Plug-In . SVG Version: 6.00 Build 0)  -->
<svg version="1.1" id="figure" xmlns="http://www.w3.org/2000/svg" xmlns:xlink="http://www.w3.org/1999/xlink" x="0px" y="0px"
	 viewBox="0 0 200 600" style="enable-background:new 0 0 200 600;" xml:space="preserve">
<style type="text/css">
	.st0{stroke:#000000;stroke-width:3;stroke-miterlimit:10;}
	.st1{stroke:#000000;stroke-width:0.75;stroke-miterlimit:10;}
	.st2{fill:#FFFFFF;}
	.st3{fill:none;stroke:#000000;stroke-miterlimit:10;}
</style>
<g id="body">
	<path class="st0" d="M111.2,347.9c3.7,6.2,2.6,13.2,1.8,19.9c-3.1,25.5-2.4,51.4,2.1,76.7c0.1,0.7,0.3,1.4,0.4,2.1h13.7
		c0-1.8,0-3.7,0-5.5c-0.1-40.2-2-80.5,2.5-120.5c0.7-6.1-2-14.4,1.5-19.4c-5.5-5.3-20.4,0.5-24.4-6c-1.1-1.7-8.3-18.3-5.5-34.8
		c0.7-4.2,9-8.5,12.6-6.3c6,3.5,7.2,3.8,12,7.8c-0.6-15.7,2.9-30.3,2.3-45.9c-0.3-7.2,12.2-14,9.6-20.7c-2.6-6.7-14.4-8-21.4-9.2
		c-3.2-0.6-11.4-7.6-14-9.5c0,0,0-5.6,0.8-10.3c2.5-13.5,0.5-30.6,0-44.3c-0.3-9.5,4.1-38.8-5.4-39.4l-8.1,20.6
		c1.8,13.6,3.1,27.2,3.9,40.9c0.5,8.8,0.8,17.9-2.1,26.2C90,180.1,81,188.7,70,187c-2.8-0.4-5.6-0.1-8.1,1.1
		c-6.1,3.1-5,7.1-3.9,10.7c6,21.6,8,44.1,10.1,66.4c5.4-5.2,4.9-6.1,11.6-9.7c0.9-0.5,11-0.2,12.1-0.3c5.2-0.3,9.4,25.4,3.6,37.5
		c-0.5,1.1-0.2,2.6-1.2,3.3c-0.9,0.6-2.1,0.4-3.2,0.2L70.8,292c-3.1-0.7,2.7,7.3,2.7,10.7c0,29.8-9.4,94.1-12.9,139.5
		c-0.5,6.2-1,12.5-1.4,18.7c-3.1,40.2,1.1,78.7-2,119c-10.7,1.7-28.2,7.5-37.1,13.5c15.2,1.2,30.4,2.5,45.6,3.7
		c1.7,0.1,3.6,0.2,4.7-1.1c0.8-0.9,0.9-2.3,0.9-3.5c0.8-26.9,1.6-53.8,2.3-80.8c0.3-11.7,0.7-23.7-2.2-35.1
		c-2.6-10.3-7.7-20.4-6.6-31c0.8-7,4.3-13.4,7.3-19.7c9.3-19.4,15.1-40.5,17-62c0.8-9.3,3.7-21.6,13.1-21.5
		C106,342.4,109.3,344.7,111.2,347.9z"/>
</g>
<path id="leg" class="st0" d="M100.7,573.6c-1.7-1-3.4-2.2-4.2-4c-0.8-2-0.2-4.2,0.5-6.3c12.4-37.8,23.1-76.1,31.9-114.9l-13.8-3
	c-0.4,1.7-0.9,3.4-1.6,5c-2.6,5.6-7.6,9.6-10.6,15c-2.5,4.6-3.3,9.8-4.1,14.9c-5.1,32.9-10.1,65.8-15.2,98.7
	c-0.4,2.4-0.6,5.1,0.7,7.2c1.6,2.5,4.9,3.3,8,4c15.3,3.2,30.7,5.6,46.2,7.2C125.9,589.5,113.4,581.5,100.7,573.6z"/>
<ellipse id="head" class="st1" cx="96.7" cy="58.4" rx="50.2" ry="58.4"/>
<g id="left_arm">
	<path class="st0" d="M72.4,221.6c4.9-4.3,6.9-3.6,6.1-10.7c-0.4-4.1-1.6-8.1-3.2-11.8l-24-55.2c-2.2-5.2-4.5-10.4-8.3-14.6
		s-9.4-7-15-6c-5.8,1-10.2,6.1-12.3,11.8c-3.5,9.2-1.7,19.6,0.1,29.2c3,38.4,10.6,122.4,11.1,131.1c-1.6,4.2,1,20.5,3.1,24.5
		c4.2-2.5-3.1-24.5,5.6-9.2c2,4.4,5,23.4,9.3,21.8c0.9-0.8-5.5-22.2-4.6-23.1c1.9-1.9,9.1,17.5,12.1,15.8c2.8-1.7-3-9.6-3-9.6
		s-7.6-14.2-2.9-12.8c0.2,0.1,8.4,0.5,13.7,2.3c3.7,1.3,2.5-2.5-0.6-4.9c-4-3.1-12.2-6.4-13.4-6.8c-5.1-2-6.9-9-7.4-14.3
		c-0.5-4.6-1.2-9.1-2.1-13.6c-6.5-30-22.3-129.4-7.3-131.5c10.7-1.5,27.2,51.5,28.6,73.6C58.9,219.8,67.1,226.8,72.4,221.6"/>
</g>
<g id="right_arm">
	<path class="st0" d="M135,196.9c5.9-4.6,13.2,3.4,12.6,15.7c-1.3,22.2,8.7,76.7,19.5,76.5c17.1-0.3,5.8-83.6-1-113.5
		c-3.2-14-7.4-27.8-10-41.9c-1-5.5-0.1-14.3-2.5-19.3c-1.7-3.5-15.8-7.7-14.8-12c1.7-1.7,9.9,2.8,12.2,2.7c3.9-0.3,6.6-22,8.6-22.8
		c8.7-3.7-3.5,8.1,4.9,13.8c2.4,1.6,9.6-10.9,11.3-7.7c3.7-0.7-2.1,9-5,13.8c-1,1.7,0.8,3.7,2.6,2.9c1.8-0.9,9-4.5,11.1-5.5
		c5.3,1.4-9.4,9.1-12,12.8c-2.6,3.7-1,4.6-1.6,9.6c-1.2,9.9-1.9,19.6,0.3,29.2c8.3,35.9,10.6,72.7,12.9,109.5
		c0.6,9.8,1.2,20.3-3.4,29c-2.7,5.3-7.7,9.9-13.6,10.2c-5.6,0.3-10.8-3.2-14.1-7.8c-3.3-4.6-4.9-10-6.5-15.4l-17-57.9
		c-1.1-3.9-1.8-8-1.7-12.1C127.8,199.5,129.6,200.6,135,196.9"/>
</g>
<g id="eyes">
	
		<ellipse id="eye_1_" transform="matrix(0.3791 -0.9254 0.9254 0.3791 -4.0014 110.1711)" class="st2" cx="80.1" cy="58.1" rx="36.8" ry="13.8"/>
	
		<ellipse id="eye" transform="matrix(0.9666 -0.2563 0.2563 0.9666 -9.1279 32.9361)" class="st2" cx="121.8" cy="51.5" rx="13.8" ry="36.8"/>
	<line id="pupil_1_" class="st3" x1="80.1" y1="41.5" x2="80.1" y2="73.5"/>
	<line id="pupil" class="st3" x1="121.8" y1="37.4" x2="121.8" y2="69.4"/>
</g>
</svg>
