<?xml version="1.0" encoding="utf-8"?>
<!-- Generator: Adobe Illustrator 22.1.0, SVG Export Plug-In . SVG Version: 6.00 Build 0)  -->
<svg version="1.1" id="figure" xmlns="http://www.w3.org/2000/svg" xmlns:xlink="http://www.w3.org/1999/xlink" x="0px" y="0px"
	 viewBox="0 0 200 600" style="enable-background:new 0 0 200 600;" xml:space="preserve">
<style type="text/css">
	.st0{stroke:#000000;stroke-width:0.75;stroke-miterlimit:10;}
	.st1{fill:#FFFFFF;}
	.st2{fill:none;stroke:#000000;stroke-miterlimit:10;}
</style>
<g id="body">
	<path d="M91.7,103.2c1.8,13.6,3.1,27.2,3.9,40.9c0.5,8.8,0.8,17.9-2.1,26.2c-3.5,9.8-12.5,18.4-23.5,16.7c-2.8-0.4-5.6-0.1-8.1,1.1
		c-6.1,3.1-5,7.1-3.9,10.7c6,21.6,8,44.1,10.1,66.4c5.4-5.2,4.9-6.1,11.6-9.7c0.9-0.5,11-0.2,12.1-0.3c5.2-0.3,9.4,25.4,3.6,37.5
		c-0.5,1.1-0.2,2.6-1.2,3.3c-0.9,0.6-2.1,0.4-3.2,0.2L70.8,292c-3.1-0.7,2.7,7.3,2.7,10.7c0,29.8-9.4,94.1-12.9,139.5
		c-0.5,6.2-1,12.5-1.4,18.7c-3.1,40.2,1.1,78.7-2,119c-10.7,1.7-28.2,7.5-37.1,13.5c15.2,1.2,30.4,2.5,45.6,3.7
		c1.7,0.1,3.6,0.2,4.7-1.1c0.8-0.9,0.9-2.3,0.9-3.5c0.8-26.9,1.6-53.8,2.3-80.8c0.3-11.7,0.7-23.7-2.2-35.1
		c-2.6-10.3-7.7-20.4-6.6-31c0.8-7,4.3-13.4,7.3-19.7c9.3-19.4,15.1-40.5,17-62c0.8-9.3,3.7-21.6,13.1-21.5c3.8,0,7.1,2.3,9,5.5
		c3.7,6.2,2.6,13.2,1.8,19.9c-3.1,25.5-2.4,51.4,2.1,76.7c1,5.7,2.2,11.5,1,17.1c-1.2,5.7-4.8,10.5-6.4,16.1
		c-1.3,4.8-1,9.8-0.8,14.7c1.8,31.7,3.6,63.3,5.4,95c0.1,2.3,0.4,4.9,2,6.6c1.9,2,4.9,2.1,7.7,2.1c13.9-0.1,27.8-1,41.6-2.6
		c-12.5-4.8-24.9-9.7-37.4-14.5c-1.7-0.6-3.4-1.4-4.4-2.9c-1.1-1.7-1-3.9-0.8-6c4.2-42.9,6.3-85.9,6.2-129
		c-0.1-40.2-2-80.5,2.5-120.5c0.7-6.1-2-14.4,1.5-19.4c-5.5-5.3-20.4,0.5-24.4-6c-1.1-1.7-8.3-18.3-5.5-34.8c0.7-4.2,9-8.5,12.6-6.3
		c6,3.5,7.2,3.8,12,7.8c-0.6-15.7,2.9-30.3,2.3-45.9c-0.3-7.2,12.2-14,9.6-20.7c-2.6-6.7-14.4-8-21.4-9.2c-3.2-0.6-11.4-7.6-14-9.5
		c0,0,0-5.6,0.8-10.3c2.5-13.5,0.5-30.6,0-44.3c-0.3-9.5,4.1-38.8-5.4-39.4"/>
	<g>
		<path d="M90.6,103.2c2.3,17.4,5,35.7,4.2,53.3c-0.3,8-2.1,16.2-7.6,22.4c-2.5,2.9-5.7,5.2-9.4,6.4c-4,1.2-7.2,0.1-11.2,0.4
			c-4.3,0.3-9.5,2.7-10.5,7.3c-0.4,1.7,0,3.5,0.4,5.2c1,4.1,2.1,8.1,3,12.2c3.9,18.1,5.6,36.5,7.3,54.9c0.1,0.9,1.2,1.5,1.9,0.8
			c3.9-3.9,7.8-9.4,13.8-9.6c3.8-0.1,9.2-1.4,11.2,2.4c2.6,5.1,3.1,11.8,3.1,17.4c0.1,4,0.1,18.5-5.7,19c-2.8,0.3-6.8-1.5-9.6-2.1
			c-3.2-0.7-7.2-2.3-10.5-2.3c-2.6,0-2.6,1.7-1.8,3.9c0.9,2.5,2.5,4.7,2.9,7.3c0.5,2.6,0.1,5.5,0,8.1c-1.1,28.9-5.2,57.8-8.3,86.6
			c-3.8,34.6-7.2,69.4-7,104.3c0.1,22,0.9,44-0.1,66.1c-0.1,2.9-0.2,5.9-0.5,8.9c-0.3,2.8-0.4,3-3.1,3.6c-4,0.9-8,2-11.9,3.2
			c-7.6,2.4-15.2,5.4-21.8,9.7c-1,0.6-0.5,2,0.6,2.1c11.2,0.9,22.5,1.8,33.7,2.7c4.4,0.4,10.1,1.8,14.5,0.9c2.5-0.5,3.6-1.8,4.1-4.2
			c0.9-4.2,0.3-9.1,0.5-13.4c0.2-5.9,0.3-11.8,0.5-17.7c0.3-11.2,0.6-22.3,1-33.5c0.6-20.9,2.2-41.5-4.3-61.7c-1.4-4.5-3-9-3.7-13.7
			c-1.1-6.9,0.3-13.3,3.1-19.6c3.9-8.9,8.3-17.3,11.5-26.5c3.4-9.6,5.9-19.5,7.6-29.5c1.4-8.3,1.2-17.1,3.8-25.1
			c1.2-3.7,3.2-7.8,7.1-9.3c7.7-2.9,12.7,5.6,13.4,12c0.5,4.6-0.4,9.2-0.9,13.7c-0.6,5.7-1.1,11.5-1.4,17.3
			c-1,21.5,1.7,42.2,4.7,63.4c0.9,6.5,0.1,12-2.6,18c-1.7,3.8-3.6,7.5-4.3,11.7c-1.6,10,0.3,21,0.8,31.1c1.4,25.1,2.7,50.1,4.2,75.2
			c0.2,3.4,0.4,7.1,3.4,9.3c2.9,2,7.1,1.6,10.4,1.5c12.9-0.2,25.8-1.1,38.6-2.6c1.3-0.1,1.5-1.7,0.3-2.2c-9.5-3.7-19-7.4-28.5-11
			c-5.5-2.1-13.1-3.2-13.4-10.4c-0.2-5.1,1-10.6,1.4-15.6c1.8-20.8,3.1-41.6,3.9-62.5c1.6-41.6-0.2-83.2,0.6-124.8
			c0.2-11.8,0.7-23.7,1.7-35.5c0.4-5,1.4-10.2,1.3-15.3c-0.1-5.1-1.5-10.7,1.3-15.4c0.2-0.4,0.2-1.1-0.2-1.4
			c-4.1-3.4-9.7-2.8-14.8-2.9c-3.3-0.1-7.5,0-9.6-3c-1.3-1.8-1.9-4.4-2.6-6.5c-1.2-3.6-2.1-7.2-2.6-10.9c-0.7-4.8-1.8-11.7-0.1-16.4
			c1.9-5.5,8.6-7,13.2-4.4c3.4,1.9,6.6,3.9,9.6,6.4c0.7,0.6,1.9,0.3,1.9-0.8c-0.3-10.4,1.1-20.8,1.9-31.2c0.4-5.1-0.2-10.6,0.5-15.6
			c0.6-3.9,3.8-6.9,6.1-10c2.9-3.7,5.3-8,2.2-12.4c-3.6-4.9-11-6.1-16.6-7.1c-6.7-1.2-11.8-4.5-16.8-9.1c-1-1-0.5,0-0.8-0.8
			c-0.4-1.2,0.1-3.6,0.2-4.8c0.4-4.9,1.5-9.7,1.7-14.6c0.8-15.7-1.4-31.3-0.6-47c0.3-6.6,3-26.7-7-28c-1.4-0.2-1.4,2.1,0,2.2
			c5,0.7,4.9,10.1,5,13.6c0.2,5.6-0.2,11.2-0.5,16.9c-0.8,15.2,2,30.4,0.6,45.6c-0.3,3.8-1.2,7.5-1.5,11.3c-0.1,1.6-0.9,4.7,0,6.2
			c0.9,1.6,4,3.2,5.4,4.3c2.2,1.7,4.4,3.5,6.8,4.7c5,2.5,11.2,2.1,16.5,4.1c3.5,1.4,7.6,4,6.6,8.3c-0.7,3.4-4.1,6.3-6.1,8.9
			c-5,6.6-3.4,13.5-4,21.3c-0.7,11-2.3,21.9-2,33c0.6-0.3,1.3-0.5,1.9-0.8c-6.7-5.5-14.9-12.1-23.2-5.7c-4.3,3.3-4.1,8.8-4,13.8
			c0.1,6,1.2,12,2.9,17.7c2.2,7.4,4.1,12.3,12.6,12.8c2.7,0.2,13.9-1.1,14.6,2.2c0.1,0.6-0.9,2.6-1,3.3c-0.2,1-0.3,2.1-0.3,3.1
			c-0.1,3.4,0.5,6.9,0.4,10.3c-0.2,7.9-1.5,15.8-2,23.7c-0.5,8.5-0.8,17.1-1,25.7c-0.3,17.1,0,34.3,0.2,51.4
			c0.4,34.1-0.1,68.2-2.2,102.2c-0.6,9.6-1.3,19.2-2.1,28.7c-0.4,5-0.9,9.9-1.3,14.8c-0.3,3.1-1.3,6.9-0.2,10c2,5.6,11.7,7.2,16.5,9
			c8.9,3.4,17.8,6.9,26.7,10.3c0.1-0.7,0.2-1.5,0.3-2.2c-11.2,1.3-22.4,2.1-33.6,2.4c-2.6,0.1-5.3,0.2-7.9,0.2
			c-4.8-0.1-7.8-1.5-8.5-6.9c-0.7-5.4-0.6-11.1-0.9-16.5c-1.3-22.4-2.5-44.9-3.8-67.3c-0.7-11.6-2.2-22.5,2.9-33.3
			c1.7-3.6,3.4-7.1,3.9-11.1c0.6-4.6-0.2-9.2-1-13.8c-3.8-22.1-5.3-44.4-3.5-66.8c0.7-9.1,3.8-19.7,0.7-28.6
			c-1.9-5.6-6.8-10.1-13-9.4c-14,1.7-12.8,25.1-14.3,34.7c-1.6,10-4,20-7.3,29.6c-3.4,10.1-8.4,19.4-12.5,29.3
			c-3.4,8.3-3.7,16.2-1.5,24.9c2.8,10.6,6.5,20.3,7.2,31.5c0.8,12.3-0.1,24.8-0.4,37.2c-0.4,12.5-0.7,24.9-1.1,37.4
			c-0.2,6.2-0.4,12.5-0.5,18.7c-0.1,3.5,1,10-3.5,11.4c-2,0.6-6.1-0.5-8.2-0.6c-12.9-1-25.8-2.1-38.7-3.1c0.2,0.7,0.4,1.4,0.6,2.1
			c10.8-7,24.2-11.3,36.8-13.4c0.5-0.1,0.8-0.6,0.8-1.1c2.8-38.3-0.8-76.7,1.7-115c2.1-31.8,5.6-63.5,9.1-95.1
			c1.5-14.1,3.1-28.2,4.2-42.3c0.5-5.9,0.9-11.8,1.1-17.8c0.2-4.6,0.3-8.2-1.6-12.4c-0.4-0.9-1.7-2.8-1.7-3.8c0-0.9-1.2,0.1,0.2-0.1
			c1.4-0.2,4,0.8,5.4,1.1c4.2,0.9,8.3,1.8,12.5,2.7c2.6,0.5,5.2,1.2,6.6-1.6c2.2-4.5,3-10.6,3.3-15.5c0.3-6.1-0.2-12.5-1.9-18.4
			c-0.8-2.7-1.9-6.5-5-7.4c-1.6-0.5-3.9-0.1-5.6-0.1c-2.1,0-4.5-0.3-6.6,0.2c-5.3,1.2-9.2,6.6-12.8,10.1c0.6,0.3,1.3,0.5,1.9,0.8
			c-1.6-17.3-3.1-34.7-6.6-51.8c-0.8-4.1-1.7-8.1-2.8-12.2c-0.9-3.6-2.8-7.6,0.3-10.6c4.1-4.2,9.3-2,14.1-2.4c2.4-0.2,4.8-0.8,7-1.9
			c11.3-5.4,15.4-18.3,15.9-29.9c0.7-17.6-2-35.9-4.2-53.3C92.7,101.8,90.4,101.7,90.6,103.2L90.6,103.2z"/>
	</g>
</g>
<ellipse id="head" class="st0" cx="96.7" cy="53.4" rx="50.2" ry="53.4"/>
<g id="left_arm">
	<path d="M62.9,193.3c-5.8-4.7-13.3,3.1-12.9,15.4c0.8,22.2-10.4,76.5-21.2,76.1c-17.1-0.7-4-83.7,3.5-113.5
		c3.1-12.1,6.9-24.1,9.7-36.3c1.8-8,0.6-27.4,8.7-31.5c2.3-1.2,5-1.6,7.5-2.2c0.6-0.1,1.2-0.3,1.6-0.7c0.8-0.8,0.6-2.2-0.1-3.1
		c-0.7-0.9-1.8-1.3-2.8-1.8c-2.2,0-4.4,0.9-6.1,2.4c-0.5,0.5-1,1-1.6,1.3c-4.5,1.9-8.4-23.9-10.7-22.5c-2.4,1.4,1,11.1,0.7,13.7
		c-0.3,3.5-4.4,5.2-7.2,3c-1-0.8-6.6-9-7.6-9.7c-4.4-1.2,4.6,15.7,6.1,17.7c-5.3,10-7.7-5.9-12.1-8c-1.7,4.2-0.1,9,2.4,12.8
		s5.7,7.1,7.7,11.1c4.3,9,1.5,19.6-0.9,29.2c-9.1,35.7-12.2,72.5-15.3,109.2c-0.8,9.8-1.6,20.3,2.8,29.1c2.6,5.4,7.5,10.1,13.4,10.5
		c5.6,0.4,10.9-3,14.3-7.5s5.1-9.9,6.8-15.3L68,215.4c1.2-3.9,2-8,2-12.1C70.1,196.2,68.2,197.1,62.9,193.3"/>
	<g>
		<path d="M63.4,192.4c-5.5-3.8-10.7,0.8-12.8,6c-3,7.2-1.6,16.1-2.3,23.8c-1.6,16.7-4.7,34-10.8,49.6c-1.3,3.3-4.3,12.2-8.9,11.9
			c-3.9-0.2-5.2-6.4-5.8-9.3c-2.9-14.2-1-29.9,0.6-44.1c1.8-16.4,4.4-32.8,7.9-48.9c4-18.8,11.4-37,13.2-56.3
			c0.4-4.2,0.8-8.5,1.9-12.6c0.6-2.3,1.5-4.8,3.2-6.5c2.5-2.5,6-2.4,9-3.5c5.7-2.1,1.7-8.4-3.2-7.7c-1.9,0.3-3.2,1.2-4.7,2.2
			c-2.3,1.4-2.5,1.1-3.6-1c-1.5-3-2.4-6.5-3.3-9.7c-0.6-2-1.8-10.3-4.8-10.5c-2.2-0.2-2.4,3-2.3,4.4c0.1,1.9,0.5,3.8,0.9,5.6
			c0.1,0.7,0.3,1.4,0.4,2.1c0.5,3.2-1.2,7.4-5.2,4.7c-1.7-1.1-7-12.9-10.1-9.1C20,86.7,26.5,96.6,28,99.3c0.6,1.1,1.3,2.1,1.1,2.8
			c-1.1,3.8-4-0.7-4.7-2c-1.4-2.6-2.6-5.8-5.2-7.4c-0.6-0.4-1.4,0-1.7,0.7c-1.8,5.4,0.3,10.5,3.4,15c2.1,3,4.7,5.7,6.3,9
			c2.2,4.3,2.8,9,2.4,13.7c-0.6,8.1-3.3,16-5.1,23.9c-1.9,8.5-3.6,17-5,25.6c-2.7,16.3-4.5,32.8-6.1,49.3
			c-0.8,8.4-1.5,16.7-2.2,25.1c-0.6,7.1-1.2,14.3-0.1,21.4c1.7,10.5,9.7,23.2,22.1,19.9c10.6-2.8,14.6-14.2,17.6-23.5
			c4.2-13.2,8.4-26.3,12.6-39.5c1.8-5.8,3.7-11.5,5.5-17.3c1.5-4.8,2.6-10.3,2.1-15.4C70.5,196,66.9,194.8,63.4,192.4
			c-1.2-0.8-2.3,1.1-1.1,1.9c1.6,1.1,4.1,2,5.4,3.5c1.7,2.1,1.3,5.5,1,8.1c-0.3,3.5-1.1,6.9-2.2,10.2c-1.5,4.7-3,9.3-4.4,13.9
			c-4.1,12.9-8.2,25.9-12.4,38.8c-2.2,6.8-3.9,14.2-8.7,19.6c-5.6,6.4-14.4,8-20.8,1.8c-5.9-5.7-7.3-14.3-7.4-22.1
			c-0.2-14.3,2-28.9,3.4-43.2c1.5-15.3,3.3-30.6,5.8-45.8c1.4-8.3,3-16.5,4.9-24.7c1.6-7,3.8-13.9,4.7-21c0.8-6.2,0.3-12.5-2.8-18.1
			c-3.8-6.8-12-12.7-9.1-21.5c-0.6,0.2-1.1,0.4-1.7,0.7c4.5,2.7,7.4,18.2,13.6,7.6c0.2-0.3,0.2-0.8,0-1.1C28.8,97,25,90.7,24.5,85.6
			c-0.1-0.7-1-0.9-0.1-0.2c0.5,0.4,1,1.3,1.4,1.8c1.1,1.4,2.1,2.9,3.2,4.3c1.4,1.9,2.6,3.8,5.1,4.2c6.8,1,6.4-6.2,5.5-10.5
			c-0.4-1.9-1-4-0.8-5.9c0-0.4-0.8-1.5-0.1-0.8c0.3,0.4,0.5,1.1,0.6,1.6c1.1,2.8,1.8,5.7,2.6,8.6c0.9,3,2.2,10.3,5.7,11.7
			c1.8,0.7,2.6-0.5,4-1.4c0.6-0.4,4.4-2.8,5.8-1.8c4.1,3.1-1.5,3.5-2.5,3.8c-1.9,0.5-3.8,1-5.4,2.1c-5.1,3.4-6.1,11.1-6.8,16.6
			c-0.5,3.6-0.7,7.3-1.1,10.9c-0.7,5.7-2.4,11.4-3.9,16.9c-8.5,31.1-15.3,62.1-17.7,94.3c-0.9,11.6-2.2,25,1.4,36.3
			c1.7,5.5,6.8,10.8,12.1,5.4c4.1-4.2,6.1-10.6,7.9-16c2.7-8.2,4.7-16.7,6.3-25.2c1.6-8.4,2.8-16.9,3.3-25.5
			c0.2-3.8-0.1-7.6,0.2-11.4c0.4-4.9,4.3-16,11.1-11.2C63.5,195.2,64.6,193.2,63.4,192.4L63.4,192.4z"/>
	</g>
</g>
<g id="right_arm">
	<path d="M132.4,192.1c5.8-4.7,13.3,3.1,12.9,15.4c-0.8,22.2,10.4,76.5,21.2,76.1c17.1-0.7,4-83.7-3.5-113.5
		c-3.5-13.9-8-27.6-10.9-41.7c-1.1-5.5-0.4-14.3-2.9-19.2c-1.8-3.5-16-7.4-15.1-11.7c1.7-1.7,10,2.6,12.3,2.4
		c3.9-0.4,6.1-22.1,8.1-23c8.6-3.9-3.3,8.2,5.2,13.7c2.4,1.5,9.4-11.1,11.1-7.9c3.7-0.8-1.9,9-4.7,13.9c-1,1.7,0.9,3.7,2.7,2.8
		c1.8-0.9,8.9-4.7,11-5.7c5.3,1.3-9.2,9.3-11.7,13.1s-0.9,4.6-1.4,9.6c-1,9.9-1.5,19.6,0.9,29.2c9.1,35.7,12.2,72.5,15.3,109.2
		c0.8,9.8,1.6,20.3-2.8,29.1c-2.6,5.4-7.5,10.1-13.4,10.5c-5.6,0.4-10.9-3-14.3-7.5s-5.1-9.9-6.8-15.3l-18.3-57.5
		c-1.2-3.9-2-8-2-12.1C125.2,194.9,127,195.9,132.4,192.1"/>
	<g>
		<path d="M132.9,193.1c9.3-6.5,11.1,12,11.1,16.9c0,5.7,0.6,11.4,1.3,17.1c1.6,12.9,4.2,25.9,8.2,38.3c1.8,5.5,4.8,17.3,11.4,19.2
			c5.4,1.5,8.3-5,9.3-9.1c2.4-9.5,1.9-20,1.3-29.7c-0.7-12.8-2.3-25.6-4.3-38.2c-1.8-11.4-3.8-22.7-6.4-33.9
			c-4.2-17.7-11.3-35.2-12.6-53.4c-0.4-5.3-0.4-11-5.2-14.2c-2.3-1.5-4.9-2.6-7.3-4c-1-0.6-3.1-1.5-3.6-2.5c-1.1-2,1.6-0.9,3-0.4
			c3,0.9,7.1,3.5,9.5,0.4c2.8-3.5,3.3-9.4,4.3-13.6c0.5-2.1,0.7-4.6,1.6-6.6c0.7-1.6,2.3-3.3,1.8-0.5c-0.6,3.9-2.1,7.7,0.9,11.1
			c3,3.4,5.4,0.8,7.8-1.8c0.9-1,3.4-4.9,5-4.7c2.1,0.2-0.5,4.4-1.1,5.6c-1.2,2.5-6.9,9.1-2.4,11.3c2.8,1.3,12.6-6.3,13.3-5.4
			c0.5,0.6-10.3,8.6-11.4,9.8c-4,4.2-2.7,10-3.1,15.3c-0.8,10.2-0.2,19.6,2.3,29.6c2.5,10.3,4.5,20.8,6.2,31.3
			c3.5,21.9,5.6,44,7.5,66.1c0.9,10.4,2.7,21.5-0.2,31.7c-3.5,12-16.1,20-26.2,9.2c-6.3-6.8-8.4-17.7-11.2-26.4
			c-5.1-15.9-10.3-31.7-15.2-47.6c-1.3-4.4-2.6-9.5-1.9-14.1C127.1,196,130.1,195,132.9,193.1c1.2-0.8,0.1-2.8-1.1-1.9
			c-4.9,3.3-7.7,4.5-7.7,10.9c0,4.9,1.2,9.5,2.6,14.1c2.8,8.9,5.6,17.7,8.5,26.5c2.9,9,5.7,17.9,8.6,26.9
			c3.3,10.4,7.7,24.7,20.7,25.8c7.4,0.7,13.6-4.7,16.7-11c4.3-8.6,3.8-18.6,3.1-28c-1.7-21.9-3.7-43.9-6.8-65.6
			c-1.6-11.5-3.6-22.9-6.1-34.3c-2.5-11.4-4.9-21.9-4.1-33.7c0.3-4,0-8.2,0.5-12.1c0.5-3.8,3.9-6,6.7-8.1c2-1.5,8.5-5.1,7.4-8.4
			c-1.2-3.9-7.8,1.1-9.4,2c-0.6,0.3-2.8,1.9-3.5,1.8c-2.9-0.3-0.4-3.6,0.3-4.9c1.3-2.4,3.4-5.6,3.7-8.4c0.2-2.1-1.2-3.9-3.5-3.5
			c-3.6,0.6-8.1,11.6-11.4,6.1c-2-3.4,2.6-8.9,0.3-11.5c-1.8-2-4.9,0.3-5.8,2c-2.1,4.3-2.3,9.9-3.6,14.4c-0.6,2.3-1.1,6.1-3.8,6.5
			c-2.7,0.4-6.3-2.4-9.1-2.6c-3.8-0.2-4,2.6-1.7,5c3.6,3.7,10.8,4.4,13.6,8.7c2.5,3.8,1.8,10.3,2.2,14.7c0.4,4.5,1.6,8.9,2.6,13.3
			c2.6,10.6,5.9,21,8.6,31.6c6.3,24.8,10.3,50.6,11.8,76.1c0.6,10,1.6,21.9-2,31.5c-0.9,2.4-2.7,6-5.8,5.2c-3.8-1-6.2-7.8-7.5-10.9
			c-5.1-12.5-7.8-26.1-9.8-39.3c-1-6.7-1.8-13.5-1.9-20.3c-0.1-6.3,0.3-12.8-3.7-18.2c-2.7-3.7-6.9-5.2-10.9-2.5
			C130.6,191.9,131.8,193.9,132.9,193.1L132.9,193.1z"/>
	</g>
</g>
<g id="eyes">
	
		<ellipse id="eye_1_" transform="matrix(0.3791 -0.9254 0.9254 0.3791 -3.9448 110.204)" class="st1" cx="80.1" cy="58" rx="36.8" ry="13.8"/>
	
		<ellipse id="eye" transform="matrix(0.9666 -0.2563 0.2563 0.9666 -9.1351 32.9249)" class="st1" cx="121.8" cy="51.5" rx="13.8" ry="36.8"/>
	<line id="pupil_1_" class="st2" x1="80.1" y1="41.5" x2="80.1" y2="73.5"/>
	<line id="pupil" class="st2" x1="121.8" y1="37.4" x2="121.8" y2="69.4"/>
</g>
</svg>
