<?xml version="1.0" encoding="utf-8"?>
<!-- Generator: Adobe Illustrator 23.0.2, SVG Export Plug-In . SVG Version: 6.00 Build 0)  -->
<svg version="1.1" xmlns="http://www.w3.org/2000/svg" xmlns:xlink="http://www.w3.org/1999/xlink" x="0px" y="0px"
	 viewBox="0 0 200 600" style="enable-background:new 0 0 200 600;" xml:space="preserve">
<style type="text/css">
	.st0{stroke:#000000;stroke-width:2;stroke-miterlimit:10;}
	.st1{stroke:#000000;stroke-width:0.75;stroke-miterlimit:10;}
	.st2{stroke:#000000;stroke-width:1.861;stroke-miterlimit:10;}
	.st3{fill:#FFFFFF;}
	.st4{fill:none;stroke:#000000;stroke-miterlimit:10;}
	.st5{fill:#AA8F59;}
	.st6{fill:#7A6330;}
	.st7{fill:#3C94BF;}
	.st8{fill:#48BBEC;}
	.st9{fill:#C5E9FB;}
	.st10{fill:#EBF7FE;}
	.st11{fill:#9ED7F5;}
	.st12{fill:#F1E913;}
	.st13{fill:#FFFF12;}
</style>
<g id="Layer_1">
	<g id="figure">
		<g id="body">
			<path class="st0" d="M111.7,103.2c1.8,13.6,3.1,27.2,3.9,40.9c0.5,8.8,0.8,17.9-2.1,26.2C110,180.1,101,188.7,90,187
				c-2.8-0.4-5.6-0.1-8.1,1.1c-6.1,3.1-5,7.1-3.9,10.7c6,21.6,8,44.1,10.1,66.4c5.4-5.2,4.9-6.1,11.6-9.7c0.9-0.5,11-0.2,12.1-0.3
				c5.2-0.3,9.4,25.4,3.6,37.5c-0.5,1.1-0.2,2.6-1.2,3.3c-0.9,0.6-2.1,0.4-3.2,0.2L90.8,292c-3.1-0.7,2.7,7.3,2.7,10.7
				c0,29.8-9.4,94.1-12.9,139.5c-0.5,6.2-1,12.5-1.4,18.7c-3.1,40.2,1.1,78.7-2,119c-10.7,1.7-28.2,7.5-37.1,13.5
				c15.2,1.2,30.4,2.5,45.6,3.7c1.7,0.1,3.6,0.2,4.7-1.1c0.8-0.9,0.9-2.3,0.9-3.5c0.8-26.9,1.6-53.8,2.3-80.8
				c0.3-11.7,0.7-23.7-2.2-35.1c-2.6-10.3-7.7-20.4-6.6-31c0.8-7,4.3-13.4,7.3-19.7c9.3-19.4,15.1-40.5,17-62
				c0.8-9.3,3.7-21.6,13.1-21.5c3.8,0,7.1,2.3,9,5.5c3.7,6.2,2.6,13.2,1.8,19.9c-3.1,25.5-2.4,51.4,2.1,76.7c1,5.7,2.2,11.5,1,17.1
				c-1.2,5.7-4.8,10.5-6.4,16.1c-1.3,4.8-1,9.8-0.8,14.7c1.8,31.7,3.6,63.3,5.4,95c0.1,2.3,0.4,4.9,2,6.6c1.9,2,4.9,2.1,7.7,2.1
				c13.9-0.1,27.8-1,41.6-2.6c-12.5-4.8-24.9-9.7-37.4-14.5c-1.7-0.6-3.4-1.4-4.4-2.9c-1.1-1.7-1-3.9-0.8-6
				c4.2-42.9,6.3-85.9,6.2-129c-0.1-40.2-2-80.5,2.5-120.5c0.7-6.1-2-14.4,1.5-19.4c-5.5-5.3-20.4,0.5-24.4-6
				c-1.1-1.7-8.3-18.3-5.5-34.8c0.7-4.2,9-8.5,12.6-6.3c6,3.5,7.2,3.8,12,7.8c-0.6-15.7,2.9-30.3,2.3-45.9
				c-0.3-7.2,12.2-14,9.6-20.7c-2.6-6.7-14.4-8-21.4-9.2c-3.2-0.6-11.4-7.6-14-9.5c0,0,0-5.6,0.8-10.3c2.5-13.5,0.5-30.6,0-44.3
				c-0.3-9.5,4.1-38.8-5.4-39.4"/>
		</g>
		<ellipse id="head" class="st1" cx="116.7" cy="53.4" rx="50.2" ry="53.4"/>
		<g id="left_arm">
			<path class="st2" d="M79.4,189.2c-5.8-3.5-10.7,5.6-8.1,17.6c4.8,21.6,5.4,77-3.8,78.7c-14.6,2.6-19-81.3-18.2-112
				c0.3-11.6,1.3-24,1.5-37.5c0-8.2-4.6-26.9,1.5-32.6c1.7-1.6,3.9-2.5,5.9-3.6c0.5-0.2,1-0.6,1.2-1c0.5-0.9,0.1-2.3-0.7-3.1
				s-1.8-1-2.7-1.2c-1.9,0.4-3.5,1.8-4.7,3.6c-0.3,0.6-0.7,1.2-1.1,1.6c-3.4,2.8-11.6-21.8-13.3-20C35.3,81.5,40,90.4,40.2,93
				c0.4,3.5-2.8,5.9-5.5,4.3c-1-0.6-7.2-7.6-8.2-8c-3.9-0.3,6.8,14.5,8.5,16.2c-2.6,10.8-7.6-4.2-11.7-5.5
				c-0.6,4.5,1.6,8.8,4.5,12.1c2.8,3.3,6.2,5.9,8.6,9.4c5.3,8,4.9,18.9,4.7,28.8c-1.1,36.8,3.2,73.5,7.4,110.1
				c1.2,9.7,2.5,20.2,7.8,28c3.2,4.8,8.3,8.4,13.3,7.7c4.8-0.7,8.7-5.1,10.7-10.1c2.1-5.1,2.5-10.7,2.9-16.4l5-59.7
				c0.3-4,0.2-8.2-0.6-12.3C86.1,190.6,84.6,191.8,79.4,189.2"/>
		</g>
		<g id="eyes">
			
				<ellipse id="eye_1_" transform="matrix(0.2671 -0.9637 0.9637 0.2671 18.8918 140.9839)" class="st3" cx="102.1" cy="58.1" rx="36.8" ry="13.8"/>
			
				<ellipse id="eye" transform="matrix(0.9666 -0.2563 0.2563 0.9666 -8.4625 38.0643)" class="st3" cx="141.8" cy="51.5" rx="13.8" ry="36.8"/>
			<line id="pupil_1_" class="st4" x1="100.1" y1="41.5" x2="100.1" y2="73.5"/>
			<line id="pupil" class="st4" x1="141.8" y1="37.4" x2="141.8" y2="69.4"/>
		</g>
	</g>
</g>
<g id="Layer_4">
	<g>
		<g>
			<path class="st5" d="M38.4,78.8C30,93,18,104,9,118c2,6,9,9,15,8c2-1,4-2,6-4c9-12,15-24,25-35c9,1,19-2,25-11c6-10,4-22-5-29
				c-8-6-20-9-29-4c-1,1-3,2-5,3c-6,8-11,21-3.9,30.3"/>
			<g>
				<path class="st6" d="M37.1,78c-6,9.9-13.7,18.5-20.9,27.5c-1.4,1.7-2.7,3.4-4,5.2c-1.2,1.6-4.1,4.5-4.5,6.5
					c-0.6,2.6,2.1,5.5,4,7.1c5.5,4.4,12.6,4.4,18,0c3.5-2.9,5.9-7.5,8.4-11.2c3.1-4.7,6.1-9.4,9.3-14c1.9-2.7,3.9-5.9,6.3-8.2
					c1.8-1.8,2.7-2.1,5.3-2.2c3.8-0.1,7.6-0.9,11.1-2.4c7.5-3.3,13-9.9,14.5-18C87.6,51.6,72.1,39.1,56.5,39c-4,0-8.1,0.8-11.5,3
					c-1.6,1-3.9,2.1-5.2,3.3c-1.7,1.6-3,4.5-4,6.5c-4,8.1-5.3,17.6,0,25.4c1.1,1.6,3.7,0.1,2.6-1.5c-4.8-6.9-3.6-15.1,0-22.3
					c3.3-6.7,9.8-11,17.4-11.3c15.6-0.4,30.9,13.5,24.8,29.6c-2.9,7.5-10.1,12.5-17.9,13.7c-2.3,0.4-5.9-0.5-8,0.2
					c-2.1,0.7-4.3,4.5-5.6,6.3c-4.9,6.3-9.1,13.1-13.5,19.7c-4.5,6.9-10.2,16.7-19.7,11.8c-2.1-1.1-5.2-3.3-4.5-6.1
					c0.5-1.8,3-4.3,4.1-5.8c2.9-3.9,6-7.6,9.1-11.3c5.5-6.6,10.8-13.3,15.3-20.7C40.7,77.9,38.2,76.4,37.1,78L37.1,78z"/>
			</g>
		</g>
		<g>
			<g>
				<path class="st7" d="M45.4,50.8c-1.6-0.2-3,1.2-3.9,2.4c-0.9,1.3-1.1,3-0.5,4.4c0.5,1.4,1.7,2.5,3.2,2.8c2.1,0.4,3.9-0.9,5-2.6
					c1.8-2.7,1.4-7.1-2.2-8c-4.3-1-6.5,3.4-6.6,7c0,1.7,0.6,3.4,2,4.4c1.9,1.2,4.2,0.5,5.8-1c2.7-2.5,4.3-6.7,1.2-9.7
					C48,49.3,45.8,49,44,50c-1.7,0.9-2.6,2.8-3.1,4.5c-0.6,1.9-0.3,4.1,1.2,5.6c1.7,1.7,4.4,1.7,6.2,0.2c1.6-1.4,2.9-3.8,2.4-5.9
					c-0.6-2.6-3.5-4.4-6-3.1c-1.8,0.9-3.4,3.2-3.4,5.3c-0.1,2.6,1.9,4.8,4.5,4.7c1.6-0.1,3-1.2,3.2-2.8c0.2-1.4-0.7-3.4-2.3-3.6
					c0.9,0.3,1.2,0.9,1.1,1.7c-0.1,0.9,0,1.1,0.2,0.5c-0.3,0,0.8-0.4,0-0.1c-0.6,0.2-1.1,0.3-1.7,0.5c0.1,0,0.2,0,0.3,0
					c-0.6-0.2-1.1-0.3-1.7-0.5c-0.2-2.3-0.5-2.9-1-1.8c-0.1,0.1-0.1,0.2-0.2,0.3c0-0.6,3.1,1.2,3.3,0.9c0.1-0.1,0.2-0.9,0.2-0.7
					c-0.1-0.6,0.7-0.2-0.5,0c-0.5-0.1-1.1-0.3-1.6-0.4c-0.2-0.2-0.3-0.4-0.3-0.7c-0.1,0,0.8-0.8-0.2,0.3c-0.3,0.3-0.7,1-0.9,1
					c0.5,0,1.1,0,1.6,0c0.1,0,1.2,1.2,1,1.3c0,0,0-0.8,0-0.9c0-0.2,0-0.3,0.1-0.5c0-0.2,0.1-0.4,0.2-0.6c-0.1,0.1-0.1,0.2-0.2,0.3
					c-0.1-0.4,0.5,0-0.2,0c-0.3-0.1-0.6-0.1-0.9-0.2c-0.4-0.2-0.6-0.4-0.6-0.8c-0.1,0,0.3-0.4,0,0c0,0.1-0.1,0.5-0.1,0.5
					c-0.3,0.6-0.3,0.6,0.6,0.5c0.7,0-0.2,0.4,0.2-0.2c0.6-1,1.3-1.8,1.5-3C47.1,51.5,46.2,50.9,45.4,50.8L45.4,50.8z"/>
			</g>
		</g>
		<g>
			<g>
				<path class="st7" d="M60.8,60.8c0-0.6-0.5-1.1-1-1.3c-1.3-0.6-2.7,0.1-3.8,0.7c-2.3,1.4-4.6,3.8-3.9,6.7
					c0.3,1.4,1.3,2.7,2.8,3.1c1.6,0.5,3.2-0.1,4.7-0.7c2.9-1.1,5.6-3.4,5.5-6.8c-0.1-3.3-2.9-5.6-6.1-5.7c-3-0.1-5.9,2-7.2,4.6
					c-1.5,2.9-0.8,6.8,2.1,8.6c3.1,1.9,7.3,0.4,9.1-2.6c1.9-3.4,0.3-7.9-3.6-8.7c-4.3-0.9-7.4,3.8-5.4,7.5c1.8,3.4,7.5,1,6.2-2.6
					c0.8,2.2-3.8,2.5-3,0.5c0,0,0,0.1-0.1,0.1c-0.4,0.1-0.2,0.2,0.6,0.4c0,0,0,0.1,0,0.1c0,0,0.1-0.5,0.2-0.6
					c0.2-0.3,0.7-0.8,1.1-0.9c0.2-0.1,0.4-0.2,0.4,0c-0.1,0.2-0.4-0.4-0.3-0.4c0-0.2,0-0.2,0,0c-0.1,0.2-0.2,0.4-0.4,0.5
					c-0.4,0.3-0.9,0.6-1.3,0.8c-0.3,0.1-0.6,0.2-1,0.4c-0.9,0.2-0.6,0.5,0.9,0.9c0,0.3,0,0.3,0,0c0.1-0.2,0.2-0.4,0.3-0.6
					c0.6-1,1.4-1.8,2.2-2.7C60,61.8,60.8,61.2,60.8,60.8L60.8,60.8z"/>
			</g>
		</g>
		<g>
			<g>
				<path class="st7" d="M72.6,70.5C72.6,70.5,72.6,70.5,72.6,70.5c-0.1-0.3-0.4-0.7-0.7-0.7c-2.6-0.5-5.2,1.3-5.6,4.1
					c-0.2,1.3,0.3,2.8,1.8,3.1c2.3,0.5,4.8-0.1,6.4-1.8c1.7-1.8,1.9-4.7,0.4-6.7c-1.7-2.2-4.8-2.4-7-1c-2,1.3-3.5,4.2-3.4,6.6
					c0.1,3,3.5,4.5,6.1,3.6c2.2-0.8,4.2-2.7,4.8-5c0.8-3.3-2.2-5.7-5.2-5.7c-2.6,0-5,1.6-5.7,4.2c-0.7,2.7,0.8,5.9,3.6,6.7
					c1.4,0.4,3,0.1,4.2-0.7c1.5-1,2.2-2.4,2.4-4.2c0.2-1.7-1.6-3.3-3.2-3.2c-1.9,0.1-3,1.4-3.2,3.2c0.3-1,0.4-1.2,0.2-0.9
					c-0.1,0.2-0.1,0.1,0.1-0.2c0.1-0.1,0.8-0.4,0.5-0.3c-0.3,0.1-0.2,0.1,0.4,0c0.3-0.1,0.6,0,0.8,0.2c0.1,0.1,0.2,0.2,0.3,0.2
					c-0.2-0.2-0.2-0.2,0,0c0.1,0.2,0.2,0.8,0.2,0.3c0.1,0.9,0.2-0.3,0,0.5c0.1-0.5-0.1,0.1-0.2,0.2c-0.2,0.2-0.1,0.2,0.1-0.1
					c-0.1,0.1-0.1,0.1-0.2,0.2c-0.5,0.3,0.2-0.1-0.2,0c-0.4,0.1,0.2,0,0.4,0c-0.4-0.1-0.4,0-0.2,0c0.2,0.1,0.2,0-0.1-0.1
					c-0.5-0.4-1.4-1.7-0.8-2c0.1-0.2,0.1-0.1-0.1,0.1c-0.1,0.1-0.1,0.2-0.2,0.2c0.2-0.4,0,0-0.2,0.1c-0.2,0.2,0.3-0.1-0.2,0.1
					c-0.7,0.4,0.4,0-0.2,0.1c0.8-0.1,2.8,0.8,2,2c0.1-0.2,0.2-0.5,0.2-0.7c0.1-0.3-0.1,0.2,0.1-0.3c0,0,0.5-0.8,0.2-0.4
					c0.2-0.3,0.3-0.1,0,0c-0.2,0.1-0.1,0,0.2-0.1c-0.1,0-0.2,0-0.2,0c-0.2-0.1-0.3-0.1-0.5-0.3c-0.2-0.2-0.3-0.4-0.4-0.6
					c0.1,0.3,0.1,0.3,0.1,0.1c0-0.2,0-0.2,0,0.1c0-0.1,0-0.2,0-0.3c-0.1,0.3-0.1,0.3,0,0.1c0.1-0.2,0.1-0.2-0.1,0.1
					c0-0.1,0.1-0.1,0.1-0.2c-0.2,0.2-0.3,0.3-0.1,0.1c0.1-0.1,0.1-0.1-0.2,0.1c0.3-0.1,0,0-0.1,0c-0.5,0.1-1.1,0.2-1.6,0.4
					c1,0.6,2.1,1.2,3.1,1.8c-0.1-0.3-0.1-0.2,0-0.6c0.1-0.4,0.2-0.7,0.4-1C71.9,71.7,72.8,71.3,72.6,70.5L72.6,70.5z"/>
			</g>
		</g>
		<g>
			<g>
				<path class="st8" d="M44.7,51.8c-3.2,0.9-3.4,5.3-0.7,6.9c1.7,1,3.7,0.2,4.7-1.3c0.6-0.9,0.8-1.9,0.6-3c-0.2-1.2-0.8-2.4-2-3.1
					c-1.3-0.7-2.8-0.7-4,0.1c-2.3,1.4-3,5-0.9,6.9c1.6,1.4,3.9,1.2,5-0.6c0.8-1.2,0.9-2.7,0.6-4.1c-0.4-1.5-2-2.5-3.5-2.3
					c-1.5,0.2-2.9,1.5-2.8,3.1c0,0.2,0,0.3,0,0.5c0-0.3,0.1-0.6,0.1-0.9c0,0.3-0.1,0.6-0.2,1c0.1-0.3,0.2-0.5,0.3-0.8
					c0,0-0.1,0.1-0.1,0.1c1.5-0.4,2.9-0.8,4.4-1.2c0,0-0.1,0-0.1-0.1c0.2,0.2,0.4,0.3,0.6,0.5c-0.1,0-0.1-0.1-0.1-0.1
					c0.2,0.2,0.3,0.4,0.5,0.6c0-0.1-0.1-0.1-0.1-0.2c0.1,0.3,0.2,0.5,0.3,0.8c0-0.1-0.1-0.2-0.1-0.3c0,0.3,0.1,0.6,0.1,0.8
					c0-0.1,0-0.2,0-0.3c0,0.3-0.1,0.6-0.1,0.8c0-0.1,0.1-0.3,0.1-0.4c-0.1,0.3-0.2,0.5-0.3,0.8c0.1-0.1,0.1-0.2,0.2-0.4
					c-0.2,0.2-0.3,0.4-0.5,0.6c0.1-0.1,0.1-0.1,0.2-0.2c-0.2,0.2-0.4,0.3-0.6,0.5c0.1-0.1,0.2-0.1,0.3-0.1c-0.2,0.1-0.5,0.2-0.7,0.3
					c0.1,0,0.1,0,0.2-0.1c-0.3,0-0.5,0.1-0.8,0.1c0.1,0,0.2,0,0.3,0c-0.3,0-0.5-0.1-0.8-0.1c0.1,0,0.1,0,0.2,0.1
					c-0.2-0.1-0.5-0.2-0.7-0.3c0.3,0.2,0.2,0.3-0.3-0.3c-0.1-0.1-0.5-0.8-0.3-0.3c-0.1-0.2-0.2-0.5-0.3-0.7c0.1,0.1,0.1,0.2,0.1,0.4
					c0-0.3-0.1-0.5-0.1-0.8c0,0.2,0,0.3,0,0.5c0-0.3,0.1-0.5,0.1-0.8c0,0.1,0,0.2-0.1,0.3c0.1-0.2,0.2-0.5,0.3-0.7
					c-0.1,0.1-0.3,0.5,0,0c0.2-0.2,0.4-0.4,0.6-0.6c-0.2,0.1-0.1,0.1,0.4-0.2c0.8,0.1,1.5,0.2,2.3,0.3c-0.1,0-0.1-0.1-0.2-0.1
					c0.3,0.2,0.6,0.4,0.8,0.7c-0.2-0.4,0.2,0.8,0.1,0.2c0,0.3,0.1,0.5,0.1,0.8c0-0.1,0-0.2,0-0.3c0,0.3-0.1,0.5-0.1,0.8
					c0.1-0.3,0.1-0.6,0.1-1c0,0,0-0.1,0-0.1c0,0.4-0.1,0.7-0.3,1c0.5-0.9,0.5-2.1-0.2-2.9C46.8,51.9,45.7,51.5,44.7,51.8L44.7,51.8z
					"/>
			</g>
		</g>
		<g>
			<g>
				<path class="st8" d="M57.8,65c0.5,0.2,1.2,0.2,1.7,0.1c0.3-0.1,0.6-0.2,0.8-0.3c0.1-0.1,0.8-0.6,0.4-0.3c1.3-1,1.6-2.3,1.6-3.8
					c0-1.4-1.2-2.5-2.5-2.5c-0.3,0-0.3,0,0.1,0.1c-0.3-0.1-0.6-0.1-0.9-0.1c-0.6,0-1.1,0.2-1.6,0.5c-0.6,0.3-1.1,0.7-1.5,1.2
					c-1.1,1.4-1.5,3-1.1,4.7c0.3,1.2,1.6,2.2,2.8,2.1c1.8,0,3.3-1.3,3.7-3c0.2-1,0.1-2-0.4-2.9c-0.5-0.9-1.3-1.4-2.2-1.8
					c-1-0.4-2.2,0.1-2.9,0.8c-1.3,1.1-1.6,3-1.1,4.6c0.6,1.9,2.2,3.1,4.1,3.2c1.4,0.1,2.5-1,3-2.2c0.6-1.7,0.2-3.6-1.1-4.9
					c-1.6-1.5-4.3-1.3-5.6,0.4c-1.5,2,0.1,5.5,2.8,4.7c0.7-0.3,0.8-0.3,0,0c0.1,0,0.1,0,0.2-0.1c0.3-0.1,0.6-0.3,1-0.4
					c-0.5,0.3-1,0.3-1.5,0.2c-0.7-0.2-1.2-0.7-1.4-1.3c-0.1-0.3-0.1-0.6,0-0.8c-0.1,0.3-0.1,0.3,0.1-0.2c1.2-0.5,2.3-0.9,3.5-1.4
					c-0.1,0-0.2,0-0.3-0.1c0.3,0.1,0.6,0.2,0.8,0.5c0,0-0.1-0.1-0.1-0.1c0.2,0.2,0.4,0.5,0.5,0.8c-0.1-0.6,0,0.7,0,0.2
					c-0.1,0.5-0.1,0.6,0,0.3c-0.1,0.3-0.2,0.6-0.4,0.8c-1,0.3-1.9,0.5-2.9,0.8c-0.7-0.2-1.3-0.8-1.6-1.6c0-0.2,0-0.4-0.1-0.5
					c0,0.2,0,0.2,0-0.1c0.3-1,0.9-1.6,2.1-1.7c0.9,0.7,1.9,1.4,2.8,2.1c-0.1-0.3-0.1-0.3,0,0.2c0-0.3,0-0.3,0,0.2
					c0-0.1,0.1-0.3,0.1-0.4c-0.2,0.3-0.2,0.4-0.1,0.2c0.1-0.2,0.1-0.1-0.2,0.2c0.2-0.2,0.2-0.2-0.1,0c0.3-0.2,0.5-0.3,0.7-0.5
					c0.3-0.3,0.1-0.2-0.5,0.3c-1-0.6-2.1-1.2-3.1-1.8c0,0.2,0.1,0.3,0.1,0.5c-0.1-0.3,0,0.1,0,0.2c0,0.4-0.1,0.6,0.3-0.1
					c0.3-0.5,0.3-0.7,0.9-0.5c-1-0.2-2,0.3-2.3,1.3C56.2,63.7,56.8,64.6,57.8,65L57.8,65z"/>
			</g>
		</g>
		<g>
			<g>
				<path class="st8" d="M67.4,74.2c1.6,1.1,4,0.2,4.9-1.4c0.7-1.3,0.8-2.9-0.3-4c-1-1-2.3-1.3-3.7-1c-1.3,0.3-2.4,1.5-2.8,2.8
					c-0.5,2,0.8,3.7,2.6,4.3c1.9,0.7,4.4-0.3,5.4-2.1c0.4-0.8,0.6-1.6,0.3-2.5c-0.2-0.7-0.8-1.6-1.5-1.9c-0.7-0.4-1.7-0.6-2.5-0.3
					c-0.8,0.2-1.6,0.7-1.9,1.5c0,0.1-0.1,0.2-0.2,0.3c0.2-0.2,0.3-0.4,0.5-0.7c-0.1,0.1-0.2,0.2-0.2,0.2c0.2-0.2,0.4-0.3,0.7-0.5
					c-0.1,0.1-0.2,0.1-0.3,0.2c0.3-0.1,0.5-0.2,0.8-0.3c-0.1,0-0.2,0.1-0.3,0.1c0.3,0,0.6-0.1,0.9-0.1c-0.1,0-0.2,0-0.3,0
					c0.3,0,0.6,0.1,0.9,0.1c-0.1,0-0.2,0-0.3-0.1c0.3,0.1,0.5,0.2,0.8,0.3c-0.1,0-0.2-0.1-0.3-0.2c0.2,0.2,0.4,0.3,0.6,0.5
					c0,0-0.1,0-0.1-0.1c0.3,0.8,0.6,1.5,0.9,2.3c0,0,0-0.1,0-0.1c0,0.3-0.1,0.6-0.1,0.8c0,0,0-0.1,0-0.1c-0.1,0.3-0.2,0.5-0.3,0.8
					c0-0.1,0.1-0.1,0.1-0.2c-0.2,0.2-0.3,0.4-0.5,0.6c0.1-0.1,0.2-0.2,0.3-0.3c-0.2,0.2-0.4,0.3-0.6,0.5c0.1,0,0.1-0.1,0.2-0.1
					c-0.2,0.1-0.5,0.2-0.7,0.3c0.3-0.1,0.6-0.3,0.9-0.4c-0.2,0.1-0.5,0.2-0.7,0.3c0,0,0.1,0,0.1,0c-0.3,0-0.5,0.1-0.8,0.1
					c0.1,0,0.1,0,0.2,0c-0.7-0.3-1.4-0.6-2-0.8c0.4,0.3,0.2,0-0.5-0.9c0-0.2,0-0.3-0.1-0.5c0-0.3,0.1-0.6,0.3-0.9
					c0.3-0.3,0.4-0.4,0.2-0.3c-0.1,0.1,0,0.1,0.3-0.2c-0.2,0.1-0.1,0.1,0.1,0c0.2-0.1,0.4-0.2,0.6-0.2c0.5,0.1,0.6,0.1,0.3,0
					c-0.5-0.2-1.4-0.1-1.8,0.2c-0.4,0.3-0.8,0.7-1,1.1C66,72.4,66.5,73.6,67.4,74.2L67.4,74.2z"/>
			</g>
		</g>
		<g>
			<g>
				<path class="st9" d="M57.4,50.4c1.4,0.3,2.8,0,3.9-0.9c1.2-1,2.2-2.7,1.2-4.2c-1.1-1.6-3.3-1.1-4.8-0.4c-1.9,0.8-3.1,2.9-2.6,5
					c0.6,2.3,3.3,3.4,5.3,2.3c2.1-1.1,2.5-3.7,0.9-5.5c-1.6-1.8-4.7-1.5-6,0.6c-1.5,2.5,0.7,5.9,3.6,5.8c3.3-0.2,4.8-3.9,3.2-6.6
					c-0.9-1.5-2.8-2.4-4.5-2c-1.4,0.4-2.7,1.5-2.9,3c-0.3,1.9,0.6,3.7,2.6,4c0.9,0.1,1.6-0.1,2.3-0.6c0.9-0.7,1.1-1.5,1.3-2.5
					c0,1.5-0.7,2.1-2.1,1.9c-0.9,0.5-1.6,0.4-2.1-0.5c-0.2-0.3-0.2-0.7-0.2-1.1c0-0.2,0.1-0.4,0.2-0.6c0.9-0.3,1.7-0.7,2.6-1
					c0.8,0.1,1.6,1.2,1.5,2c-0.4,0.7-0.8,1.3-1.1,2c-0.3,0.2-0.6,0.3-1,0.2c-0.3,0.1-0.7,0-0.9-0.2c-0.3-0.4-0.6-0.8-0.9-1.2
					c-0.4-1,0.4-2.1,1.2-2.3c-0.4,0.1,0.3,0,0.5,0c0.4,0.1,0.9,0.3,1.1,0.7c0.1,0.1,0.2,0.7,0.2,0.4c0-0.2-0.1,0.2-0.1,0.4
					c0.2-0.4-0.2,0.1,0.1-0.2c0.3-0.3,0,0,0.1-0.1c0.2-0.1,0.3-0.2,0.5-0.3c0.2-0.1,0.4-0.2,0.5-0.3c0,0,0.1-0.1,0.1-0.1
					c-0.3,0.2-0.6,0.2-1,0c-0.2-0.2-0.4-0.4-0.6-0.6c0,0-0.1-0.2,0-0.2c-0.1,0.1-0.1,0.3-0.1,0.4c-0.1,0.1-0.3,0.3-0.4,0.3
					c-0.3,0.3-0.8,0.4-1.3,0.4c-0.6-0.1-1.2,0.1-1.4,0.8C56.5,49.6,56.8,50.3,57.4,50.4L57.4,50.4z"/>
			</g>
		</g>
		<g>
			<g>
				<path class="st9" d="M72.1,54.6c-1.8-0.4-3.3,0.7-3.9,2.3c-0.6,1.6,0.1,3.4,1.6,4.3c1.4,0.8,3.2,0.7,4.5-0.3
					c1.6-1.2,2-3.3,1-5.1c-0.9-1.7-2.9-2.5-4.7-2.1c-1.9,0.4-3.2,2.3-3.2,4.2c0,2,1.4,3.9,3.3,4.4c1.8,0.5,3.6,0.1,5-1.2
					c1.6-1.5,2.2-4.1,1-6c-0.5-0.8-1.1-1.5-2-1.9c-1.6-0.8-3.4-0.7-4.8,0.5c-1.6,1.5-1.1,4.3,0.7,5.4c0.7,0.4,1.3,0.5,2,0.5
					c-0.3,0-0.6-0.1-0.9-0.1c0.2,0,0.3,0.1,0.4,0.1c-0.3-0.1-0.6-0.2-0.8-0.4c0.4,0.3-0.4-0.4-0.5-0.5c-0.1-0.1-0.2-0.3-0.3-0.5
					c-0.1-0.3-0.1-0.4-0.1-0.1c0-0.3-0.1-0.6-0.1-0.9c0,0.1,0,0.2,0,0.3c0-0.3,0.1-0.6,0.1-0.9c0,0.2-0.2,0.6,0,0.1
					c0.1-0.3,0.2-0.3,0.1-0.2c-0.1,0.2,0,0.1,0.3-0.4c0,0,0.7-0.5,0.3-0.2c0.7-0.4,0.6-0.2,0.2-0.2c0.3,0,0.6-0.1,0.9-0.1
					c-0.2,0-0.3,0-0.5,0c0.3,0,0.6,0.1,0.9,0.1c-0.3-0.1-0.2,0,0.4,0.2c-0.2-0.1-0.2-0.1,0.1,0.1c0.3,0.2,0.5,0.4,0.6,0.6
					c0.2,0.6,0.3,0.7,0.2,0.4c0,0.3,0.1,0.6,0.1,0.9c0-0.1,0-0.3,0-0.4c0,0.3-0.1,0.6-0.1,0.9c0.1-0.4-0.2,0.4-0.2,0.4
					c0.2-0.4-0.3,0.3-0.3,0.3c-0.1,0.1-0.3,0.2-0.4,0.4c-0.4,0.1-0.8,0.2-1.2,0.3c-0.4,0-0.7-0.1-1.1-0.3c-0.3-0.2-0.6-0.4-0.7-0.7
					c-0.1-0.2-0.1-0.3-0.2-0.5c0-0.4,0-0.8,0-1.2c0.1-0.3,0.3-0.7,0.5-0.9c0.1-0.1,0.3-0.2,0.4-0.3c0.5-0.2,0.6-0.2,0.4-0.2
					c-0.3,0.1,0.7-0.1,0.4-0.1c-0.1,0-0.1,0,0.2,0c0.2,0,0.3,0,0.5,0.1c0.3,0.1,0.5,0.3,0.7,0.5c0.1,0.1,0.2,0.2,0.2,0.4
					c0.1,0.2,0.1,0.3,0.1,0.1c0-0.1,0-0.1,0,0.2c0,0.1,0,0.3,0,0.4c0,0.5,0.1-0.2-0.1,0.3c-0.1,0.4,0,0.1,0,0
					c0.1-0.1,0.1-0.2,0.2-0.3c0.2-0.4,0.2-0.4,0,0.1C74.2,56.7,73.4,54.9,72.1,54.6L72.1,54.6z"/>
			</g>
		</g>
		<g>
			<g>
				<path class="st9" d="M42.8,67.6c-1.1,0.8-1.2,2-0.6,3.2c0.6,1.1,1.7,1.8,2.9,1.8c1.4,0.1,2.7-0.8,3.2-2c0.6-1.3,0.2-2.9-0.8-3.9
					c-1.1-1.1-2.8-1.4-4.2-0.7c-1.1,0.6-1.8,1.7-2,3c-0.2,1.5,0.5,2.9,1.8,3.7c1.2,0.7,2.8,0.5,4-0.2c1.2-0.8,2-2,1.9-3.5
					c0-1.4-0.9-2.7-2.1-3.3c-2.4-1.2-5.7-0.1-6.3,2.7c-0.3,1.5,0.1,3.1,1.2,4.2c1.3,1.4,3.7,1.8,5,0.2c0.8-1,0.6-2.5-0.2-3.4
					c-0.1-0.1-0.3-0.3-0.4-0.4c-0.2-0.1,0.1,0.2,0.2,0.3c-0.1-0.1-0.1-0.2-0.2-0.3c-0.3-0.3,0,0.1,0.1,0.2c0-0.1-0.1-0.3,0,0.1
					c0,0.5,0,0.1,0,0.1c0,0.3-0.1,0.5-0.2,0.8c0.1-0.1,0.2-0.2-0.1,0.1c-0.2,0.2-0.3,0.3-0.5,0.5c0.3-0.2,0,0.1-0.3,0.1
					c0,0,0.2,0,0.3-0.1c0,0-0.7,0.1-0.4,0.1c0.2,0,0.6,0.2-0.3-0.1c0.1,0,0.3,0.1-0.1-0.1c-0.2,0-0.3-0.1-0.4-0.2
					c-0.2-0.2-0.2-0.2-0.1-0.1c-0.3-0.2-0.5-0.9-0.4-1.4c0-0.2,0.1-0.4,0.2-0.6c-0.2,0.4,0.4-0.4,0.1-0.2c-0.2,0.2,0.3-0.2,0.3-0.2
					c-0.3,0.2,0.2-0.1,0.3-0.1c-0.2,0.1-0.3,0,0.3,0c0.3,0,0.6,0.1,0.9,0.2c0.3,0.2,0.4,0.4,0.6,0.7c0.2,0.3,0.3,0.5,0.3,0.9
					c0,0,0-0.1,0-0.1c0,0-0.1,0.6-0.1,0.4c0.1-0.3-0.3,0.5-0.1,0.3c0.1-0.2-0.3,0.3-0.4,0.4c-0.2,0.2-0.5,0.3-0.7,0.3
					c-0.3,0-0.8-0.1-1.1-0.2c0.2,0.1,0.2,0.1,0,0c-0.1-0.1-0.2-0.1-0.3-0.2c-0.2-0.2-0.1-0.1,0,0c-0.1-0.2-0.2-0.4-0.2-0.7
					c0,0.5,0.2-0.7,0.2-0.6c0.1-0.2,0.2-0.3,0.4-0.4c-0.1,0.1-0.3,0.1,0.1,0c0.2-0.1,0.3,0,0.1,0c0.1,0,0.2,0.1,0.3,0.1
					c0.1,0-0.1-0.1,0,0c0,0,0.1,0.2,0,0c-0.1-0.2-0.2-0.3-0.4-0.5c-0.1-0.1-0.2-0.2-0.3-0.3c-0.1,0-0.7-0.4-0.3-0.2
					C43.6,67.4,43.1,67.4,42.8,67.6L42.8,67.6z"/>
			</g>
		</g>
		<g>
			<g>
				<path class="st9" d="M58.1,74.8c-0.7-0.4-1.4-0.5-2.2-0.3c-1.2,0.3-1.9,1.6-1.9,2.8c0,2,1.6,3.5,3.5,3.7c1.8,0.2,3.5-0.5,4.4-2
					c0.9-1.6,0.6-3.6-0.5-4.9c-1.2-1.4-3.2-1.6-4.9-0.8c-1.8,0.9-2.8,3.3-1.8,5c1.3,2.3,5,2,5.7-0.6c0.5-1.7-0.8-3.2-2.5-3.3
					c-0.4,0-1.4,0.1-0.2,0.1c0.2,0,0.4,0,0.6,0c-0.5-0.1-1-0.1-1.5,0c1.3-0.2,3.4-0.6,2.7,2.8c0,0,0-0.1,0-0.1
					c-0.1,0.3-0.2,0.5-0.4,0.7c0.1-0.1,0.3-0.2-0.2,0.2c0.4-0.3-0.6,0.2-0.1,0.1c-0.3,0.1-0.6,0.1-0.9,0c-0.4-0.2-0.5-0.2-0.3-0.1
					c0.2,0.1,0.1,0-0.3-0.2c-0.4-0.4-0.3-0.4-0.2-0.2c-0.1-0.4-0.2-0.5-0.1-0.3c0.1,0.2,0,0.1,0-0.3c0,0,0,0.3,0,0.3
					c0.1-0.5,0.1-0.5,0-0.3c0-0.1,0.1-0.2,0.1-0.4c0.3-0.5,0.3-0.3,0.1-0.2c0.3-0.2,0.4-0.3,0.1-0.1c0.1,0,0.2-0.1,0.3-0.1
					c-0.5,0.2,0.5,0,0.1,0c-0.3,0,0.6,0.1,0.1,0c-0.5-0.1,0.4,0.2,0.1,0c-0.2-0.1-0.1-0.1,0.2,0.1c-0.1-0.2-0.1-0.2,0,0
					c0.1,0.2,0.2,0.3,0.2,0.6c0.1,0.7-0.4,1.3-1,1.6c0.7-0.2,1.3-0.8,1.4-1.6C59.1,76,58.8,75.2,58.1,74.8L58.1,74.8z"/>
			</g>
		</g>
		<g>
			<g>
				<path class="st10" d="M58.8,51.2c0.7-0.4,1.2-1,1.4-1.8c0.4-1.5-0.6-2.9-2.1-3.1c-1.4-0.2-2.9,0.9-2.8,2.5
					c0,0.8,0.3,1.6,0.9,2.1C57,51.5,57.9,51.7,58.8,51.2L58.8,51.2z"/>
			</g>
		</g>
		<g>
			<g>
				<path class="st10" d="M68.9,54.9c-0.2,0.3-0.5,0.6-0.7,0.9c-0.9,1.4-0.3,3.5,1.1,4.3c1.6,0.9,3.3,0.3,4.3-1.1
					c0.2-0.3,0.4-0.7,0.6-1c0.9-1.4,0.3-3.5-1.1-4.3c-0.7-0.4-1.6-0.6-2.4-0.3C69.9,53.7,69.4,54.2,68.9,54.9L68.9,54.9z"/>
			</g>
		</g>
		<g>
			<g>
				<path class="st10" d="M43,68.3c0,0-0.1,0.1-0.1,0.1c-0.6,0.6-0.6,1.6,0,2.2c0.6,0.6,1.6,0.6,2.2,0c0,0,0.1-0.1,0.1-0.1
					c0.6-0.6,0.6-1.6,0-2.2C44.5,67.7,43.6,67.7,43,68.3L43,68.3z"/>
			</g>
		</g>
		<g>
			<g>
				<path class="st10" d="M59.1,74.1c-0.7-1-1.8-1.4-3-1.1c-1.1,0.3-1.8,1.4-1.6,2.5c0.2,1.1,1.1,2,2.3,2c0.8,0,1.6-0.3,2.1-1
					C59.4,75.9,59.6,74.9,59.1,74.1L59.1,74.1z"/>
			</g>
		</g>
		<g>
			<g>
				<path class="st11" d="M41.2,53.9c-0.4,0.4-0.6,0.9-0.8,1.4c-0.3,0.8,0.1,1.8,0.6,2.4c0.6,0.6,1.5,0.8,2.4,0.6
					c1.8-0.4,3.2-2.3,2.5-4.1c-0.8-1.8-3.1-1.3-4.4-0.4c1,0.1,2,0.3,3,0.4c-0.2-0.2-0.3-0.4,0.1,0.1C43.8,53.2,42.2,52.9,41.2,53.9
					L41.2,53.9z"/>
			</g>
		</g>
		<g>
			<g>
				<path class="st11" d="M59.8,64.3c0-0.1,0.1-0.1,0.1-0.2c0.5-0.9,0.7-2.4,0-3.3c-0.5-0.7-1.1-1.3-1.9-1.5
					c-0.7-0.2-1.4-0.1-2.1,0.2c-0.7,0.3-1.1,0.7-1.5,1.3c0,0.1-0.1,0.1-0.1,0.2c-0.5,0.6-0.5,1.8-0.3,2.5c0.2,0.8,0.8,1.6,1.5,1.9
					C56.8,66.2,59,65.9,59.8,64.3L59.8,64.3z"/>
			</g>
		</g>
		<g>
			<g>
				<path class="st11" d="M66.1,74.3c0.6,0.3,1.2,0.5,1.9,0.3c0.3-0.1,0.6-0.2,0.9-0.4c0.4-0.2,0.8-0.4,1.2-0.6
					c0.5-0.3,1-0.7,1.4-1.1c1.1-0.9,1.4-2.1,1.1-3.5c-0.2-0.9-0.9-1.6-1.7-1.9c-0.9-0.4-1.8-0.3-2.7,0.2c-0.9,0.4-1.4,1.3-1.7,2.3
					c-0.1,0.3-0.3,0.6,0.1,0c-0.1,0.2-0.2,0.3-0.2,0.5c-0.1,0.2-0.2,0.3-0.3,0.5c0,0-0.1,0.1-0.1,0.1c-0.2,0.2-0.1,0.2,0.1-0.1
					c-0.1,0.2-0.3,0.4-0.4,0.5c-0.4,0.5-0.5,1-0.5,1.6C65.1,73.2,65.5,74,66.1,74.3L66.1,74.3z"/>
			</g>
		</g>
		<g>
			<g>
				<path class="st12" d="M47.3,58.4c-2.5-0.1-3.9,2.6-3.3,4.8c0.5,1.8,2.1,3.1,4,3.1c1.4,0,2.9-1.1,3.3-2.5c0.1-0.6,0.1-1.2,0-1.8
					c-0.2-0.7-0.9-1.7-1.6-2c-0.1-0.1-0.3-0.1-0.4-0.2c0.2,0.2,0.5,0.4,0.7,0.5c-0.1,0-0.1-0.1-0.2-0.2c0.2,0.2,0.4,0.5,0.5,0.7
					c-0.1-0.1-0.1-0.2-0.2-0.3c0.1,0.3,0.2,0.5,0.3,0.8c-0.1-0.4-0.3-0.7-0.5-1.1c0.1,0.3,0.2,0.5,0.3,0.8c0-0.1,0-0.1-0.1-0.2
					c0,0.3,0.1,0.6,0.1,0.9c-0.1-0.9-0.3-1.7-1-2.4C48.9,58.7,48.1,58.4,47.3,58.4L47.3,58.4z"/>
			</g>
		</g>
		<g>
			<g>
				<path class="st12" d="M56.5,50.3c-1-0.2-1.9-0.2-2.9,0.2c-1.2,0.5-2,1.4-2.4,2.6c-0.4,1.4,0.2,2.9,1.3,3.8
					c1.1,0.8,2.8,1.1,4,0.3c0.4-0.2,0.7-0.5,1-0.8c-0.2,0.2-0.5,0.4-0.7,0.6c0.1,0,0.1-0.1,0.2-0.1c-0.3,0.1-0.6,0.2-0.9,0.4
					c0.1,0,0.2-0.1,0.2-0.1c-0.3,0-0.6,0.1-0.9,0.1c0.1,0,0.2,0,0.2,0c1.8,0,3.2-1.3,3.5-3.1c0.1-0.8,0-1.6-0.4-2.3
					C58.1,51.3,57.4,50.5,56.5,50.3L56.5,50.3z"/>
			</g>
		</g>
		<g>
			<g>
				<path class="st12" d="M67.1,58.8c0.2-0.3,0.3-0.7,0.4-1c0.4-1-0.1-2.4-0.8-3.2c-0.8-0.8-2-1.1-3.2-0.8c0,0,0,0-0.1,0
					c-1.6,0.4-2.5,1.9-2.6,3.4c0,0.8,0.2,1.4,0.5,2.1c0.7,1.2,2.2,1.9,3.5,1.7c0.6-0.1,1.2-0.3,1.7-0.7c0.7-0.5,1-1.1,1.3-1.8
					c0.3-0.7,0.2-1.4,0-2.2c-0.2-1.1-1.4-2.3-2.5-2.5c0,0-0.1,0-0.1,0c-0.8,2-1.7,4-2.5,6c0.3,0.2,0.6,0.3,1,0.4
					C65.1,60.5,66.4,60,67.1,58.8L67.1,58.8z"/>
			</g>
		</g>
		<g>
			<g>
				<path class="st12" d="M64.2,62.8c-0.7,0.3-1.2,0.7-1.7,1.2c-0.5,0.6-0.9,1.2-1,2.1c-0.1,0.8,0,1.6,0.4,2.3
					c0.8,1.3,2.5,2.1,4,1.6c0.5-0.2,1-0.3,1.4-0.6c0.4-0.3,0.8-0.6,1.2-1c1.3-1.2,1.3-3.4,0.3-4.7c-0.5-0.6-1.1-1.1-1.9-1.3
					C65.9,62.2,65.1,62.3,64.2,62.8L64.2,62.8z"/>
			</g>
		</g>
		<g>
			<g>
				<path class="st12" d="M59.1,72.9c0.3-0.5,0.5-1.1,0.6-1.6c-0.5,0.7-1,1.3-1.5,2c1.6-0.9,2.5-2.4,2.3-4.2
					c-0.3-1.9-1.9-3.6-3.9-3.5c-1.8,0.1-3.3,1.2-3.9,2.9c-0.3,0.9-0.1,2.3,0.4,3.1c0.5,0.7,1.1,1.2,1.8,1.6c-0.5-0.7-1-1.3-1.5-2
					c0.1,0.6,0.3,1.1,0.6,1.6C55,74.9,58.1,74.9,59.1,72.9L59.1,72.9z"/>
			</g>
		</g>
		<g>
			<g>
				<path class="st12" d="M28,95.7c1.5,1.8,3.3,3.4,5,5c1.4,1.4,2.9,3.8,5.1,3.7c1-0.1,1.7-0.7,1.8-1.8c0.2-2.3-2.5-3.9-4.1-5.2
					C34,96,32.1,94.4,30,93.2C28.3,92.4,26.9,94.4,28,95.7L28,95.7z"/>
			</g>
		</g>
		<g>
			<g>
				<path class="st12" d="M24.3,98.4c0.4,2.3,3.1,4.5,4.7,6c1.7,1.6,4,4.1,6.5,4.2c1.1,0,1.5-1.1,1.2-2c-0.6-1.2-1.5-1.6-2.6-2.3
					c-1.2-0.8-2.4-1.6-3.6-2.4c-1.8-1.2-3.8-3.4-6-3.6C24.3,98.2,24.3,98.4,24.3,98.4L24.3,98.4z"/>
			</g>
		</g>
		<g>
			<g>
				<path class="st12" d="M20.6,102.5c1.2,2.1,3.3,3.9,5.1,5.5c1.8,1.7,3.7,4,6,5c1.8,0.8,4.5-1,3.1-3.1c-1.5-2.1-4-3.5-6.1-5.1
					c-2-1.5-4.2-3.4-6.7-4.2C21,100.3,20.1,101.6,20.6,102.5L20.6,102.5z"/>
			</g>
		</g>
	</g>
	<g>
		<g>
			<path class="st5" d="M30.8,172.8c-4.7,15.9-13.5,29.5-18.8,45.3c3.4,5.3,11,6.5,16.5,4c1.7-1.5,3.4-2.9,4.8-5.4
				c5.7-13.9,8.6-27,15.5-40.1c9-1.3,17.9-6.6,21.5-16.9c3.3-11.2-1.6-22.3-12-26.9c-9.2-3.8-21.6-3.8-29.1,3.3
				c-0.7,1.2-2.4,2.7-4.1,4.1c-3.8,9.2-5.4,23.1,3.7,30.4"/>
			<g>
				<path class="st6" d="M29.4,172.4c-3.4,11.1-8.7,21.3-13.4,31.8c-1,2.3-2,4.5-2.9,6.8c-0.6,1.6-2.7,5.2-2.5,6.8
					c0.4,2.6,3.6,4.7,5.9,5.7c6.7,2.9,14,0.8,17.8-5.4c2.5-4.1,3.8-9.3,5.3-13.8c1.9-5.6,3.7-11.2,5.9-16.6c0.9-2.3,2.1-6.7,3.9-8.7
					c1.5-1.7,4.2-1.8,6.3-2.6c3.4-1.3,6.5-3.1,9.2-5.6c6-5.5,9-13.5,7.8-21.5c-2.4-16.7-22-24.2-36.7-18.9c-4.3,1.5-6.8,4.1-10,7.2
					c-3.1,3-4,6.6-4.7,10.9c-1.5,8.5-0.2,17.4,6.6,23.2c1.5,1.3,3.6-0.9,2.1-2.1c-6-5.2-7.1-12.8-5.8-20.3c0.5-2.8,1.1-6,2.7-8.2
					c2.2-3,5.4-5.8,8.8-7.3c14.4-6.3,34.7,2.2,34.3,19.4c-0.2,8-4.9,15-11.8,18.8c-1.6,0.9-3.4,1.6-5.1,2.1c-1.2,0.4-3.5,0.4-4.5,1
					c-2.1,1.3-3.1,5.1-4.1,7.3c-3.1,7.1-5.5,14.6-8.1,21.9c-2.7,7.7-5.1,18.6-15.4,17.3c-2.5-0.3-5.8-1.2-6.6-3.8
					c-0.7-2.1,1-4.9,1.8-6.9c1.8-4.5,3.9-8.8,5.9-13.2c3.8-8,7.5-16.1,10.1-24.6C32.8,171.4,29.9,170.6,29.4,172.4L29.4,172.4z"/>
			</g>
		</g>
		<g>
			<g>
				<path class="st7" d="M30.6,144c-3.3,1.2-4.5,5.9-1.9,8.4c2.8,2.8,6.6,0.6,7.5-2.7c0.9-3.1-0.6-7.1-4.4-7
					c-4.5,0.1-5.4,5.2-4.5,8.6c0.4,1.7,1.6,3.2,3.3,3.6c2.2,0.5,4-0.8,5.1-2.5c0.9-1.5,1.7-3.3,1.6-5.1c-0.1-2.1-1.5-4.2-3.5-4.8
					c-4.2-1.4-6.5,2.7-6.7,6.3c-0.1,2,0.7,4,2.5,5.1c2.1,1.2,4.7,0.5,6-1.4c1.2-1.7,1.8-4.4,0.8-6.3c-1.2-2.4-4.5-3.3-6.6-1.4
					c-1.4,1.3-2.3,3.7-2,5.6c0.4,2.8,3,4.5,5.7,3.8c3.5-0.9,2.9-6.7-0.9-6.4c0.6,0.7,1.2,1.5,1.7,2.2c0-0.2,0-0.3,0.1-0.4
					c-0.1,0,0.6-0.6,0,0c-0.5,0.3-1,0.6-1.5,0.9c0.1,0,0.2-0.1,0.3-0.1c-0.6,0-1.2,0-1.8,0c-0.7-2.1-1.2-2.6-1.4-1.5
					c-0.1,0.4-0.1,0.4-0.1,0.2c1.5-0.7,2.6-0.7,3.4,0.1c0.1,0.1,0.1,0,0-0.4c0-0.5,0-0.6,0-0.2c0-0.2,0.1-0.3,0.1-0.5
					c0.1-0.2,0.1-0.2,0,0c-0.6,0.8-1.4,0.9-2.4,0.4c-1.1-0.9,0-0.4-0.3-0.3c-0.1,0-0.6,1.3-0.6,1.4c-0.1,0.1-0.1,0.2-0.2,0.3
					c1.7-0.8,2.7-0.7,3,0.3c0-0.3-0.2-0.8-0.3-1.1c0-0.1,0.1-0.5-0.1-0.6c0-0.2-0.1-0.2-0.5,0.1c-0.5,0.2-0.9,0.1-1.3-0.4
					c0,0-0.1-0.1,0-0.1c0,0.2,0,0.5,0,0.7c0-0.2-0.1,0.2-0.1,0.3c-0.2,0.4-0.2,0.4,0,0.1c0.3,0,0.6,0,1-0.1c0.2,0.3,0.2,0.2,0-0.2
					c0-0.1,0-0.1,0-0.1c0.2-1,0.7-1.8,0.8-2.9C32.7,144.5,31.5,143.6,30.6,144L30.6,144z"/>
			</g>
		</g>
		<g>
			<g>
				<path class="st7" d="M48,149.9c-0.6-2.1-3.5-0.6-4.5,0.2c-2.1,1.9-3.9,5.1-2.6,7.8c0.7,1.4,2.1,2.4,3.7,2.4
					c1.4,0,2.8-0.9,3.9-1.7c2.6-1.8,4.7-4.6,3.9-7.9c-0.8-3.3-4.2-5-7.4-4.2c-2.9,0.7-5.2,3.5-5.8,6.3c-0.7,3.3,1,6.9,4.4,7.9
					c3.4,0.9,7-1.6,7.9-4.9c1.1-3.7-1.8-7.8-5.8-7.5c-4.4,0.3-6.1,5.5-3.3,8.6c2.6,2.8,7.5-0.9,5.3-4.1c0.7,1.1-0.4,1.7-1.1,1.9
					c-0.5,0.5-0.9,0.5-1.4,0.2c-0.1-0.3-0.2-0.5-0.3-0.8c0,0-0.2,0.1,0.1,0.1c0.3,0,0.5,0.2,0.5,0.2c0.1-0.1,0.4-1.1,0.6-1.4
					c0.1-0.1,0.4-0.3,0.5-0.4c0,0-0.1-0.3-0.2-0.3c0,0-0.2,0.6-0.3,0.6c-0.2,0.3-0.6,0.6-0.8,0.8c-0.2,0.2-0.4,0.3-0.6,0.5
					c-0.2,0.1-0.4,0.3-0.6,0.4c-0.3,0.2-0.2,0.2,0,0c0.5,0.1,0.9,0.3,1.4,0.4c-0.4-0.3-0.5-0.3-0.2,0c0.1,0.3,0.2,0.3,0.2,0
					c0.2-0.1,0.3-0.9,0.4-1.2c0.2-0.7,0.5-1.3,0.9-1.9C47.2,151.5,48.1,150.4,48,149.9L48,149.9z"/>
			</g>
		</g>
		<g>
			<g>
				<path class="st7" d="M61.8,156.4C61.8,156.4,61.8,156.4,61.8,156.4c-0.2-0.3-0.6-0.6-0.9-0.5c-2.7,0.2-4.7,2.6-4.4,5.4
					c0.1,1.3,1,2.6,2.5,2.5c2.4-0.1,4.9-1.4,5.9-3.7c1-2.2,0.4-5.1-1.7-6.5c-2.1-1.4-5-0.8-6.7,1c-1.6,1.7-2.4,4.9-1.7,7.1
					c0.9,3,4.5,3.6,6.9,2.1c2.1-1.3,3.5-3.9,3.3-6.4c-0.2-3.2-3.6-4.6-6.4-3.9c-2.4,0.6-4.5,2.8-4.5,5.4c0,2.8,2.1,5.6,5.1,5.6
					c2.9,0.1,5.7-2.6,5.3-5.5c-0.2-1.9-1.3-3.1-3.2-3.2c-0.7-0.1-1.4,0.3-2,0.7c-0.5,0.4-0.8,0.8-1,1.3c-0.2,0.4-0.3,0.8-0.3,1.2
					c0,0.1,0,0.2,0,0.2c0.1-0.1,0.1-0.5,0.2-0.7c0.1-0.1,0.1-0.2,0.2-0.2c-0.2,0.2-0.2,0.2-0.1,0.1c0.7-0.3,1.3-0.5,1.9,0.1
					c0.2,0.2,0.2,0.4,0,0c0.1,0.2,0.1,0.4,0.1,0c0.1,0.3,0.1,0.5,0,0.8c0,0.1-0.3,0.5-0.1,0.2c0.2-0.2,0.1-0.1-0.1,0.1
					c0.1,0,0.2-0.1,0.2-0.1c-0.1,0-0.2,0.1-0.2,0.1c0.1,0,0.2,0,0.3-0.1c-0.1,0-0.2,0-0.3,0.1c0.3,0,0.4,0,0.1,0
					c-0.2-0.1-0.5-0.1-0.7-0.3c-0.3-0.5-0.5-0.9-0.8-1.4c0.3,0.6,0,0.1,0.1-0.1c-0.3,0.8,0.3-0.2-0.2,0.5c-0.1,0.1-0.1,0.2-0.2,0.3
					c0.1-0.2,0-0.2-0.2,0.1c0.2,0,0.3-0.2,0.5-0.2c0.8-0.1,1.4,0.4,1.9,1.4c0.1,0.2,0.1,0.2,0.1,0c0.1-0.3,0-0.6,0.1-0.8
					c-0.1,0.4,0.2-0.5,0.2-0.5c-0.2,0.4,0.3-0.5,0.1,0c-0.2,0.3-0.5-0.1,0,0c-0.4-0.1-0.7,0.1-1-0.2c-0.2-0.2-0.2-0.3-0.3-0.5
					c0.1,0.3,0.1,0.3,0.1,0c0,0.1,0,0.2,0,0.3c0-0.3,0-0.3,0-0.1c0,0.2,0,0.2,0,0c0.2-0.2-0.3,0.3-0.1,0.2c-0.5,0.4-1.2,0.6-1.7,0.9
					c1.1,0.3,2.3,0.6,3.4,0.9c-0.2-0.3-0.1-0.2-0.1-0.6c0-0.4,0.1-0.7,0.2-1C61.5,157.7,62.2,157.1,61.8,156.4L61.8,156.4z"/>
			</g>
		</g>
		<g>
			<g>
				<path class="st8" d="M30.1,145.1c-1.5,0.8-2.1,2.5-1.6,4.1c0.4,1.4,1.5,2.4,2.8,2.8c1.9,0.5,3.7-1,4.1-2.7
					c0.3-1.1,0.2-2.4-0.4-3.3c-1.3-2.3-4.6-2.9-6.5-0.8c-1.8,2-1.6,5.5,0.9,6.8c1.9,1,4,0.1,4.7-1.9c0.5-1.4,0.2-2.8-0.5-4.1
					c-0.8-1.4-2.6-1.9-4-1.3c-1.4,0.6-2.4,2.3-1.8,3.8c0.1,0.2,0.1,0.3,0.1,0.5c0-0.3-0.1-0.6-0.1-0.9c0,0.3,0.1,0.5,0,0.8
					c0-0.3,0.1-0.6,0.1-0.9c0,0.1,0,0.2-0.1,0.3c1.3-0.7,2.6-1.5,3.9-2.2c0,0-0.1,0-0.1,0c0.3,0.1,0.5,0.2,0.8,0.3
					c-0.1,0-0.1-0.1-0.2-0.1c0.2,0.2,0.4,0.3,0.6,0.5c0,0-0.1-0.1-0.1-0.1c0.2,0.2,0.3,0.4,0.5,0.6c-0.1-0.1-0.1-0.1-0.1-0.2
					c0.1,0.3,0.2,0.5,0.3,0.8c0-0.1-0.1-0.2-0.1-0.4c0,0.3,0.1,0.6,0.1,0.8c0-0.1,0-0.3,0-0.4c0,0.3-0.1,0.6-0.1,0.8
					c0-0.1,0.1-0.3,0.1-0.4c-0.1,0.2-0.2,0.5-0.3,0.7c0.1-0.1,0.1-0.2,0.2-0.3c-0.2,0.2-0.3,0.4-0.5,0.6c0,0,0.1-0.1,0.1-0.1
					c-0.2,0.2-0.4,0.3-0.6,0.5c0.1-0.1,0.1-0.1,0.2-0.1c-0.2,0.1-0.5,0.2-0.7,0.3c0.1,0,0.1,0,0.2-0.1c-0.3,0-0.5,0.1-0.8,0.1
					c0.1,0,0.2,0,0.3,0c-0.3,0-0.5-0.1-0.8-0.1c0.1,0,0.1,0,0.2,0c-0.2-0.1-0.5-0.2-0.7-0.3c0.5,0.2-0.5-0.5-0.2-0.2
					c-0.6-0.7-0.4-0.5-0.2-0.2c-0.1-0.2-0.2-0.5-0.3-0.7c0,0.1,0.1,0.2,0.1,0.4c0-0.3-0.1-0.5-0.1-0.8c0,0.1,0,0.3,0,0.4
					c0-0.3,0.1-0.5,0.1-0.8c0,0.1,0,0.2-0.1,0.3c0.1-0.2,0.2-0.5,0.3-0.7c-0.1,0.1-0.2,0.4,0.1-0.1c0.1-0.2,0.2-0.3,0.4-0.4
					c0.3-0.2,0.3-0.2,0.1-0.1c0.8-0.1,1.5-0.2,2.3-0.3c-0.4-0.1,0.4,0.2,0.4,0.2c0,0-0.1,0-0.1-0.1c0.2,0.1,0.4,0.3,0.6,0.5
					c0.4,0.5,0-0.2,0.2,0.3c0.2,0.5,0.1,0.2,0,0c0,0.3,0.1,0.5,0.1,0.8c0-0.3-0.1-0.7-0.1-1c0,0,0-0.1,0-0.1c0.1,0.3,0.1,0.7,0,1
					c0.2-1-0.1-2.1-0.9-2.8C32.2,144.7,31.1,144.6,30.1,145.1L30.1,145.1z"/>
			</g>
		</g>
		<g>
			<g>
				<path class="st8" d="M45.7,154.6c0.6,0.1,1.1,0.1,1.7-0.1c0.3-0.1,0.5-0.2,0.8-0.4c0.2-0.1,0.4-0.3,0.5-0.4
					c0.3-0.4,0.4-0.5,0.3-0.3c-0.2,0.2-0.1,0.1,0.3-0.4c0.1-0.1,0.2-0.3,0.2-0.5c0.2-0.4,0.3-0.8,0.3-1.2c0-0.7-0.1-1.4-0.3-2
					c-0.3-1.3-1.8-2.1-3.1-1.8c-0.3,0.1-0.2,0.1,0.2,0c-0.3,0-0.6,0.1-0.9,0.1c-0.5,0.1-1,0.5-1.4,0.8c-0.6,0.5-1,1.1-1.3,1.8
					c-0.6,1.5-0.5,3.1,0.2,4.6c0.6,1.2,2.1,1.7,3.3,1.3c1.7-0.5,2.8-2.1,2.8-3.8c0-1.6-1.2-3.5-2.9-3.8c-1.4-0.2-2.6,0.2-3.4,1.4
					c-0.9,1.4-0.8,3.3,0.1,4.8c1,1.7,2.9,2.4,4.9,2.1c1.4-0.2,2.1-1.7,2.2-3c0.2-1.7-0.7-3.5-2.1-4.3c-1.9-1.1-4.6-0.4-5.5,1.7
					c-0.9,2.2,1.1,5.1,3.6,4.1c0.3-0.1,0.6-0.3,0.8-0.5c-0.6,0.5-0.6,0.5,0.1-0.1c-0.4,0.3-0.5,0.4-0.3,0.2c0.7-0.5,0.8-0.6,0.4-0.3
					c-0.3,0.3-0.7,0.4-1.2,0.4c-0.8,0-1.4-0.3-1.7-0.9c-0.2-0.2-0.2-0.5-0.2-0.8c0,0.3,0,0.3,0.1-0.2c1-0.7,2-1.5,3-2.2
					c-0.6,0.1,0.7,0.2,0.1,0.1c0.5,0.1,0.8,0.3,1,0.8c-0.3-0.5,0.2,0.7,0,0.1c0.1,0.4,0.1,0.9-0.1,1.3c-0.9,0.5-1.7,1-2.6,1.5
					c-1.3-0.1-2.1-0.8-2.2-2c0,0.3,0,0.2,0.1-0.4c0.2-0.8,0.7-1.3,1.5-1.5c1.1,0.4,2.2,0.9,3.3,1.3c-0.2-0.3-0.1-0.2,0.1,0.2
					c-0.1-0.3-0.1-0.2,0,0.2c0-0.1,0-0.3,0-0.4c-0.1,0.5-0.1,0.5,0,0.2c0.1-0.3,0.1-0.2-0.1,0.2c0.2-0.3,0.1-0.2-0.1,0.1
					c0.2-0.3,0.5-0.6,0.7-1c-0.3,0.3-0.6,0.6-0.9,0.9c0.1-0.1,0.2-0.1,0.3-0.2c-1.1-0.3-2.3-0.6-3.4-0.9c0.1,0.1,0.2,0.3,0.2,0.5
					c-0.1-0.3,0,0.2,0.1,0.3c0.1,0.4,0,0.6,0.2-0.2c0.1-0.6,0.1-0.7,0.7-0.8c-0.9,0.1-1.7,0.7-1.9,1.6
					C44.2,153.4,44.7,154.4,45.7,154.6L45.7,154.6z"/>
			</g>
		</g>
		<g>
			<g>
				<path class="st8" d="M57.8,161.2c1.7,0.6,3.3-0.5,4.1-2c0.6-1.1,0.6-2.4,0-3.4c-0.4-0.7-1.3-1.3-2-1.5c-0.8-0.2-1.6-0.1-2.4,0.2
					c-1.4,0.6-2.4,2-2.4,3.5c0,1.9,1.4,3.2,3.2,3.5c2.2,0.3,4.6-1.1,5-3.4c0.2-0.9,0.1-1.7-0.3-2.5c-0.4-0.7-1.2-1.3-1.9-1.5
					c-1.6-0.4-3.7,0.5-4,2.3c0,0.1-0.1,0.2-0.1,0.3c0.1-0.3,0.2-0.5,0.3-0.8c0,0.1-0.1,0.1-0.1,0.2c0.2-0.2,0.3-0.4,0.5-0.7
					c-0.1,0.1-0.2,0.2-0.2,0.3c0.2-0.2,0.4-0.3,0.6-0.5c-0.1,0.1-0.2,0.1-0.3,0.2c0.3-0.1,0.5-0.2,0.8-0.3c-0.2,0.1-0.3,0.1-0.5,0.1
					c0.3,0,0.6-0.1,0.9-0.1c-0.1,0-0.2,0-0.2,0c0.3,0,0.6,0.1,0.8,0.1c-0.1,0-0.2,0-0.3-0.1c0.3,0.1,0.5,0.2,0.8,0.3
					c0,0-0.1,0-0.1-0.1c0.5,0.9,1.1,1.8,1.6,2.8c0-0.1,0-0.2,0-0.3c0,0.3-0.1,0.6-0.1,0.8c0-0.1,0-0.2,0.1-0.2
					c-0.1,0.3-0.2,0.5-0.3,0.8c0.1-0.1,0.1-0.2,0.2-0.3c-0.2,0.2-0.3,0.4-0.5,0.6c0.1-0.1,0.1-0.1,0.2-0.2c-0.2,0.2-0.4,0.3-0.6,0.5
					c0.1-0.1,0.3-0.2,0.4-0.3c0.5-0.4,0.4-0.3-0.1,0.1c-0.2,0.1-0.5,0.2-0.7,0.3c0.1,0,0.1-0.1,0.2-0.1c-0.7-0.1-1.5-0.2-2.2-0.3
					c0.4,0.2,0.2,0-0.7-0.8c-0.1-0.2-0.1-0.3-0.2-0.5c0.1,0.3,0,0.1,0-0.4c0.3-1,0.4-1.3,0.2-0.9c-0.2,0.4,0.2-0.2,0.3-0.3
					c0.2-0.1,0.2-0.2,0.1-0.1c0.4-0.3,0.9-0.3,1.4-0.2c-0.7-0.1-1.2-0.1-1.8,0.2c-0.5,0.3-1,0.9-1.1,1.4
					C55.8,159.6,56.5,160.8,57.8,161.2L57.8,161.2z"/>
			</g>
		</g>
		<g>
			<g>
				<path class="st9" d="M42.2,140.7c1.5,0,2.8-0.8,3.6-2c0.9-1.3,1.4-3.4-0.3-4.4c-1.6-0.9-3.8,0.2-4.9,1.4
					c-1.4,1.5-1.8,3.8-0.5,5.5c1.4,1.8,4,1.9,5.6,0.3c1.7-1.7,1.2-4.5-0.9-5.6c-2.3-1.2-5.1,0.2-5.4,2.8c-0.4,3,3.2,5.1,5.7,3.8
					c2.9-1.5,2.6-5.9-0.1-7.4c-1.3-0.8-2.9-0.9-4.2-0.2c-1.2,0.7-2.1,2.2-2,3.6c0.1,1.7,1.4,3.3,3.2,3.2c1.5-0.1,3.4-1.4,3.2-3.2
					c-0.1-0.6-0.3,1-0.3,1c-0.7,1.5-2.8,1.5-3.6,0.5c-1.4-1.8,1.9-4.1,3.5-2.6c0.2,0.3,0.4,0.6,0.5,0.9c-0.3,0.8-0.7,1.7-1,2.5
					c-0.7,0.4-1.1,0.1-1.7-0.3c-0.9-0.2-1.2-0.7-0.9-1.5c-0.2-0.6-0.1-1,0.3-1.3c0.3-0.3,0.5-0.5,1-0.5c0.7,0.1,1,0.4,1.3,0.8
					c0-0.2,0-0.3,0-0.1c0,0.1,0,0.2,0,0.3c0.1,0.2,0.1-0.1,0,0c-0.1,0.2,0.2-0.3,0-0.1c0.1-0.1,0.2-0.2,0.3-0.4
					c0.1-0.1,0.3-0.3,0.4-0.4c0.5-0.5,0.1,0.2-0.6,0c-0.2-0.1-0.5-0.3-0.7-0.4c-0.3-0.2,0-0.2-0.1,0.1c-0.1,0.2-0.2,0.3-0.3,0.5
					c-0.3,0.3-0.7,0.6-1.1,0.6C40.8,138.6,40.7,140.7,42.2,140.7L42.2,140.7z"/>
			</g>
		</g>
		<g>
			<g>
				<path class="st9" d="M58.4,141.4c-1.8-1-3.7,0.4-4.1,2.2c-0.4,1.6,0.2,3.4,1.7,4.2c1.6,0.9,3.5,0.5,4.8-0.7
					c1.3-1.2,1.5-3.3,0.6-4.8c-0.9-1.5-3-2.5-4.7-2c-1.9,0.5-3.1,2.2-3.1,4.2c0,2,1.4,3.8,3.3,4.4c1.7,0.5,3.7,0,5-1.3
					c1.5-1.6,2-4.1,0.9-6c-0.5-0.9-1.4-1.6-2.4-2c-0.6-0.2-1.1-0.4-1.7-0.4c-0.8,0-1.4,0.2-2.1,0.5c-0.7,0.3-1.2,1-1.4,1.7
					c-0.3,0.7-0.4,1.5-0.2,2.3c0.2,0.6,0.5,1.1,0.9,1.5c0.5,0.6,1.7,1.1,2.5,1c0.4,0,0.8-0.1,1.2-0.2c-0.3,0-0.6,0.1-0.9,0.1
					c0.1,0,0.2,0,0.3,0c-0.3,0-0.6-0.1-0.9-0.1c0.1,0,0.3,0.1,0.4,0.1c-0.3-0.1-0.6-0.2-0.8-0.4c0.1,0.1,0.2,0.1,0.3,0.2
					c-0.2-0.2-0.5-0.4-0.7-0.5c0.1,0.1,0.1,0.1,0.2,0.2c-0.2-0.2-0.4-0.5-0.5-0.7c0.1,0.1,0.1,0.2,0.1,0.2c-0.1-0.3-0.2-0.6-0.4-0.8
					c0.1,0.2,0.1,0.3,0.1,0.4c0-0.3-0.1-0.6-0.1-0.9c0,0.1,0,0.2,0,0.3c0-0.3,0.1-0.6,0.1-0.9c0,0.2-0.1,0.3-0.1,0.5
					c0.1-0.3,0.2-0.5,0.3-0.8c-0.1,0.1-0.1,0.3-0.2,0.4c0.2-0.2,0.4-0.5,0.5-0.7c-0.1,0.1-0.2,0.2-0.3,0.3c0.2-0.2,0.5-0.4,0.7-0.5
					c-0.1,0.1-0.2,0.2-0.4,0.2c0.3-0.1,0.5-0.2,0.8-0.3c-0.1,0.1-0.3,0.1-0.4,0.1c0.3,0,0.6-0.1,0.9-0.1c-0.2,0-0.3,0-0.4,0
					c0.3,0,0.6,0.1,0.9,0.1c-0.1,0-0.2,0-0.3-0.1c0.3,0.1,0.5,0.2,0.8,0.3c-0.1-0.1-0.2-0.1-0.4-0.2c0.2,0.2,0.5,0.4,0.7,0.5
					c-0.1-0.1-0.1-0.1-0.2-0.2c0.2,0.2,0.4,0.5,0.5,0.7c0-0.1-0.1-0.1-0.1-0.2c0.1,0.3,0.2,0.5,0.3,0.8c0-0.1-0.1-0.2-0.1-0.4
					c0,0.3,0.1,0.6,0.1,0.9c0-0.1,0-0.2,0-0.4c0,0.3-0.1,0.6-0.1,0.9c0-0.2,0.1-0.3,0.1-0.5c-0.1,0.3-0.2,0.5-0.3,0.8
					c0-0.1,0.1-0.1,0.1-0.2c-0.2,0.2-0.3,0.4-0.5,0.7c0.2-0.2,0.1-0.1-0.4,0.3c-0.3,0.1-0.5,0.2-0.8,0.3c0.1,0,0.1-0.1,0.2-0.1
					c-0.3,0-0.6,0.1-0.8,0.1c0.1,0,0.2,0,0.4,0c-0.3,0-0.6-0.1-0.8-0.1c0.3,0.1,0.2,0-0.4-0.2c0.2,0.1,0.1,0.1-0.1-0.1
					c-0.2-0.1-0.4-0.3-0.6-0.6c-0.2-0.6-0.3-0.7-0.2-0.4c0-0.3-0.1-0.5-0.1-0.8c0,0.1,0,0.2,0,0.2c0-0.3,0.1-0.5,0.1-0.8
					c-0.1,0.3,0,0.2,0.2-0.4c0.4-0.4,0.4-0.5,0.2-0.3c0.2-0.3,0.5-0.4,0.9-0.5c0,0-0.1,0-0.1,0c0.6,0,0.7-0.1,0.4-0.1
					c0.3,0,0.7,0.1,1,0.2c-0.2-0.2-0.1-0.1,0.3,0.2c0.2,0.2,0.3,0.3,0.4,0.6c0.1,0.2,0.1,0.3,0.1,0.1c0,0.5,0.1,0.6,0.1,0.3
					c0,0.3-0.1,0.6-0.2,0.8c0.2-0.3,0.3-0.6,0.3-0.9c0.1-0.5,0.1-0.4,0,0.1c0.1-0.4,0.1-0.8,0-1.2C59.3,142.2,58.9,141.7,58.4,141.4
					L58.4,141.4z"/>
			</g>
		</g>
		<g>
			<g>
				<path class="st9" d="M32.3,161c-1.2,1.3-0.1,3.2,1.2,3.9c1.5,0.9,3.6,0.4,4.6-1.1c1-1.7,0.3-3.9-1.4-4.9c-1.8-1-3.9-0.3-4.9,1.4
					c-1,1.8-0.4,4,1.3,5.1c1.5,1,3.7,0.5,4.8-0.8c1.3-1.6,1.5-3.7,0.1-5.3c-1-1.2-3-1.6-4.5-1c-2.1,0.8-3.4,2.9-2.8,5.1
					c0.6,2.2,2.9,3.7,5.2,3.1c1-0.2,1.7-1.2,1.9-2.2c0.1-1-0.3-2.2-1.2-2.6c-0.1-0.1-0.3-0.1-0.4-0.2c-0.3-0.2-0.4-0.4,0,0.1
					c-0.2-0.1-0.4-0.3-0.6-0.4c0.3,0.3,0.4,0.3,0.3,0.2c-0.1-0.2-0.1-0.1,0.2,0.3c-0.1-0.2-0.1-0.2,0,0.1c0.1,0.2,0.1,0.3,0,0
					c0,0.1,0,0.3,0.1,0.4c-0.1,0.5-0.1,0.6,0,0.4c0.1-0.2,0-0.1-0.2,0.4c-0.1,0.1-0.2,0.2-0.3,0.4c0.2-0.2,0.1-0.1-0.3,0.2
					c0.1,0,0.5-0.3,0,0c-0.3,0.1-0.3,0.1-0.1,0.1c-0.2,0-0.3,0-0.5,0.1c0.1,0,0.2,0,0.3,0c-0.2,0-0.3,0-0.5-0.1
					c-0.4-0.2-0.6-0.3-0.4-0.2c0.2,0.1,0.1,0-0.3-0.2c-0.3-0.3-0.5-0.8-0.5-1.2c0-0.2,0-0.3,0.1-0.5c-0.1,0.2,0,0.2,0.1-0.1
					c0.1-0.2,0.1-0.3,0-0.1c0.1-0.1,0.2-0.2,0.3-0.3c-0.1,0.1-0.1,0.1-0.2,0.2c0.1-0.1,0.2-0.2,0.3-0.3c0.4-0.2,0.6-0.2,0.4-0.2
					c-0.2,0.1-0.1,0,0.4-0.1c0.5,0,0.9,0.2,1.2,0.6c0.3,0.4,0.4,0.5,0.3,0.2c0.2,0.4,0.2,0.5,0.2,0.3c-0.1-0.3,0.1,0.7,0.1,0.3
					c0,0.2,0,0.4-0.1,0.6c-0.1,0.2-0.1,0.3,0,0.1c-0.3,0.5-0.8,0.8-1.4,0.8c-0.3,0-0.6-0.2-0.8-0.3c-0.2-0.1-0.2-0.1,0,0
					c-0.2-0.3-0.3-0.4-0.2-0.2c0.1,0.2,0.1,0.1-0.1-0.2c0-0.3,0-0.5,0-0.8c0.1-0.3,0.2-0.4,0.1-0.2c-0.1,0.1,0,0.1,0.1-0.2
					c0.2-0.2,0.3-0.2,0.1-0.1c-0.1,0.1-0.1,0,0.2-0.1c0.1,0,0.2,0,0.2,0c-0.2,0-0.2,0,0,0c0.3,0-0.2-0.1,0.1,0
					c-0.2-0.1-0.2-0.1-0.1,0c-0.1-0.1-0.2-0.2-0.3-0.3c-0.2-0.1-0.4-0.2-0.6-0.3C33.1,160.6,32.6,160.6,32.3,161L32.3,161z"/>
			</g>
		</g>
		<g>
			<g>
				<path class="st9" d="M50,165c-1.1-1.5-3.4-1.2-4.2,0.4c-1,1.9,0.4,4.1,2.3,4.7c3.1,0.9,6.4-1.8,5.5-5.1c-0.4-1.5-1.5-2.7-3-3
					c-1.8-0.4-3.6,0.5-4.5,2.1c-1.1,1.9-0.3,4.5,1.9,5.1c1.1,0.3,2.3,0,3.1-0.8c0.9-1,1-2.3,0.5-3.5c-0.6-1.3-2.3-1.5-3.5-0.9
					c-0.3,0.2,0.7-0.2,0.3-0.1c-0.7,0.2-0.2,0.6,1.3,1.1c1.1,0.2,1.6,0.7,1.4,1.5c-0.1,0.2-0.6,0.8-0.3,0.5
					c-0.2,0.2-0.5,0.3-0.8,0.4c-0.2,0-0.4,0-0.6-0.1c0.2,0.1,0.2,0.1,0,0c-0.1-0.1-0.7-0.5-0.4-0.2c-0.2-0.3-0.3-0.4-0.2-0.2
					c0.1,0.2,0.1,0.1-0.1-0.3c0.2,0.5,0-0.6,0-0.1c0-0.1,0-0.3,0-0.4c0.2-0.4,0.2-0.4,0.1-0.2c0.1-0.1,0.1-0.2,0.2-0.3
					c-0.2,0.1-0.2,0.1,0,0c0.2-0.1,0.2-0.1,0,0c0.1,0,0.2-0.1,0.3-0.1c-0.5,0.2,0.5,0,0,0c0.4,0.1,0.5,0.1,0.3,0
					c-0.2,0-0.1,0,0.2,0.1c-0.1,0-0.2-0.1-0.2-0.1c-0.1-0.1-0.1-0.1,0.1,0.1c0.1,0.2,0.2,0.4,0.4,0.6c0.1,0.5,0,1-0.4,1.4
					c0.2,0,0.3-0.4,0.4-0.5C50.2,166.3,50.4,165.6,50,165L50,165z"/>
			</g>
		</g>
		<g>
			<g>
				<path class="st10" d="M43.7,141.1c0.6-0.5,0.9-1.3,0.9-2.1c0-1.5-1.4-2.7-2.8-2.5c-1.4,0.2-2.5,1.7-2.1,3.1
					c0.2,0.8,0.7,1.4,1.4,1.8C42,141.8,42.9,141.8,43.7,141.1L43.7,141.1z"/>
			</g>
		</g>
		<g>
			<g>
				<path class="st10" d="M54.4,142.2c-0.1,0.4-0.3,0.7-0.4,1.1c-0.5,1.6,0.6,3.5,2.2,3.9c0.8,0.2,1.7,0.1,2.4-0.3
					c0.7-0.5,1.1-1.1,1.4-1.9c0.1-0.4,0.2-0.7,0.4-1.1c0.5-1.6-0.6-3.5-2.2-3.8c-0.8-0.2-1.7-0.1-2.4,0.3
					C55.1,140.8,54.7,141.4,54.4,142.2L54.4,142.2z"/>
			</g>
		</g>
		<g>
			<g>
				<path class="st10" d="M32.6,161.5c0,0-0.1,0.1-0.1,0.1c-0.4,0.7-0.2,1.7,0.6,2.1c0.7,0.4,1.7,0.2,2.1-0.6c0-0.1,0.1-0.1,0.1-0.2
					c0.4-0.7,0.2-1.7-0.6-2.1C33.9,160.6,33.1,160.9,32.6,161.5L32.6,161.5z"/>
			</g>
		</g>
		<g>
			<g>
				<path class="st10" d="M49.7,163.2c-0.9-0.9-2.1-0.9-3.1-0.3c-1,0.5-1.4,1.9-0.9,2.9c0.4,1.1,1.6,1.6,2.7,1.3
					C49.9,166.7,51.1,164.5,49.7,163.2L49.7,163.2z"/>
			</g>
		</g>
		<g>
			<g>
				<path class="st11" d="M27.3,148.1c-0.3,0.5-0.4,1-0.5,1.6c-0.1,0.8,0.5,1.7,1.2,2.1c0.8,0.5,1.7,0.4,2.5,0
					c1.6-0.9,2.6-3,1.4-4.6c-1.2-1.5-3.3-0.4-4.3,0.7c1-0.1,2-0.3,3-0.4c-0.4-0.2,0.4,0.4,0.1,0.1C29.7,146.7,28,146.9,27.3,148.1
					L27.3,148.1z"/>
			</g>
		</g>
		<g>
			<g>
				<path class="st11" d="M47.9,153.4c0-0.1,0-0.1,0-0.2c0.2-1,0.1-2.4-0.8-3.1c-0.7-0.5-1.4-1-2.3-0.9c-1,0-2.4,0.6-2.8,1.6
					c0,0.1-0.1,0.1-0.1,0.2c-0.3,0.5-0.4,1.1-0.4,1.6c0,0.3,0.1,0.6,0.1,0.9c0.2,1,1,1.7,1.9,2.1C45.2,156.3,47.5,155.3,47.9,153.4
					L47.9,153.4z"/>
			</g>
		</g>
		<g>
			<g>
				<path class="st11" d="M57,161.7c1.2,0,2.1-0.7,3-1.5c0.6-0.6,1.2-1.4,1.6-2.2c0.5-1,0.6-2.2,0-3.2c-0.4-0.7-1.1-1.2-1.9-1.4
					c-2-0.6-3.9,1-4,3c0,0.2,0.1,0.7,0,0.9c0.1-0.4,0.1-0.4,0-0.1c0,0.1-0.1,0.3-0.1,0.4c0,0.1-0.1,0.3-0.1,0.4c0.1-0.3,0.1-0.2,0,0
					c-0.3,0.6-0.4,1-0.4,1.7C55.1,160.8,55.9,161.7,57,161.7L57,161.7z"/>
			</g>
		</g>
		<g>
			<g>
				<path class="st12" d="M32.3,152.3c-0.8,1.5-0.7,3.1,0.3,4.5c1.1,1.4,2.6,1.9,4.3,1.5c1.4-0.3,2.5-1.8,2.5-3.3
					c0-0.6-0.2-1.2-0.5-1.7c-0.4-0.7-1.3-1.4-2-1.6c-0.2,0-0.3-0.1-0.5-0.1c0.3,0.1,0.5,0.2,0.8,0.3c-0.1,0-0.1-0.1-0.2-0.1
					c0.2,0.2,0.5,0.4,0.7,0.5c-0.1-0.1-0.1-0.1-0.2-0.2c0.2,0.2,0.4,0.5,0.5,0.7c-0.2-0.3-0.5-0.7-0.7-1c0.2,0.2,0.3,0.4,0.5,0.7
					c0,0,0-0.1-0.1-0.1c0.1,0.3,0.2,0.5,0.3,0.8c0-0.1-0.1-0.1-0.1-0.2c-0.3-1.2-1.4-2.1-2.6-2.3C34.3,150.7,32.9,151.2,32.3,152.3
					L32.3,152.3z"/>
			</g>
		</g>
		<g>
			<g>
				<path class="st12" d="M41.2,140.8c-1,0.1-1.9,0.3-2.7,1c-1.1,0.8-1.6,1.8-1.7,3.2c0,0.6,0.2,1.3,0.5,1.8c0.4,0.7,1,1.2,1.7,1.5
					c1.3,0.5,2.9,0.3,3.9-0.7c0.3-0.3,0.5-0.7,0.8-1c-0.2,0.2-0.4,0.5-0.6,0.7c0-0.1,0.1-0.1,0.2-0.2c-0.2,0.2-0.5,0.4-0.7,0.6
					c0.1,0,0.1-0.1,0.2-0.1c-0.3,0.1-0.6,0.2-0.9,0.4c0.1,0,0.1-0.1,0.2-0.1c1.7-0.5,2.8-2.2,2.5-3.9
					C44.4,142.3,42.9,140.6,41.2,140.8L41.2,140.8z"/>
			</g>
		</g>
		<g>
			<g>
				<path class="st12" d="M53.7,146.4c0.1-0.3,0.1-0.7,0.2-1.1c0.1-1.1-0.7-2.3-1.6-2.8c-1-0.6-2.2-0.5-3.3,0c0,0,0,0-0.1,0
					c-1.5,0.8-1.9,2.5-1.6,4c0.1,0.7,0.5,1.3,1,1.8c1,1,2.6,1.3,3.8,0.7c0.6-0.2,1-0.6,1.4-1.1c0.5-0.7,0.6-1.3,0.8-2.1
					c0.1-0.8-0.2-1.4-0.5-2.1c-0.5-1-2-1.9-3.1-1.8c0,0-0.1,0-0.1,0c-0.3,2.1-0.6,4.3-0.9,6.4c0.3,0.1,0.7,0.1,1.1,0.1
					C52.2,148.5,53.2,147.6,53.7,146.4L53.7,146.4z"/>
			</g>
		</g>
		<g>
			<g>
				<path class="st12" d="M51.7,151c-0.6,0.5-1,0.9-1.3,1.6c-0.4,0.7-0.5,1.5-0.4,2.3c0.1,0.8,0.4,1.5,1,2.1c1.2,1.1,3,1.4,4.3,0.6
					c0.4-0.3,0.8-0.5,1.2-0.9c0.4-0.4,0.6-0.8,0.9-1.2c1-1.5,0.4-3.6-0.9-4.6c-0.6-0.5-1.4-0.8-2.2-0.8
					C53.3,149.9,52.5,150.3,51.7,151L51.7,151z"/>
			</g>
		</g>
		<g>
			<g>
				<path class="st12" d="M49.4,162c0.1-0.6,0.2-1.2,0.2-1.8c-0.3,0.8-0.6,1.6-1,2.3c1.3-1.2,1.8-3,1.1-4.7
					c-0.3-0.8-0.9-1.4-1.6-1.9c-0.8-0.5-2.2-0.7-3.1-0.4c-1.7,0.6-2.9,2-2.9,3.9c0,1,0.5,2.2,1.2,2.8c0.6,0.6,1.3,0.9,2.2,1.1
					c-0.7-0.5-1.3-1-2-1.5c0.2,0.5,0.6,1,1,1.4C45.9,165,48.9,164.1,49.4,162L49.4,162z"/>
			</g>
		</g>
		<g>
			<g>
				<path class="st12" d="M25.1,191.9c2,1.3,4.2,2.5,6.2,3.7c1.9,1.1,3.4,2.6,5.6,2.1c0.9-0.2,1.5-1.3,1.2-2.2
					c-0.7-2.3-3.1-2.9-5.1-3.9c-2.2-1.1-4.4-2-6.8-2.7C24.5,188.4,23.5,191,25.1,191.9L25.1,191.9z"/>
			</g>
		</g>
		<g>
			<g>
				<path class="st12" d="M22,195.4c1,2.1,3.8,3.3,5.7,4.4c2.1,1.1,4.9,3,7.3,2.7c1.1-0.1,1.8-1.4,0.9-2.3c-1.7-1.7-4.5-2.1-6.7-3
					c-2.2-0.8-4.7-2.4-7.1-2.2C22,195.2,21.9,195.3,22,195.4L22,195.4z"/>
			</g>
		</g>
		<g>
			<g>
				<path class="st12" d="M19.4,200.2c1.8,1.7,4.2,2.9,6.3,4c2.2,1.2,4.5,2.8,7,3.3c2.6,0.6,3.7-2.6,1.7-4.1c-2-1.5-4.8-2.3-7.1-3.2
					c-2.3-0.9-4.6-1.9-7.1-2.2C19.2,197.9,18.7,199.5,19.4,200.2L19.4,200.2z"/>
			</g>
		</g>
	</g>
	<g>
		<g>
			<path class="st13" d="M83.7,167.5c1.8-5.5,8.3-18.5-0.1-22.1c-0.5-0.2-1.2,0.3-0.8,0.8c2.2,3.3,3.4,6.1,2.8,10.1
				c-0.6,3.7-2.3,7.2-3.4,10.7C81.9,168,83.4,168.4,83.7,167.5L83.7,167.5z"/>
		</g>
	</g>
	<g>
		<g>
			<path class="st13" d="M91,168.7c6.2-4.1,8-15.2,3.5-21c-0.6-0.8-2-0.4-1.7,0.7c0.9,3.3,2,6.4,1.8,9.8c-0.3,3.9-2,6.9-3.8,10.3
				C90.7,168.6,90.9,168.8,91,168.7L91,168.7z"/>
		</g>
	</g>
	<g>
		<g>
			<path class="st13" d="M23.7,57c-1.2-4,1.7-9.6,4.2-12.3c2.7-2.9,6.2-4.6,9.7-6.5c1-0.5,0.3-2.1-0.8-1.8
				c-4.8,1.2-9.2,4.1-12.1,8.2c-2.2,3.1-4.6,8.9-2.1,12.4c0.1,0.2,0.3,0.3,0.6,0.2C23.3,57.1,23.5,57.1,23.7,57
				C23.7,57,23.7,57,23.7,57L23.7,57z"/>
		</g>
	</g>
	<g>
		<g>
			<path class="st13" d="M19.5,42.7c-0.5-5,4-9.8,7.7-12.5c4.1-3,8.9-4.5,13.6-6.3c1.7-0.6,1-3.1-0.7-2.7
				c-9.2,2.1-24.6,9.9-22.6,21.7C17.7,44.1,19.7,43.8,19.5,42.7L19.5,42.7z"/>
		</g>
	</g>
</g>
<g id="Layer_3">
	<g>
		<path d="M154.9,198.9c2.3,5.1,3.3,10.7,2.8,16.2c-0.5,6.8-3.2,13.1-6.1,19.1c-4.8,10.3-10.3,20.2-16.2,29.8
			c-3.2,5.2-6.9,10.5-12.5,12.9c-5.7,2.4-12.5,1.3-18.5-1c-19.6-7.5-33.7-25.7-45.3-43.8s-22.5-37.5-39.4-50.5
			c5.1,6,10.2,12.1,15.3,18.1c-4.6-4.7-12-6.1-17.5-3.2c7.5,1.7,14.8,4.6,21.5,8.4c-7.6-1-15.4,1.2-21.1,6.1
			c4.1,3.7,9.6-1.4,14.8-2.2c4.8-0.8,9.7,2.6,12.7,6.9c3,4.2,4.5,9.3,6.7,14c9.3,20.5,28.6,34.1,47,46.6c5.7,3.9,11.9,7.9,18.5,7.6
			c9.5-0.4,16-9.3,20.6-17.7c11-20,18.8-41.9,23.3-64.7c0.2-0.9,0.3-2.2-0.6-2.7c-0.8-0.5-1.7,1.3-0.7,1.3"/>
		<g>
			<path d="M154,199.2c1.8,7.8,1.9,15.8-0.7,23.4c-2.6,7.6-6.5,14.8-10.1,22c-3.5,7.1-7.3,14.1-11.7,20.7
				c-5.1,7.8-11.8,11.4-21.2,9.2c-13.6-3.3-25.1-13.7-33.9-24.1c-9.4-11.1-16.7-23.8-24.6-36.1c-8.5-13.2-17.8-25.9-30.4-35.5
				c-3.1-2.3-6.2,2.5-3.9,5.1c5.2,5.9,10.3,12,15.5,18c1.4-1.4,2.9-2.9,4.3-4.3c-5.9-5.5-13.8-7-21.2-3.6c-2.3,1.1-1.6,4.8,0.7,5.4
				c7.4,1.7,14.2,4.4,20.8,8.1c0.5-1.8,1-3.6,1.5-5.4c-8.6-0.9-16.5,1.6-23.2,6.9c-1.6,1.3-0.8,3.7,0.6,4.6
				c7.4,5.3,14.4-4.8,21.8-0.6c8.4,4.8,9.8,17.5,14.2,25.4c8.4,15.1,22.9,26.3,36.8,36.1c7.2,5.1,15,11.5,23.9,13.1
				c7.9,1.4,15.1-2,20.4-7.7c6.3-6.7,10.3-15.5,14.2-23.7c4.2-9.1,8-18.4,11.1-27.9c1.8-5.5,3.4-11,4.8-16.7c1-4,3.4-9.7,1.6-13.7
				c-3.5-7.8-14,0.7-7.1,5.6c4.2,2.9,8.1-3.9,4-6.8c-0.1-0.1-0.3-0.2-0.4-0.3c0.6,1.5,1.2,3,1.8,4.4c-0.1,0.3-0.2,0.5-0.4,0.8
				c-1.3,0.4-2.7,0.7-4,1.1c0.2,0,0.4,0.1,0.6,0.1c-0.8-0.6-1.7-1.3-2.5-1.9c-0.6-0.9-0.7,2-0.9,3c-0.4,2.1-0.9,4.2-1.4,6.3
				c-0.9,4.2-2,8.3-3.2,12.4c-2.3,8.1-5.1,16.1-8.5,23.8c-3.1,7.2-6.5,14.3-10.6,21c-3.3,5.5-8.2,12.1-15.3,12.5
				c-7.5,0.4-14.5-5.7-20.3-9.7c-6-4.1-11.9-8.3-17.5-12.9c-11.3-9.2-20.5-19.9-26.5-33.2c-3-6.7-6.5-14-13.6-17.1
				c-2.9-1.2-5.9-1.5-8.9-0.7c-3.4,0.9-7.9,4.6-11.2,2.2c0.2,1.5,0.4,3.1,0.6,4.6c5.5-4.4,12.1-6,19-5.2c2.9,0.3,3.9-4.1,1.5-5.4
				c-7-3.9-14.4-6.8-22.2-8.7c0.2,1.8,0.5,3.6,0.7,5.4c4.9-2.2,10.2-0.8,13.9,2.8c2.9,2.7,6.8-1.3,4.3-4.3
				c-5.1-6.1-10.2-12.1-15.2-18.3c-1.5,1.5-3.1,3.1-4.6,4.6c25.6,21,36.6,53.7,59.5,77c9.8,10.1,24.5,21.1,39.4,20.4
				c16.2-0.8,24.1-20.2,31-32.1c8.7-15,18.8-34.3,8.4-50.8C155.2,197.5,153.7,198.1,154,199.2L154,199.2z"/>
		</g>
	</g>
</g>
</svg>
