<?xml version="1.0" encoding="utf-8"?>
<!-- Generator: Adobe Illustrator 23.0.2, SVG Export Plug-In . SVG Version: 6.00 Build 0)  -->
<svg version="1.1" xmlns="http://www.w3.org/2000/svg" xmlns:xlink="http://www.w3.org/1999/xlink" x="0px" y="0px"
	 viewBox="0 0 200 600" style="enable-background:new 0 0 200 600;" xml:space="preserve">
<style type="text/css">
	.st0{stroke:#000000;stroke-width:2;stroke-miterlimit:10;}
	.st1{stroke:#000000;stroke-width:0.75;stroke-miterlimit:10;}
	.st2{stroke:#000000;stroke-width:1.861;stroke-miterlimit:10;}
	.st3{fill:#FFFFFF;}
	.st4{fill:none;stroke:#000000;stroke-miterlimit:10;}
	.st5{stroke:#000000;stroke-width:0.6575;stroke-miterlimit:10;}
	.st6{fill:#2DB34A;}
	.st7{fill:#660000;stroke:#660000;stroke-width:1.8405;stroke-miterlimit:10;}
	.st8{fill:none;stroke:#999999;stroke-width:1.8405;stroke-miterlimit:10;}
	.st9{fill:#F9F4C5;stroke:#F2EFC9;stroke-width:1.8405;stroke-miterlimit:10;}
	.st10{fill:#7C6C51;}
	.st11{fill:#605230;}
	.st12{fill:#F9FF00;}
</style>
<g id="Layer_1">
	<g id="figure">
		<g id="body">
			<path class="st0" d="M91.7,103.2c1.8,13.6,3.1,27.2,3.9,40.9c0.5,8.8,0.8,17.9-2.1,26.2C90,180.1,81,188.7,70,187
				c-2.8-0.4-5.6-0.1-8.1,1.1c-6.1,3.1-5,7.1-3.9,10.7c6,21.6,8,44.1,10.1,66.4c5.4-5.2,4.9-6.1,11.6-9.7c0.9-0.5,11-0.2,12.1-0.3
				c5.2-0.3,9.4,25.4,3.6,37.5c-0.5,1.1-0.2,2.6-1.2,3.3c-0.9,0.6-2.1,0.4-3.2,0.2L70.8,292c-3.1-0.7,2.7,7.3,2.7,10.7
				c0,29.8-9.4,94.1-12.9,139.5c-0.5,6.2-1,12.5-1.4,18.7c-3.1,40.2,1.1,78.7-2,119c-10.7,1.7-28.2,7.5-37.1,13.5
				c15.2,1.2,30.4,2.5,45.6,3.7c1.7,0.1,3.6,0.2,4.7-1.1c0.8-0.9,0.9-2.3,0.9-3.5c0.8-26.9,1.6-53.8,2.3-80.8
				c0.3-11.7,0.7-23.7-2.2-35.1c-2.6-10.3-7.7-20.4-6.6-31c0.8-7,4.3-13.4,7.3-19.7c9.3-19.4,15.1-40.5,17-62
				c0.8-9.3,3.7-21.6,13.1-21.5c3.8,0,7.1,2.3,9,5.5c3.7,6.2,2.6,13.2,1.8,19.9c-3.1,25.5-2.4,51.4,2.1,76.7c1,5.7,2.2,11.5,1,17.1
				c-1.2,5.7-4.8,10.5-6.4,16.1c-1.3,4.8-1,9.8-0.8,14.7c1.8,31.7,3.6,63.3,5.4,95c0.1,2.3,0.4,4.9,2,6.6c1.9,2,4.9,2.1,7.7,2.1
				c13.9-0.1,27.8-1,41.6-2.6c-12.5-4.8-24.9-9.7-37.4-14.5c-1.7-0.6-3.4-1.4-4.4-2.9c-1.1-1.7-1-3.9-0.8-6
				c4.2-42.9,6.3-85.9,6.2-129c-0.1-40.2-2-80.5,2.5-120.5c0.7-6.1-2-14.4,1.5-19.4c-5.5-5.3-20.4,0.5-24.4-6
				c-1.1-1.7-8.3-18.3-5.5-34.8c0.7-4.2,9-8.5,12.6-6.3c6,3.5,7.2,3.8,12,7.8c-0.6-15.7,2.9-30.3,2.3-45.9
				c-0.3-7.2,12.2-14,9.6-20.7c-2.6-6.7-14.4-8-21.4-9.2c-3.2-0.6-11.4-7.6-14-9.5c0,0,0-5.6,0.8-10.3c2.5-13.5,0.5-30.6,0-44.3
				c-0.3-9.5,4.1-38.8-5.4-39.4"/>
		</g>
		<ellipse id="head" class="st1" cx="96.7" cy="53.4" rx="50.2" ry="53.4"/>
		<g id="left_arm">
			<path class="st2" d="M59.4,189.2c-5.8-3.5-10.7,5.6-8.1,17.6c4.8,21.6,5.4,77-3.8,78.7c-14.6,2.6-19-81.3-18.2-112
				c0.3-11.6,1.3-24,1.5-37.5c0-8.2-4.6-26.9,1.5-32.6c1.7-1.6,3.9-2.5,5.9-3.6c0.5-0.2,1-0.6,1.2-1c0.5-0.9,0.1-2.3-0.7-3.1
				s-1.8-1-2.7-1.2c-1.9,0.4-3.5,1.8-4.7,3.6c-0.3,0.6-0.7,1.2-1.1,1.6c-3.4,2.8-11.6-21.8-13.3-20C15.3,81.5,20,90.4,20.2,93
				c0.4,3.5-2.8,5.9-5.5,4.3c-1-0.6-7.2-7.6-8.2-8c-3.9-0.3,6.8,14.5,8.5,16.2c-2.6,10.8-7.6-4.2-11.7-5.5
				c-0.6,4.5,1.6,8.8,4.5,12.1c2.8,3.3,6.2,5.9,8.6,9.4c5.3,8,4.9,18.9,4.7,28.8c-1.1,36.8,3.2,73.5,7.4,110.1
				c1.2,9.7,2.5,20.2,7.8,28c3.2,4.8,8.3,8.4,13.3,7.7c4.8-0.7,8.7-5.1,10.7-10.1c2.1-5.1,2.5-10.7,2.9-16.4l5-59.7
				c0.3-4,0.2-8.2-0.6-12.3C66.1,190.6,64.6,191.8,59.4,189.2"/>
		</g>
		<g id="eyes">
			
				<ellipse id="eye_1_" transform="matrix(0.2671 -0.9637 0.9637 0.2671 4.2331 121.7103)" class="st3" cx="82.1" cy="58.1" rx="36.8" ry="13.8"/>
			
				<ellipse id="eye" transform="matrix(0.9666 -0.2563 0.2563 0.9666 -9.1305 32.9383)" class="st3" cx="121.8" cy="51.5" rx="13.8" ry="36.8"/>
			<line id="pupil_1_" class="st4" x1="80.1" y1="41.5" x2="80.1" y2="73.5"/>
			<line id="pupil" class="st4" x1="121.8" y1="37.4" x2="121.8" y2="69.4"/>
		</g>
		<ellipse class="st5" cx="77.3" cy="86.9" rx="14.6" ry="10.1"/>
		<ellipse class="st1" cx="127.8" cy="82" rx="10.3" ry="5.2"/>
	</g>
</g>
<g id="drum">
	<g>
		<g>
			<path class="st6" d="M84.5,176.1c-17.8,16.8-13.8,45.2-7.9,66.3c3.7,13.5,7.8,26.8,10.4,40.6c2.7,14.5,4.2,29.2,4.7,43.9
				c0.1,4.4,7,4.4,6.9,0c-0.7-26.7-5.4-52.6-12.8-78.2c-6.9-23.6-12.3-48.1,2.3-70C89.4,176.6,86.3,174.4,84.5,176.1L84.5,176.1z"/>
		</g>
	</g>
	<g>
		<g>
			<path class="st6" d="M107.1,178.2c4.1-1.1,8.1,12.5,9.2,15.1c2.5,6,4.6,12.1,6.1,18.4c3.3,13.9,1.8,28-1.6,41.7
				c-3.2,13.1-7.9,25.8-12.2,38.6c-4.7,13.9-9.2,27.8-13.8,41.7c-1.5,4.6,5.7,6.5,7.2,2c5.2-15.8,10.3-31.7,15.3-47.5
				c4.8-15.2,10.1-30.5,12.1-46.4c2-15.2,0.3-29.7-5.2-44c-2.1-5.5-8.8-28.8-17.8-20.7C106,177.6,106.5,178.4,107.1,178.2
				L107.1,178.2z"/>
		</g>
	</g>
	<path class="st7" d="M171.8,353c0,20.8-32.1,37.6-71.8,37.6S28.2,373.7,28.2,353c0-9.6-3.5-42.7-3.5-42.7s54.1,5.1,75.3,5.1
		c17.2,0,73.3-5.1,73.3-5.1S171.8,341.2,171.8,353z"/>
	<g>
		<line class="st8" x1="54.8" y1="321.2" x2="53.6" y2="381.7"/>
		<line class="st8" x1="99" y1="323.8" x2="100" y2="390.6"/>
		<line class="st8" x1="131.7" y1="320.6" x2="131.7" y2="386.7"/>
		<line class="st8" x1="157.3" y1="314.2" x2="157.3" y2="377.4"/>
		<line class="st8" x1="72.9" y1="323" x2="72.5" y2="387.7"/>
		<line class="st8" x1="35.7" y1="317.4" x2="35.7" y2="368.3"/>
	</g>
	<ellipse class="st9" cx="99" cy="310.3" rx="74.3" ry="13.5"/>
	<g>
		<path class="st10" d="M32.9,66.6c-3.1,6.4-3.2,13.7-4.2,20.7c-1.9,13.8-7.3,26.7-13.6,39.2c-1,1.9-3.8,0.8-3.3-1.3l14.2-53.1
			c0.6-2.4,1.3-4.9,1-7.3c-0.5-4.6-4.2-9.2-2.8-13.4c1.3-3.7,5.7-4.9,9.1-3c3.6,2,4.8,6.7,3.9,10.6c-0.8,3.6-3.1,6.7-5.7,9.3"/>
		<g>
			<path class="st11" d="M32.1,66.1c-3.8,7-3.8,15-5.1,22.6c-1.4,8.2-4.1,16.2-7.3,23.9c-1.6,3.8-3.4,7.6-5.3,11.4
				c-0.7,1.4-0.8,2.4-0.5,0.7c0.5-2.5,1.3-5,2-7.4c3.9-14.5,7.8-29,11.6-43.6c1.1-4.2,1.9-8.1,0.5-12.4c-0.6-1.9-2-4-2.1-6
				C25.8,53,26.4,51,28.3,50c2.4-1.1,4.9-0.1,6.3,2.2c3.4,5.4-1.1,11-4.3,15c-1.3,1.6,0.7,3.7,2.3,2.3c5.3-4.7,9.1-13.1,4.6-19.7
				c-3.2-4.7-10.8-5.7-14.1-0.4c-1.7,2.8-1,6.1,0,9c1.7,4.9,2.4,8.2,1.1,13.4c-0.8,2.9-1.5,5.8-2.3,8.6c-2.9,10.9-5.8,21.8-8.8,32.7
				c-0.7,2.7-6.7,16.9,0.8,16c3.7-0.4,5.4-7.3,6.7-10.1c2.3-5.1,4.4-10.3,6.1-15.6c3.8-12,3-24.9,7.1-36.8
				C34.2,65.8,32.6,65.2,32.1,66.1L32.1,66.1z"/>
		</g>
	</g>
	<polygon class="st12" points="73.8,341.6 58.6,322 36.5,333.3 45.5,317 8.5,316.6 38.3,309.9 0.5,298.1 39.7,303.5 15.6,284.7 
		49.2,300.2 48,281.6 63.2,301.3 85.4,290 76.3,306.3 113.3,306.6 83.6,313.3 121.3,325.1 82.1,319.7 106.2,338.5 72.6,323 	"/>
	<g>
		<path class="st10" d="M41.4,302.3c6.6,2.5,14,1.8,21,2.1c13.9,0.6,27.3,4.7,40.3,9.7c2,0.8,1.2,3.7-0.9,3.4l-54.2-9
			c-2.4-0.4-5-0.8-7.4-0.3c-4.5,1-8.8,5.1-13,4.1c-3.8-0.9-5.4-5.2-3.8-8.8c1.7-3.8,6.2-5.4,10.2-4.9c3.6,0.5,6.9,2.5,9.8,4.8"/>
		<g>
			<path class="st11" d="M40.9,303.1c6.9,2.9,14.2,2.4,21.5,2.8c8.9,0.5,17.6,2.4,26.1,5.1c4.1,1.3,8,2.7,12,4.2
				c1.4,0.5,2.3,0.5,0.6,0.4c-2.5-0.3-5.1-0.8-7.6-1.3c-14.9-2.5-29.8-5-44.8-7.4c-4.9-0.8-9-0.9-13.6,1.3c-1.8,0.9-4.8,3-6.9,2.5
				c-1.7-0.4-3.6-2.6-3.8-4.2c-0.2-1.9,0.9-3.4,2.3-4.6c5-4.1,11.2,0.2,15.5,2.9c1.6,1,3.3-1.3,2-2.6c-5.1-4.8-13.5-7.8-19.7-3.2
				c-4.7,3.5-5.4,11.5,0.3,14.3c2.7,1.3,5.5,0.8,8.1-0.3c5.1-2,8.4-3.7,14.1-2.9c2.8,0.4,5.7,0.9,8.5,1.4
				c11.1,1.9,22.2,3.7,33.3,5.6c3,0.5,17.2,5.1,16.5-1.8c-0.3-3.6-5.8-4.4-8.4-5.3c-6-2.1-12.1-4-18.3-5.3
				c-12.4-2.6-25.1-0.6-37.3-3.5C40.7,301.1,39.9,302.7,40.9,303.1L40.9,303.1z"/>
		</g>
	</g>
</g>
<g id="Layer_3">
	<g>
		<g>
			<path d="M132.9,200.7c7.3,2.1,14.3,5.7,19.6,11.3c5.5,5.8,9.9,12.8,14.4,19.3c4.4,6.4,8.6,13,12.4,19.8c4.2,7.7,5.7,15,0,22.4
				c-8.6,11.1-23.6,16.4-36.8,19.3c-14.1,3.1-28.4,3.5-42.7,4.3c-16.7,1-33.3,2.8-48.7,9.6c-3.5,1.5-0.9,6.7,2.5,5.9
				c7.7-1.7,15.5-3.2,23.2-4.8c-0.5-2-1.1-3.9-1.6-5.9c-7.6,2.5-12.9,8.6-13.4,16.7c-0.2,2.5,3.3,3.9,5,2.1
				c5.1-5.6,10.8-10.3,17.2-14.3c-1.3-1.3-2.7-2.7-4-4c-5,7.1-6.7,15.2-5.2,23.7c0.3,2.1,2.8,2.5,4.3,1.8c7-3.2,4-10.8,6.9-16.3
				c5-9.4,20.8-3.7,28.9-3.3c19.2,0.9,38-7.3,54.9-15.6c7.5-3.7,16-7.2,21.3-13.9c5.3-6.7,5.2-15.3,2.2-23
				c-3.3-8.6-8.9-16.3-14.3-23.6c-5.7-7.7-11.7-15.1-18.2-22.1c-3.7-4-7.6-7.9-11.6-11.7c-3-2.9-7.1-7.9-11.6-8.3
				c-8.5-0.7-6.2,12.6,1.4,8.9c4.6-2.2,0.6-9-4-6.8c-0.1,0.1-0.3,0.1-0.4,0.2c1.6,0.2,3.2,0.4,4.8,0.6c0.2,0.2,0.4,0.5,0.5,0.7
				c-0.1,1.1-0.3,2.1-0.4,3.2c0.1-0.2,0.2-0.3,0.4-0.5c-1.2,0.7-2.4,1.4-3.6,2.1c0.5,0,0.9,0.1,1.4,0.1c-1-0.4-2-0.8-3-1.2
				c11.9,9.2,22.9,20.4,32.3,32.1c4.8,6,9.3,12.2,13.4,18.7c4,6.4,9.6,15.5,5.9,23.2c-2.9,6-10.1,9-15.7,11.8
				c-7.3,3.7-14.7,7.4-22.4,10.4c-7.1,2.8-14.4,5.2-21.9,6.4c-8.6,1.4-16.6,0.6-25.2,0.3c-6.5-0.2-13.8,0.7-18.4,6
				c-1.9,2.2-2.8,4.7-3.2,7.6c-0.5,2.9,0.1,7.4-3.1,8.8c1.4,0.6,2.9,1.2,4.3,1.8c-1.2-6.9,0.6-13.4,4.6-19.2c1.7-2.4-1.6-5.5-4-4
				c-6.8,4.2-13,9.3-18.4,15.2c1.7,0.7,3.3,1.4,5,2.1c0.4-5.3,4.2-9.3,9.2-10.9c3.8-1.2,2.2-6.6-1.6-5.9c-7.8,1.5-15.5,3-23.3,4.4
				c0.6,2.1,1.2,4.2,1.7,6.3c31.8-12.6,67-5.6,99.3-15.6c12.7-4,28.5-11.6,34.2-24.5c2.9-6.5,1.8-13.2-1-19.5
				c-3.6-8.3-8.7-16.2-13.4-23.9c-8.9-14.4-20.4-31.4-39.4-30.4C132.1,198.8,131.8,200.3,132.9,200.7L132.9,200.7z"/>
		</g>
	</g>
</g>
</svg>
