<?xml version="1.0" encoding="utf-8"?>
<!-- Generator: Adobe Illustrator 23.0.2, SVG Export Plug-In . SVG Version: 6.00 Build 0)  -->
<svg version="1.1" id="Layer_1" xmlns="http://www.w3.org/2000/svg" xmlns:xlink="http://www.w3.org/1999/xlink" x="0px" y="0px"
	 viewBox="0 0 200 600" style="enable-background:new 0 0 200 600;" xml:space="preserve">
<style type="text/css">
	.st0{stroke:#000000;stroke-width:2;stroke-miterlimit:10;}
	.st1{stroke:#000000;stroke-width:0.75;stroke-miterlimit:10;}
	.st2{fill:#FFFFFF;}
	.st3{fill:none;stroke:#000000;stroke-miterlimit:10;}
</style>
<g id="figure">
	<g id="body">
		<path class="st0" d="M91.7,103.2c1.8,13.6,3.1,27.2,3.9,40.9c0.5,8.8,0.8,17.9-2.1,26.2C90,180.1,81,188.7,70,187
			c-2.8-0.4-5.6-0.1-8.1,1.1c-6.1,3.1-5,7.1-3.9,10.7c6,21.6,8,44.1,10.1,66.4c5.4-5.2,4.9-6.1,11.6-9.7c0.9-0.5,11-0.2,12.1-0.3
			c5.2-0.3,9.4,25.4,3.6,37.5c-0.5,1.1-0.2,2.6-1.2,3.3c-0.9,0.6-2.1,0.4-3.2,0.2L70.8,292c-3.1-0.7,2.7,7.3,2.7,10.7
			c0,29.8-9.4,94.1-12.9,139.5c-0.5,6.2-1,12.5-1.4,18.7c-3.1,40.2,1.1,78.7-2,119c-10.7,1.7-28.2,7.5-37.1,13.5
			c15.2,1.2,30.4,2.5,45.6,3.7c1.7,0.1,3.6,0.2,4.7-1.1c0.8-0.9,0.9-2.3,0.9-3.5c0.8-26.9,1.6-53.8,2.3-80.8
			c0.3-11.7,0.7-23.7-2.2-35.1c-2.6-10.3-7.7-20.4-6.6-31c0.8-7,4.3-13.4,7.3-19.7c9.3-19.4,15.1-40.5,17-62
			c0.8-9.3,3.7-21.6,13.1-21.5c3.8,0,7.1,2.3,9,5.5c3.7,6.2,2.6,13.2,1.8,19.9c-3.1,25.5-2.4,51.4,2.1,76.7c1,5.7,2.2,11.5,1,17.1
			c-1.2,5.7-4.8,10.5-6.4,16.1c-1.3,4.8-1,9.8-0.8,14.7c1.8,31.7,3.6,63.3,5.4,95c0.1,2.3,0.4,4.9,2,6.6c1.9,2,4.9,2.1,7.7,2.1
			c13.9-0.1,27.8-1,41.6-2.6c-12.5-4.8-24.9-9.7-37.4-14.5c-1.7-0.6-3.4-1.4-4.4-2.9c-1.1-1.7-1-3.9-0.8-6
			c4.2-42.9,6.3-85.9,6.2-129c-0.1-40.2-2-80.5,2.5-120.5c0.7-6.1-2-14.4,1.5-19.4c-5.5-5.3-20.4,0.5-24.4-6
			c-1.1-1.7-8.3-18.3-5.5-34.8c0.7-4.2,9-8.5,12.6-6.3c6,3.5,7.2,3.8,12,7.8c-0.6-15.7,2.9-30.3,2.3-45.9c-0.3-7.2,12.2-14,9.6-20.7
			c-2.6-6.7-14.4-8-21.4-9.2c-3.2-0.6-11.4-7.6-14-9.5c0,0,0-5.6,0.8-10.3c2.5-13.5,0.5-30.6,0-44.3c-0.3-9.5,4.1-38.8-5.4-39.4"/>
	</g>
	<ellipse id="head" class="st1" cx="96.7" cy="53.4" rx="50.2" ry="53.4"/>
	<g id="left_arm">
		<path class="st0" d="M63.6,190.4c-6.4-3.9-12.8,4.8-10.8,17c3.7,21.9-0.3,77.2-11.1,78.2c-17,1.5-14.9-82.5-11.4-113
			c1.5-12.4,3.7-24.8,4.9-37.3c0.7-8.2-3-27.2,4.5-32.4c2.1-1.5,4.7-2.2,7.1-3.2c0.6-0.2,1.2-0.5,1.5-0.9c0.7-0.9,0.3-2.3-0.5-3.1
			c-0.8-0.8-2-1.1-3-1.4c-2.2,0.3-4.2,1.5-5.7,3.2c-0.4,0.6-0.9,1.1-1.4,1.5c-4.2,2.5-11.5-22.6-13.6-20.9
			C22,79.8,26.7,89,26.7,91.6c0.2,3.5-3.7,5.7-6.7,3.9c-1.1-0.7-7.7-8.1-8.8-8.6c-4.5-0.6,6.6,15,8.4,16.8c-3.9,10.6-8.4-4.8-13-6.3
			c-1.1,4.4,1.1,8.9,4.1,12.4s6.6,6.3,9.1,10c5.4,8.4,4,19.2,2.9,29.1c-4.4,36.6-2.6,73.5-0.9,110.3c0.5,9.8,1.1,20.3,6.6,28.5
			c3.3,5,8.8,9,14.7,8.7c5.6-0.3,10.4-4.4,13.2-9.3s3.8-10.5,4.7-16.1l10.8-59.2c0.7-4,0.9-8.2,0.4-12.3
			C71.2,192.3,69.4,193.4,63.6,190.4"/>
	</g>
	<g id="right_arm">
		<path class="st0" d="M131.9,190.4c6.1-4.2,13,4.1,11.7,16.4c-2.5,22.1,4.4,77.1,15.2,77.5c17.1,0.6,10.5-83.1,5.4-113.4
			c-2.4-14.1-5.8-28.1-7.6-42.4c-0.7-5.6,0.7-14.3-1.4-19.4c-1.5-3.6-15.4-8.6-14.1-12.8c1.8-1.6,9.8,3.4,12.1,3.4
			c3.9-0.1,7.8-21.6,9.9-22.3c8.9-3.2-3.9,7.9,4.1,14.1c2.3,1.7,10.2-10.3,11.7-7c3.8-0.5-2.6,8.8-5.8,13.5c-1.1,1.6,0.6,3.8,2.5,3
			s9.2-4,11.4-4.8c5.2,1.7-9.9,8.6-12.7,12.1s-1.3,4.5-2.1,9.5c-1.8,9.8-3,19.4-1.4,29.2c6.3,36.3,6.5,73.2,6.7,110.1
			c0,9.8,0,20.4-5.1,28.8c-3,5.2-8.3,9.5-14.2,9.4c-5.6,0-10.6-3.8-13.7-8.6c-3-4.8-4.3-10.3-5.6-15.8l-13.8-58.8
			c-0.9-4-1.4-8.1-1.1-12.2C124.5,192.6,126.3,193.7,131.9,190.4"/>
	</g>
	<g id="eyes">
		
			<ellipse id="eye_1_" transform="matrix(0.3791 -0.9254 0.9254 0.3791 -3.9838 110.2075)" class="st2" cx="80.1" cy="58.1" rx="36.8" ry="13.8"/>
		
			<ellipse id="eye" transform="matrix(0.9666 -0.2563 0.2563 0.9666 -9.1305 32.9383)" class="st2" cx="121.8" cy="51.5" rx="13.8" ry="36.8"/>
		<line id="pupil_1_" class="st3" x1="80.1" y1="41.5" x2="80.1" y2="73.5"/>
		<line id="pupil" class="st3" x1="121.8" y1="37.4" x2="121.8" y2="69.4"/>
	</g>
</g>
</svg>
