<?xml version="1.0" encoding="utf-8"?>
<!-- Generator: Adobe Illustrator 23.0.2, SVG Export Plug-In . SVG Version: 6.00 Build 0)  -->
<svg version="1.1" xmlns="http://www.w3.org/2000/svg" xmlns:xlink="http://www.w3.org/1999/xlink" x="0px" y="0px"
	 viewBox="0 0 200 600" style="enable-background:new 0 0 200 600;" xml:space="preserve">
<style type="text/css">
	.st0{stroke:#000000;stroke-width:1.9998;stroke-miterlimit:10;}
	.st1{stroke:#000000;stroke-width:2;stroke-miterlimit:10;}
	.st2{stroke:#000000;stroke-width:0.75;stroke-miterlimit:10;}
	.st3{fill:#FFFFFF;}
	.st4{fill:none;stroke:#000000;stroke-miterlimit:10;}
	.st5{fill:#494846;}
</style>
<g id="Layer_1">
	<g id="figure">
		<g id="body">
			<path class="st0" d="M61.9,462.7c0.8,38.3,8.7,76.2,9.6,118.6c-10.5,2.7-27.3,10.2-35.6,17c15.2-0.3,30.5-0.5,45.7-0.8
				c1.7-0.1,3.6-0.2,4.6-1.6c0.7-1,0.7-2.4,0.6-3.6c-1.8-26.8-3.6-53.7-5.6-80.6c-0.8-11.7-1.6-23.7-5.6-34.7
				c-3.6-10-9.6-19.6-9.6-30.2c0-0.1,0-0.2,0-0.3c-1.5-0.8-3-1.9-4.5-2.6C61.5,450.3,61.7,456.6,61.9,462.7z"/>
			<path class="st1" d="M129,580.6c-1.7-0.6-3.4-1.4-4.4-2.9c-1.1-1.7-1-3.9-0.8-6c4.2-42.9,6.3-85.9,6.2-129
				c-0.1-40.2-2-80.5,2.5-120.5c0.7-6.1-2-14.4,1.5-19.4c-5.5-5.3-20.4,0.5-24.4-6c-1.1-1.7-8.3-18.3-5.5-34.8
				c0.7-4.2,9-8.5,12.6-6.3c6,3.5,7.2,3.8,12,7.8c-0.6-15.7,2.9-30.3,2.3-45.9c-0.3-7.2,12.2-14,9.6-20.7c-2.6-6.7-14.4-8-21.4-9.2
				c-3.2-0.6-11.4-7.6-14-9.5c0,0-1.9-6.3,0.8-10.3c14.7-21.8-24.6-67.8-34.1-68.4l-1.1,11.1c1.8,13.6,24.8,21.4,25.6,35.1
				c0.5,8.8,0.8,17.9-2.1,26.2c-3.5,9.8-12.5,18.4-23.5,16.7c-2.8-0.4-5.6-0.1-8.1,1.1c-6.1,3.1-5,7.1-3.9,10.7
				c6,21.6,8,44.1,10.1,66.4c5.4-5.2,4.9-6.1,11.6-9.7c0.9-0.5,11-0.2,12.1-0.3c5.2-0.3,9.4,25.4,3.6,37.5c-0.5,1.1-0.2,2.6-1.2,3.3
				c-0.9,0.6-2.1,0.4-3.2,0.2l-20.2-4.2c-3.1-0.7,2.7,7.3,2.7,10.7c0,29.8-9.4,94.1-12.9,139.5c0,0,0,0.1,0,0.1
				c1.4,0.8,2.8,2.1,4.2,3c0.9-6.9,4.3-13.2,7.3-19.4c9.3-19.4,15.1-40.5,17-62c0.8-9.3,3.7-21.6,13.1-21.5c3.8,0,7.1,2.3,9,5.5
				c3.7,6.2,2.6,13.2,1.8,19.9c-3.1,25.5-2.4,51.4,2.1,76.7c1,5.7,2.2,11.5,1,17.1c-1.2,5.7-4.8,10.5-6.4,16.1
				c-1.3,4.8-1,9.8-0.8,14.7c1.8,31.7,3.6,63.3,5.4,95c0.1,2.3,0.4,4.9,2,6.6c1.9,2,4.9,2.1,7.7,2.1c13.9-0.1,27.8-1,41.6-2.6
				C153.9,590.3,141.5,585.4,129,580.6z"/>
		</g>
		<ellipse id="head" class="st2" cx="66.7" cy="75.2" rx="50.2" ry="53.4"/>
		<g id="right_arm">
			<path class="st1" d="M133,191.1c6.1-4.2,13,4.1,11.7,16.4c-2.5,22.1,4.4,77.1,15.2,77.5c17.1,0.6,10.5-83.1,5.4-113.4
				c-2.4-14.1-5.8-28.1-7.6-42.4c-0.7-5.6,0.7-14.3-1.4-19.4c-1.5-3.6-15.4-8.6-14.1-12.8c1.8-1.6,9.8,3.4,12.1,3.4
				c3.9-0.1,7.8-21.6,9.9-22.3c8.9-3.2-3.9,7.9,4.1,14.1c2.3,1.7,10.2-10.3,11.7-7c3.8-0.5-2.6,8.8-5.8,13.5c-1.1,1.6,0.6,3.8,2.5,3
				s9.2-4,11.4-4.8c5.2,1.7-9.9,8.6-12.7,12.1s-1.3,4.5-2.1,9.5c-1.8,9.8-3,19.4-1.4,29.2c6.3,36.3,6.5,73.2,6.7,110.1
				c0,9.8,0,20.4-5.1,28.8c-3,5.2-8.3,9.5-14.2,9.4c-5.6,0-10.6-3.8-13.7-8.6c-3-4.8-4.3-10.3-5.6-15.8l-13.8-58.8
				c-0.9-4-1.4-8.1-1.1-12.2C125.6,193.3,127.4,194.4,133,191.1"/>
		</g>
		<g id="eyes">
			
				<ellipse id="eye_1_" transform="matrix(0.9809 -0.1943 0.1943 0.9809 -14.8838 12.6118)" class="st3" cx="56.8" cy="82.2" rx="13.8" ry="36.8"/>
			<path id="eye" class="st3" d="M65.8,31.9c6.3-4.2,20.6,6,31.9,22.9c14.4,20.5,19.5,38.9,9,38.3c-7.6-0.4-20.6-6-31.9-22.9
				S59.4,36.1,65.8,31.9z"/>
			<line id="pupil_1_" class="st4" x1="85.1" y1="50.8" x2="95.1" y2="81.2"/>
			<line id="pupil" class="st4" x1="56.1" y1="75.2" x2="63.1" y2="106.4"/>
		</g>
	</g>
	<g>
		<path d="M57.6,196c-20.8,74.8-19.8,200.1-27.3,260.6c-1.2,10-4.4,15.6-4.6,21.1c-0.3,8.4,5.2,17.8,10.3,18.4
			c1.1-5.9-7.3-12-4.1-17.3c2.6-4.3,5.6,13.6,11.1,15c2.4,0.6,3.4-1.2,2.2-3.3c-1.6-3-9.1-14.3-6.7-16.1c5-3.9,11.5,11.4,12.3,10.6
			c3.7-4.2-11.6-20.7-9.5-22.8c2.9-2.8,7.6-3.7,8.9-6.1c0.5-0.9,2.7-1.6,2.8-2.8c0.1-3.2-4.9-3-6.7-1.7c-1.7,1.4-6.2,1.2-8.1,0.5
			c-2.5-0.9-1.2-11-1.2-15.3c-0.3-42.4,7.1-85.7,12.1-127.3c4.1-34,4.9-67,15.6-96.5"/>
		<g>
			<path d="M57,195.9c-12.9,40.3-15.7,84-18.7,125.9c-2.9,40.5-4.2,81.1-8.1,121.6c-0.5,4.9-0.9,9.8-1.6,14.6
				c-0.9,5.5-2.9,10.7-3.9,16.1c-1.5,7.9,1.7,21.5,11,23.5c1.1,0.2,1.9-0.5,2-1.5c0.2-2.3-0.4-4.3-1.3-6.4c-0.6-1.3-1.4-2.6-2-3.9
				c-0.5-0.9-1-1.8-1.2-2.9c-0.3-1.2,0.4-2.8-0.2-3.3c0.1,0.1,1.5,3.8,1.9,4.9c0.9,2.1,1.8,4.3,3,6.3c1.5,2.4,4,5.6,7.2,4.4
				c4.2-1.5,1.3-6-0.2-8.5c-1.3-2.2-2.6-4.3-3.6-6.6c-0.3-0.7-1.6-2.6-1.5-3.6c0.2-1.9,1.4-1.3,2.7-0.2c1.8,1.4,3.1,3.6,4.3,5.5
				c0.7,1.1,1.5,3.2,2.6,3.9c2.1,1.3,3.3-0.6,3.4-2.6c0.2-3.6-2.6-7.5-4.4-10.4c-1.2-2-2.5-3.9-3.7-5.8c-0.5-0.8-1.2-1.6-1.4-2.4
				c-0.6-2-0.6-1.8,1.5-3.1c2.8-1.7,9.4-4.4,9.7-8.3c0.3-3.8-4.6-4.6-7.3-3.8c-2.3,0.7-5.4,3-7.8,1.4c-2-1.2-1.2-5.9-1.1-8.1
				c0.7-17.5,0.9-34.9,2.5-52.4c1.8-18.7,4.3-37.4,6.7-56c2.7-20.6,4.8-41.3,7-62c2.1-20,4.9-39.9,11.7-58.9c0.7-2-2.4-2.8-3.1-0.9
				c-12.1,34-12.4,71-16.9,106.4c-4.8,38.5-10.9,77-10.9,115.9c0,5-1.5,11.5,0.2,16.3c1.3,3.5,6.2,3.5,9.3,2.7
				c1.7-0.5,5.9-3.3,4.8,0.5c-0.7,2.5-5.7,4-7.6,5.3c-2.9,2-2.9,3.5-1.4,6.6c2.1,4.2,5.2,7.9,7.4,12.2c0.5,1,1.1,2.1,1.4,3.2
				c0.1,0.2,0.2,1.3,0.3,1.6c0,0.1,0,0.2,0,0.3c-0.2,0.8,0.3,0.8,1.5,0.1c0.2-0.8-2.7-4.3-3.2-5c-1.8-2.6-4.5-6.5-8.1-6.3
				c-3.3,0.2-3.9,2.9-3.1,5.6c0.7,2.6,2.1,5.1,3.4,7.4c0.4,0.8,4.6,6.6,2.1,6.6c-2.7-0.1-5.6-11-7-13.1c-1.7-2.6-4.2-2.8-5.5,0.3
				c-2.5,6,4.9,11.1,4.4,17.1c0.7-0.5,1.3-1,2-1.5c-5.6-1.2-8.4-9.1-9-14.1c-0.5-5.1,1.4-9.8,2.6-14.6c2.1-8,2.7-16.5,3.4-24.7
				c1.6-17.6,2.6-35.3,3.5-53c2.3-42.2,4.5-84.6,9.7-126.6c2.7-21.9,6.4-43.9,11.4-65.4C58.3,195.5,57.2,195.2,57,195.9L57,195.9z"
				/>
		</g>
	</g>
</g>
<g id="Layer_2">
	<g>
		<path class="st5" d="M141,81.8c2.6,1.8,4.9,4,7.2,6.3c12.7,12.5,25.4,25,38.1,37.6c2.4-4,5.3-7.7,8.5-11.1
			c-14.4-13.3-28.8-26.6-43.2-39.9c4.7-1,7.5-6.7,6.2-11.4c-1.3-4.7-5.9-8-10.7-8.6c-4.8-0.7-9.7,0.9-13.9,3.4
			c-3.9,2.4-7.5,5.8-8.5,10.3c-1.3,5.9,2.8,12.4,8.6,14.1s12.5-1.2,15.7-6.4c2-3.4,2.6-7.7,1.2-11.4s-5-6.6-9-6.8
			c-4.7-0.2-9.3,3.6-9.8,8.3s3,9.5,7.7,10.3c4.2,0.8,8.5-1.4,11.8-4.1c2.4-1.9,4.8-5.2,3.3-7.9c-0.8-1.5-2.6-2.2-4.3-2.7
			c-4.4-1.3-9.3-1.9-13.6-0.2c-4.3,1.7-7.6,6.3-6.7,10.9c1,4.5,5.7,7.3,10.3,7.9c4.4,0.5,9.3-0.9,11.6-4.6c2.2-3.7,1-8.8-2.2-11.6
			c-3.3-2.8-8.1-3.2-12.1-1.6c-2.7,1.1-5.3,3.4-5.6,6.3c-0.4,3.3,2.2,6.4,5.4,7.5s6.7,0.3,9.6-1.2c5.1-2.5,9.4-8.6,6.9-13.7
			c-1.9-4-7.4-5.3-11.5-3.7c-4.1,1.6-7.1,5.3-9,9.3c-0.7,1.5-1.4,3.2-1.2,4.9c0.2,2.1,1.7,3.9,3.4,5.2c6,4.3,15.6,1.9,18.8-4.8
			c1.7-3.6,1.5-8-0.6-11.4c-2.1-3.4-6.2-5.4-10.1-5c-2.3,0.3-4.5,1.4-6.5,2.6c-4.2,2.6-8.2,6.5-8.2,11.4c0,4.1,3.2,7.8,7,9.1
			c3.9,1.4,8.2,0.6,11.9-1.2c3.2-1.7,6-4.4,7.1-7.8c1-3.5-0.1-7.7-3.1-9.6c-3.9-2.4-8.9-0.5-13,1.5c-1.5,0.7-3.3,1.7-3.5,3.4
			c-0.2,1.2,0.5,2.3,1.2,3.3c1.6,2.2,3.4,4.2,5.9,5.3c2.4,1.1,5.5,1.1,7.6-0.5c2.1-1.6,2.7-5.1,0.9-7c-1.8-1.9-5.8-1.1-6.2,1.5
			c0.9,2.5,5.3,1.5,5.6-1.1s-2.8-4.7-5.4-4.3c-2.6,0.5-4.6,2.7-5.7,5.1c2.3,1.5,5.6-2,3.9-4.2c-1.1,1.4-0.8,3.7,0.5,4.9
			c2.6-1,3.9-4.3,2.7-6.8c-1.5,1.4-2.9,3.1-3.2,5.1c-0.3,2,0.8,4.3,2.8,4.9c2,0.5,4.3-1.6,3.5-3.5c-0.5-0.8-1-1.5-1.5-2.3"/>
		<g>
			<path d="M140.6,82.5c8.1,6.2,15,14.6,22.2,21.8c7.5,7.5,15,14.9,22.5,22.4c0.7,0.7,1.8,0.5,2.4-0.3c2.4-3.9,5.2-7.4,8.4-10.7
				c0.6-0.6,0.7-1.8,0-2.4c-14.3-13.4-28.7-26.7-43.1-40c-0.3,1-0.5,2.1-0.8,3.1c11.3-3.5,9.2-18-0.2-22.3c-10.5-4.9-27.7,3-29.2,15
				c-1.5,11.6,11.4,19,21.3,14.3c10.3-5,13.2-21.2,1.6-26.5c-11-5-21.2,9-13.2,18c4.1,4.6,10.4,4.8,15.6,2.1
				c4.2-2.2,10.4-6.9,8.6-12.4c-1.8-5.4-10.4-6.3-15.1-6.1c-5.5,0.3-10.8,3-13.1,8.2c-5.2,12,11.3,19.2,20.5,14.4
				c11-5.8,5.2-21-6-21.6c-5.1-0.3-11.1,2.2-12.9,7.3c-1.8,5,1.8,10.1,6.5,11.6c9.9,3.2,26.1-9.2,18.1-19.5
				c-8.1-10.4-22.1,0.5-24.6,10c-3.2,12.4,14.2,15.2,21.8,9.6c9.7-7.1,6.2-23.7-6.2-24.8c-10.8-1-24.6,12.6-16.9,23.1
				c7.2,9.8,25,5.4,28.3-6c1.5-5.1-0.7-11.1-5.9-13c-4.9-1.9-12.8,0.4-16.6,4c-7.9,7.5,10.3,21.2,17.6,12.7
				c2.7-3.2,2.5-8.7-1.5-10.8c-3.1-1.6-9,0.1-8.8,4.4c0.2,4.2,5.8,4.6,8.4,2.6c3.6-2.8,1.9-7.9-1.8-9.7c-5-2.4-9.5,1.3-11.8,5.6
				c-0.8,1.5,0,3,1.4,3.6c4.8,1.9,8.7-3.5,6.6-7.7c-0.7-1.6-3.4-1.6-4.2,0c-1.2,2.6-1.3,4.9,0.5,7.3c0.8,1.1,2,1.6,3.3,0.9
				c3.5-1.9,5.1-5.7,3.8-9.5c-0.6-1.7-2.7-2.4-4-1.1c-3.6,3.6-6.5,11.7,0.4,13.9c2.2,0.7,4.7-0.2,6-2c1.9-2.6,0.6-4.9-1-7.2
				c-1.7-2.6-5.9-0.2-4.2,2.4c0.8,1.7,1.1,1.5,0.9-0.7c-0.3-1.3,0.1-2.3,1.3-3c-1.3-0.4-2.7-0.7-4-1.1c0.7,1.8,0.2,3.2-1.6,4.1
				c1.1,0.3,2.2,0.6,3.3,0.9c-0.2-0.8-0.4-1.6-0.5-2.4c-1.4,0-2.8,0-4.2,0c-0.4,0.2-0.8,0.4-1.2,0.6c0.5,1.2,1,2.4,1.4,3.6
				c1.7-3.2,7.1-5.7,7.6,0c0.2,0.4,0.4,0.7,0.6,1.1c-1.2,2.2-2.9,2.9-5.1,2.1c-1.5-0.4-3-1.6-4-2.6c-2.7-2.7-2.8-4.3,0.9-5.9
				c3.4-1.5,7.7-3.1,10.5,0.4c4.2,5.4-2.3,11.2-7.2,12.8c-6.7,2.1-16.8-2.9-11.7-11c3-4.7,10.4-9.3,15.8-6.6
				c6.7,3.4,5.9,12.8-0.2,16.3c-3.4,1.9-11.7,2.6-13.3-2.3c-1-3.2,1.3-7.2,3.3-9.6c2.2-2.6,5.2-4.6,8.7-4.2
				c8.2,0.9,5.5,9.9,0.3,13.1c-3.2,2-8.2,3.3-11.2,0.3c-4.5-4.7,1.3-8.8,5.8-9c6.1-0.3,12.3,6.5,7.4,11.9
				c-3.9,4.3-13.1,3.3-16.1-1.7c-1.7-2.9-0.5-6.3,1.8-8.5c3.1-2.8,7.7-3,11.6-2.4c2.7,0.5,7.2,1.3,5.9,5.2c-0.9,2.7-6.1,5.3-8.6,6
				c-9.4,2.4-13.5-11.3-4.2-13.9c8-2.2,11.5,7.8,8.7,13.6c-3,6.3-11.8,9.4-17.5,4.6c-5.5-4.7-4.4-11.8,0.5-16.4
				c4.6-4.3,12.2-7.2,18.3-5.1c6.8,2.3,10.8,13.1,1.9,15.8c-1.3,0.4-1.9,2.1-0.8,3.1c14.4,13.3,28.8,26.6,43.3,39.8
				c0-0.8,0-1.6,0-2.4c-3.2,3.6-6.1,7.4-8.6,11.6c0.8-0.1,1.6-0.2,2.4-0.3c-8-7.8-16.1-15.7-24.1-23.5c-7-6.8-13.7-14.5-21.8-19.9
				C140.5,80.5,139.7,81.9,140.6,82.5L140.6,82.5z"/>
		</g>
	</g>
</g>
</svg>
