<?xml version="1.0" encoding="utf-8"?>
<!-- Generator: Adobe Illustrator 23.0.2, SVG Export Plug-In . SVG Version: 6.00 Build 0)  -->
<svg version="1.1" id="Layer_1" xmlns="http://www.w3.org/2000/svg" xmlns:xlink="http://www.w3.org/1999/xlink" x="0px" y="0px"
	 viewBox="0 0 576 576" style="enable-background:new 0 0 576 576;" xml:space="preserve">
<style type="text/css">
	.st0{fill:#FFFF00;}
	.st1{fill:#318278;}
</style>
<g>
	<g>
		<path d="M-147.7,120.7c0.5,0,0.5-0.8,0-0.8C-148.2,119.9-148.2,120.7-147.7,120.7L-147.7,120.7z"/>
	</g>
</g>
<g>
	<path class="st0" d="M315.2,517.7c39.8,9.9,85.1-10.3,104.3-46.6c-13.4-11-22.5-26.4-30.9-41.6c-26.5-47.5-50.3-96.5-74.1-145.4
		c17.9-1.4,34.5-10.2,48.3-21.5c48.7-39.9,64.6-114.8,36.1-171S300.7,3.7,239.8,19.3c-32.6,8.3-61,28.1-87.1,49.4
		c-31.1,25.3-61.6,56-69.2,95.4c-6,31,3.9,64.3,24.4,88.3s51.1,38.7,82.5,41.7c17.1,1.6,34.5,0,51.3-3.9c3.1-0.7,6.6-1.5,9.4,0
		c2.8,1.4,4.3,4.5,5.5,7.4c31.5,73.4,46,139.8,61.9,218.1"/>
	<g>
		<path d="M314.6,520c41.8,11.2,88.1-8.6,109.1-46.5c1-1.8,0.9-4.5-0.8-5.9c-12.6-10.8-21.1-25-29-39.4
			c-8.7-15.8-17.2-31.8-25.5-47.8c-17-32.8-33.1-66-49.2-99.2c-1.6,2.8-3.2,5.6-4.8,8.4c37-3.3,68.1-31.8,85.3-63.2
			c16.3-29.7,22.4-64.7,17-98.2c-11-68.8-75.3-118.9-144-119.5c-39.3-0.4-75,17.5-106,40.4c-30.8,22.7-62.8,49.3-80.1,84.2
			c-17.6,35.6-15.2,77.6,6.4,111.1c21.1,32.7,57.5,52.6,95.7,56.9c11.6,1.3,23.4,1,35-0.4c5.4-0.7,10.8-1.5,16.1-2.6
			c1.6-0.3,5.5-1.9,7.1-1.4c1.5,0.6,2,2.2,2.8,3.8c9,20,16.4,40.8,23.3,61.7c13.2,40.1,23.1,81.3,32.5,122.4
			c2.5,10.8,4.9,21.6,7.3,32.5c1.7,7.4,12.7,4.2,11.3-3.1c-7.5-40.4-15.2-80.9-26.2-120.5c-5.3-19.2-11.3-38.3-18-57
			c-3.6-10-7.4-19.9-11.4-29.8c-3.3-8-6-19.5-14.5-23.5c-4.6-2.1-9.5-1.3-14.3-0.3c-5.6,1.2-11.2,2.4-16.8,3.1
			c-10.7,1.4-21.7,1.7-32.4,0.7c-17.6-1.6-34.9-7.3-50.1-16.3c-31.6-18.8-52.4-53.3-51.6-90.4c0.8-37,25.1-67.5,51.2-91.4
			c27.8-25.5,60-50.7,96.7-61.5c61.7-18.3,133.5,14.3,160,73.1c26.5,58.8,3,138.8-54.8,169.8c-8.5,4.5-17.7,7.7-27.4,8.6
			c-4.4,0.4-6.8,4.4-4.8,8.4c16.5,33.8,32.9,67.5,50.3,100.9c8.6,16.4,17.3,32.8,26.6,48.8c8.1,14,17,27.7,29.6,38
			c-0.3-2-0.5-3.9-0.8-5.9c-18.3,34.9-60.8,55-99.5,46.7C312.9,514.7,311.6,519.2,314.6,520L314.6,520z"/>
	</g>
</g>
<g>
	<path class="st1" d="M133.3,276.2c-1.9-2.3-4.4-3.9-6.8-5.6C96.3,250,60,182.1,94.2,146.6c36.7-38.2,86.7-59.3,134.4-73.4
		c50.1-14.8,103.8-23,150.9-5.4c6.7,2.5,7.2,8.2,12.3,13.3c3.2,3.2,11.1,20.9,13.5,24.8c4.8,7.6,18.6,46.2,9,68.7
		c-24.9-17.4-36.5-15.8-66.9-8.6s-59.1,22.6-87.3,37.8c-42.2,22.8-89.6,37-125.2,70.8"/>
	<g>
		<path d="M134.5,275.1c-4.9-5.5-11.8-9-17.1-14.2c-5.8-5.7-10.8-12.1-15.3-18.9c-9.4-14.1-16.6-30.2-19.2-47.1
			c-2.5-16.3,0.1-33.7,11.6-46.3c14.2-15.6,31.8-28.4,50-39c37-21.6,79.4-35.7,121.3-44.3c23.2-4.8,47.1-7.3,70.7-5.4
			c11.6,0.9,23.1,3,34.2,6.4c5.4,1.6,10.8,2.9,14.2,7.8c2.2,3.1,4.4,6,6.6,9c4.3,5.9,7.1,13.2,10.4,19.7c2.7,5.2,5.3,10.1,7.2,15.6
			c5.9,17,10.7,38.2,3.7,55.6c0.8-0.3,1.6-0.6,2.4-1c-13.7-9.5-27.5-15.4-44.4-13.4c-20,2.3-40,8.5-58.5,16.3
			c-21.7,9.1-42,21.1-63,31.6c-18.6,9.3-37.8,17.5-56.4,26.7c-21.2,10.5-41.6,22.8-58.9,39.1c-1.5,1.4,0.8,3.7,2.3,2.3
			c30-28.2,68.6-43,105.1-60.6c19.4-9.3,38.1-20.3,57.5-29.6c20-9.5,40.6-16.7,62.4-21.1c8.6-1.7,17.6-3,26.3-1.3
			c9.6,1.9,18.1,7.1,26,12.6c1,0.7,2-0.1,2.4-1c6.6-16.2,2.9-35.7-1.9-51.9c-3.6-12-9.6-22.8-15.3-33.9c-3.3-6.4-7.5-12.3-11.9-18
			c-2.5-3.2-5.5-4.7-9.3-6c-5.8-2.1-11.8-3.7-17.8-5.1c-23.7-5.2-48.2-4.9-72.1-1.7c-24.3,3.2-48.1,9.4-71.5,16.9
			c-20.7,6.6-41,14.5-60.3,24.5c-20.1,10.4-39.1,23.1-55.6,38.6c-6.4,6.1-12.5,12.3-16.3,20.4c-3.3,7.2-4.9,15-5.1,22.9
			c-0.5,19.2,6.6,38.4,16.1,54.8c4.6,8,10.1,15.7,16.3,22.5c3,3.3,6.1,6.4,9.5,9.2c3.8,3.1,8.3,5.5,11.5,9.1
			C133.6,278.9,135.9,276.6,134.5,275.1L134.5,275.1z"/>
	</g>
</g>
</svg>
