<?xml version="1.0" encoding="utf-8"?>
<!-- Generator: Adobe Illustrator 23.0.2, SVG Export Plug-In . SVG Version: 6.00 Build 0)  -->
<svg version="1.1" xmlns="http://www.w3.org/2000/svg" xmlns:xlink="http://www.w3.org/1999/xlink" x="0px" y="0px"
	 viewBox="0 0 576 576" style="enable-background:new 0 0 576 576;" xml:space="preserve">
<style type="text/css">
	.st0{fill:#FB4FFF;}
	.st1{fill:#696969;}
	.st2{fill:#F7EECB;}
	.st3{fill:none;stroke:#696969;stroke-width:4;stroke-miterlimit:10;}
	.st4{fill:#B79455;}
	.st5{fill:#725424;}
</style>
<g id="Layer_1">
	<g>
		<g>
			<path d="M-147.7,120.7c0.5,0,0.5-0.8,0-0.8C-148.2,119.9-148.2,120.7-147.7,120.7L-147.7,120.7z"/>
		</g>
	</g>
	<g>
		<path class="st0" d="M276,238.1c91.3,0,192.2-115.1,220.4-57.7c7.3,15-12,187.4-12,204.1c0,80.9-93.3,146.4-208.4,146.4
			S67.6,465.3,67.6,384.5c0-30.3-2.6-176.3,19.9-199.6C125,145.9,204.1,238.1,276,238.1z"/>
		<path class="st1" d="M276,237.6c14.7,0,29.3-3,43.3-7.5s27.5-10.4,40.7-17s26-13.8,38.9-21c6.4-3.6,12.9-7.2,19.4-10.7
			s13.1-6.9,19.8-10.1c6.8-3.1,13.7-6,21.1-7.9c3.7-0.9,7.5-1.6,11.4-1.8c3.9-0.2,8,0.3,11.9,1.6c3.9,1.3,7.5,3.7,10.4,6.6
			c1.4,1.5,2.7,3.1,3.9,4.7c0.6,0.8,1.1,1.7,1.6,2.6c0.3,0.4,0.5,0.9,0.7,1.3c0.2,0.3,0.6,1.2,0.8,1.7c0.7,2.3,1,4.2,1.2,6.2
			c0.2,1.9,0.4,3.8,0.5,5.7c0.2,3.8,0.3,7.5,0.3,11.2c0.1,14.9-0.5,29.7-1.1,44.5c-0.6,14.8-1.4,29.5-2.2,44.3l-2.5,44.2l-1.3,22.1
			c-0.4,7.3-0.8,14.7-1.1,21.9l-0.1,2.6v1.2v1.2l0.1,3c0,1,0,2,0,3c-0.1,4-0.3,8.1-0.8,12.1s-1.2,8-2.1,12c-0.9,4-2,7.9-3.3,11.7
			c-1.3,3.9-2.8,7.6-4.4,11.3c-1.6,3.7-3.5,7.3-5.4,10.9c-3.9,7.1-8.5,13.7-13.5,20.1c-5,6.3-10.5,12.2-16.3,17.7
			c-5.8,5.5-12,10.6-18.4,15.3s-13.1,9-20,12.9c-6.9,3.9-13.9,7.5-21.1,10.7c-14.4,6.4-29.4,11.4-44.6,15.1
			c-7.6,1.9-15.3,3.3-23.1,4.6c-7.7,1.2-15.5,2-23.3,2.6c-31.2,2.2-62.7-0.4-93.2-8.2c-7.6-2-15.1-4.2-22.5-6.9
			c-7.4-2.6-14.7-5.6-21.9-8.9c-14.3-6.7-28-14.8-40.7-24.4c-12.6-9.7-24.3-20.9-33.9-33.8c-9.7-12.8-17.4-27.4-22-43
			c-1.2-3.9-2.1-7.8-2.9-11.8s-1.3-8-1.6-12c-0.4-4-0.4-8.1-0.3-12.1l0.3-11.2c0.4-14.8,0.9-29.6,1.6-44.4s1.6-29.6,2.7-44.4
			s2.5-29.6,4.6-44.3c1-7.4,2.1-14.8,3.6-22.1c1.5-7.3,3.2-14.7,5.7-21.9c1.3-3.6,2.7-7.2,4.7-10.7c1-1.7,2.2-3.4,3.7-5
			c1.4-1.4,2.9-2.7,4.6-3.9c3.3-2.4,7-4.1,10.9-5.1c3.9-1,7.9-1.2,11.7-1c7.8,0.5,15.1,2.7,22.1,5.4c7,2.7,13.7,6,20.2,9.4
			c13.1,6.9,25.8,14.4,38.7,21.5s26,13.9,39.7,19.2C246.8,233.7,261.3,237.5,276,237.6z M276,238.6c-7.4,0-14.8-1-22-2.6
			c-7.2-1.6-14.3-3.8-21.2-6.4c-13.9-5.2-27.1-11.8-40.2-18.7c-13.1-6.8-25.9-14.1-39.2-20.5c-6.6-3.2-13.3-6.2-20.2-8.5
			c-6.8-2.4-13.9-4.2-20.9-4.3c-3.5-0.1-6.9,0.3-10.2,1.3c-3.2,1-6.2,2.5-8.9,4.6c-1.3,1-2.6,2.2-3.7,3.4c-1,1.1-1.9,2.5-2.7,4
			c-1.6,3-2.8,6.3-3.8,9.7c-2,6.8-3.2,14-4.2,21.2s-1.7,14.5-2.3,21.7c-2.1,29.2-2.1,58.6-1.4,88c0.3,14.7,0.9,29.4,1.5,44.1
			l0.2,5.5l0.1,2.8c0,0.9,0.1,1.7,0.2,2.6c0.3,3.4,0.7,6.7,1.3,10c0.6,3.3,1.4,6.5,2.3,9.7c0.9,3.2,2,6.3,3.3,9.4
			c5.1,12.3,12.6,23.5,21.6,33.5c4.5,5,9.4,9.6,14.6,13.9c5.2,4.4,10.7,8.4,16.4,12.1c5.7,3.7,11.6,7.1,17.7,10.3
			c6.1,3.1,12.4,5.9,18.7,8.5c12.7,5.1,26,9.1,39.4,12.1c26.9,6,54.9,8,82.5,6.3c13.8-0.8,27.6-2.7,41.1-5.5
			c6.8-1.4,13.4-3.1,20.1-5c6.6-1.9,13.1-4.1,19.5-6.6c12.8-4.9,25.2-10.9,36.7-18.1c11.6-7.1,22.2-15.7,31.6-25.3
			c4.6-4.9,8.9-10,12.7-15.5c1.9-2.7,3.7-5.5,5.4-8.4c1.7-2.9,3.2-5.8,4.5-8.9c1.4-3,2.6-6.1,3.7-9.3c1.1-3.1,2-6.4,2.7-9.6
			c0.8-3.3,1.3-6.6,1.7-9.9c0.1-0.8,0.2-1.7,0.3-2.5l0.2-2.5v-0.6v-0.9l0.1-1.6l0.3-2.9c0.7-7.6,1.6-14.9,2.5-22.2l2.7-22l5.3-43.9
			c1.7-14.6,3.3-29.3,4.8-43.9c1.4-14.6,2.7-29.3,3.4-43.9c0.1-3.6,0.3-7.3,0.2-10.9c0-1.8-0.1-3.6-0.2-5.3
			c-0.1-1.7-0.3-3.5-0.6-4.7c-0.1-0.3-0.1-0.3-0.3-0.8c-0.2-0.4-0.4-0.8-0.6-1.1c-0.4-0.8-0.8-1.5-1.2-2.2c-0.9-1.4-1.9-2.8-3-4
			c-2.2-2.4-4.9-4.3-7.9-5.5s-6.4-1.7-9.8-1.7s-7,0.5-10.4,1.2c-7,1.5-13.9,4-20.6,6.8c-13.5,5.7-26.5,12.6-39.5,19.5
			s-26.1,13.8-39.4,20.2c-6.7,3.2-13.4,6.2-20.3,9c-6.8,2.8-13.8,5.4-20.8,7.6C305.5,235.6,290.8,238.6,276,238.6z"/>
	</g>
	<g>
		<ellipse class="st2" cx="290.2" cy="211.9" rx="208.4" ry="146.4"/>
		<path class="st1" d="M290.2,65c11.7,0,23.4,0.7,35.1,1.9l4.4,0.5c1.5,0.2,2.9,0.3,4.4,0.6l8.7,1.3l8.7,1.6
			c2.9,0.6,5.7,1.2,8.6,1.9c22.9,5.3,45.2,13.3,66.1,24.7c20.7,11.4,40.1,26.3,55.2,45.6l1.4,1.8c0.5,0.6,0.9,1.2,1.3,1.9l2.7,3.7
			c0.9,1.2,1.7,2.6,2.5,3.9l2.5,3.9c0.8,1.3,1.5,2.7,2.2,4.1l1.1,2c0.4,0.7,0.7,1.4,1,2.1l2,4.2l1,2.1l0.8,2.2
			c4.6,11.6,7.4,24.1,8,36.9c0.5,12.7-1.1,25.7-4.7,38l-0.7,2.3l-0.8,2.3l-1.6,4.6c-0.3,0.8-0.6,1.5-0.9,2.2l-0.9,2.2
			c-0.6,1.5-1.3,3-1.9,4.4l-2.2,4.3c-0.7,1.4-1.4,2.9-2.2,4.3l-2.4,4.2c-0.4,0.7-0.8,1.4-1.2,2.1l-1.3,2
			c-7,10.7-15.3,20.5-24.5,29.2s-19.2,16.5-29.9,23.2c-21.2,13.5-44.6,23.2-68.6,29.7c-12,3.2-24.3,5.6-36.6,7.1
			c-12.3,1.6-24.7,2.3-37.1,2.4c-12.4-0.1-24.8-0.8-37.1-2.4c-12.3-1.5-24.6-3.9-36.6-7.1c-24.1-6.4-47.4-16.1-68.6-29.7
			c-10.6-6.7-20.7-14.5-29.9-23.2c-9.2-8.7-17.5-18.5-24.5-29.2l-1.3-2c-0.4-0.7-0.8-1.4-1.2-2.1l-2.4-4.2c-0.8-1.4-1.5-2.8-2.2-4.3
			l-2.2-4.3c-0.7-1.5-1.3-3-1.9-4.4l-0.9-2.2c-0.3-0.7-0.6-1.5-0.9-2.2l-1.6-4.6l-0.8-2.3l-0.7-2.3c-3.6-12.4-5.2-25.3-4.7-38
			c0.6-12.7,3.4-25.3,8-36.9l0.8-2.2l1-2.1l2-4.2c0.3-0.7,0.7-1.4,1-2.1l1.1-2c0.7-1.4,1.5-2.7,2.2-4.1l2.5-3.9
			c0.8-1.3,1.6-2.6,2.5-3.9l2.7-3.7c0.4-0.6,0.9-1.3,1.3-1.9l1.4-1.8c15.1-19.2,34.4-34.1,55.2-45.6c20.8-11.4,43.2-19.4,66.1-24.7
			c2.9-0.6,5.7-1.3,8.6-1.9l8.7-1.6l8.7-1.3c1.4-0.2,2.9-0.4,4.4-0.6l4.4-0.5C266.8,65.6,278.5,65,290.2,65z M290.2,66
			c-11.7,0.1-23.4,0.8-34.9,2.2c-11.6,1.5-23.1,3.6-34.3,6.7c-22.5,6-44.2,15.1-63.6,27.6c-19.4,12.4-36.6,28.3-48.8,47.2
			c-12.3,18.8-18.5,40.8-17.4,62.1c1.3,21.4,9.8,41.6,23.1,58c13.2,16.6,30.6,30,49.6,40.4s39.8,17.8,61.1,22.7
			c2.7,0.6,5.3,1.2,8,1.7l8.1,1.5l8.1,1.2c1.4,0.2,2.7,0.4,4.1,0.5l4.1,0.5c10.9,1.2,21.9,1.8,32.9,1.8s22-0.6,32.9-1.8l4.1-0.5
			c1.4-0.2,2.7-0.3,4.1-0.5l8.1-1.2l8.1-1.5c2.7-0.5,5.3-1.2,8-1.7c21.3-4.9,42-12.3,61.1-22.7c19-10.4,36.3-23.7,49.6-40.4
			c13.4-16.5,21.9-36.7,23.1-58c1.1-21.3-5.1-43.3-17.4-62.1c-12.2-18.9-29.4-34.8-48.8-47.2c-19.5-12.5-41.1-21.6-63.6-27.6
			c-11.2-3.1-22.7-5.2-34.3-6.7C313.6,66.7,301.9,66,290.2,66z"/>
	</g>
	<line class="st3" x1="120.2" y1="481" x2="120.2" y2="296.3"/>
	<line class="st3" x1="206.9" y1="516" x2="208" y2="348.1"/>
	<line class="st3" x1="324" y1="527.2" x2="322.9" y2="368.4"/>
	<line class="st3" x1="406.2" y1="505.8" x2="407.4" y2="341.4"/>
	<line class="st3" x1="473.4" y1="442.8" x2="474.5" y2="296.3"/>
</g>
<g id="Layer_2">
	<g>
		<path class="st4" d="M132,81c-0.6-1.3-15.7-39.9-43-31c-6.8,2.2-12,16.7-10.1,23.6c0.8,2.8,2.8,5.1,5.1,6.9
			c7.1,5.9,16.7,8.5,25.8,7.2c3.9-0.6,7.9-1.9,11.7-0.8c2.9,0.8,5.2,2.8,7.5,4.7c89.8,74.9,212,97.1,312.2,157.3
			c5.4-1.6,7.2-8.9,4.9-14s-7.3-8.4-12.1-11.3c-61.9-37.6-132.7-57.3-198.8-86.8C189.2,116.2,172.6,109.6,132,80"/>
		<g>
			<path class="st5" d="M133.5,80.6c-4.7-13.8-12.7-28.1-27.1-33.5c-9.4-3.5-20.8-2.1-26.4,6.8C77,58.7,75,65,75.2,70.7
				c0.2,6.3,4.1,10.7,9,14.2c6,4.2,13.4,6.5,20.7,6.5c4,0,7.7-1.1,11.6-1.5c5.4-0.4,8.6,2.8,12.6,6c11.9,9.7,24.4,18.7,37.3,26.9
				c26.8,17.1,55.4,31.1,84.5,43.8c58.4,25.7,119.2,46.4,175.1,77.7c3.3,1.9,6.6,3.7,9.9,5.7c3,1.8,5.1,3.5,8.5,1.7
				c5.1-2.7,7.3-8.9,6.5-14.4c-1-6.7-6.2-11.5-11.5-15.1c-7-4.7-14.5-8.8-21.9-12.8c-30.8-16.7-63.4-29.8-96-42.4
				c-32.8-12.7-65.4-25.5-97.5-39.8c-24.3-10.8-48-22.2-70.1-37c-6.6-4.4-13.1-9.1-19.6-13.8c-4.3-3.1-8.4,4-4.2,7.1
				c16.6,12,33.6,23.4,51.8,32.9c18.6,9.6,37.9,17.9,57.1,26.3c46.9,20.5,95.8,36.3,142.4,57.6c13,6,25.9,12.3,38.3,19.3
				c5.8,3.2,11.8,6.4,17.2,10.3c2.6,1.9,5.3,4.4,6.2,7.6c0.7,2.6,0.1,6.5-2.8,7.6c1,0.1,2,0.3,3,0.4c-60.8-36.4-128.5-58.6-193.1-87
				c-32-14.1-63.4-29.8-92.3-49.5c-7.3-5-14.5-10.2-21.4-15.8c-6.2-5-11.7-10.9-20.4-10c-4.3,0.5-8.4,1.6-12.7,1.4
				c-5.1-0.3-10-1.9-14.3-4.6c-3.6-2.3-7-5.3-7.1-9.9c-0.1-3.7,1.1-7.5,2.7-10.8c7-14.2,24.1-5.6,32.2,2.7
				c5.6,5.8,10.2,12.5,13.9,19.7C131.4,83.4,134.1,82.3,133.5,80.6L133.5,80.6z"/>
		</g>
	</g>
	<g>
		<path class="st4" d="M398.8,107.7c1.2,0.7,35.6,23.8,53,0.9c4.3-5.7,0.3-20.6-5.2-25.2c-2.2-1.9-5.2-2.6-8.1-2.8
			c-9.1-0.8-18.6,2.5-25.2,8.8c-2.9,2.7-5.4,6-9.1,7.4c-2.8,1-5.9,0.7-8.8,0.5c-116.5-10.2-229.5,41.4-346.1,49.2
			c-3.5,4.4-0.8,11.4,4,14.3c4.8,2.9,10.8,2.7,16.4,2.4c72.3-4.5,141.6-28.8,212.8-42.3c49.4-9.4,66.7-13.5,117-12.4"/>
		<g>
			<path class="st5" d="M398,109.1c12.2,9,28.5,16.7,43.8,11c9.9-3.7,16.4-11.7,14.9-22.4c-0.7-5.1-2.5-10.3-5.7-14.4
				c-3.6-4.6-9.2-6-14.9-6.1c-6.8-0.1-13.6,1.9-19.4,5.4c-6.4,4-10.4,11.8-18.7,11.5c-16.7-0.7-33.1-1.9-49.8-1.3
				c-32.4,1.2-64.6,6.2-96.3,12.4c-65.3,12.8-129.7,31.7-196.3,37c-2.8,0.2-6.8-0.4-9.1,1.6c-1.9,1.6-2.7,4.9-2.7,7.3
				c-0.1,5.6,3.5,10.8,8.3,13.4c6.5,3.5,14.3,2.8,21.4,2.3c8.8-0.6,17.5-1.5,26.2-2.7c33.4-4.4,66.3-12,99-20
				c33-8,65.9-15.8,99.3-22.1c25.8-4.9,51.4-9.1,77.7-9.5c7.9-0.1,15.8-0.1,23.7,0.1c5.3,0.1,5.3-8.1,0-8.2c-20.5-0.4-41,0-61.4,2.6
				c-20.9,2.7-41.6,7-62.2,11.1c-49.5,9.8-97.8,24.4-147.4,33.6c-14.5,2.7-29,4.9-43.7,6.4c-6.7,0.7-13.5,1.5-20.1,1.4
				c-5.2-0.1-17.1-3.5-12-11.1c-1.1,0.6-2.2,1.3-3.3,1.9c71.6-5,140.7-25.7,210.9-39.3c35-6.8,70.5-11.7,106.2-11.6
				c9.1,0,18.2,0.4,27.2,1.1c8.1,0.6,13.6-0.2,19.5-6.1c6.2-6.2,13.3-10.4,22.2-10.6c3.7-0.1,7.8,0.3,10.4,3.3
				c2.2,2.5,3.4,6.1,4.1,9.3c1.7,7.5-1,12.9-7.9,16.5c-5.8,3-12.3,2.9-18.6,1.7c-8.3-1.5-16.2-4.4-23.7-8.4
				C397.7,105.4,396.3,107.9,398,109.1L398,109.1z"/>
		</g>
	</g>
</g>
</svg>
