<?xml version="1.0" encoding="utf-8"?>
<!-- Generator: Adobe Illustrator 23.0.2, SVG Export Plug-In . SVG Version: 6.00 Build 0)  -->
<svg version="1.1" id="Layer_1" xmlns="http://www.w3.org/2000/svg" xmlns:xlink="http://www.w3.org/1999/xlink" x="0px" y="0px"
	 viewBox="0 0 576 576" style="enable-background:new 0 0 576 576;" xml:space="preserve">
<style type="text/css">
	.st0{fill:#D000A2;}
	.st1{fill:#3F3E38;}
	.st2{fill:#006F6A;}
</style>
<g>
	<path class="st0" d="M158.1,232.3C237.4,347,326,455.2,422.9,555.4c4.6,4.8,9.7,9.8,16.2,11.1c6.2,1.3,12.5-0.9,18.2-3.6
		c29.8-13.9,52.9-41.3,61.7-72.9c1.4-5.2,2.5-10.8,0.8-15.9c-1.4-4.2-4.5-7.6-7.6-10.9c-89.5-95.5-179-191-268.5-286.5
		c-2.7-2.9-5.6-5.9-9.5-6.8c-6.3-1.4-12.1,3.3-16.8,7.7c-19.3,18-38.5,36-57.8,54"/>
	<g>
		<path d="M156,233.6c40.2,61.1,84.3,119.4,130.8,175.8c23.3,28.3,47.3,56.2,71.7,83.6c12.1,13.6,24.4,27,36.8,40.4
			c6.3,6.8,12.6,13.5,19,20.2c5.4,5.7,10.8,12.3,18,15.9c14.3,7.1,30.9-2.4,42.7-10.5c12.1-8.2,22.6-18.5,31.1-30.4
			c8.6-12,15.9-26.3,18.7-40.9c1.7-8.7,0.4-16.1-5-23.2c-5.5-7.1-12.1-13.6-18.1-20.3C448.4,385.8,394.9,327.6,341,269.7
			c-26.9-28.9-53.7-58.1-81.2-86.4c-5.7-5.9-11.5-13.6-18.8-17.6c-7.6-4.2-15.5-1.9-22.1,2.9c-7.5,5.5-14,12.5-20.9,18.7
			c-7.1,6.4-14.1,12.9-21.2,19.3c-7.3,6.7-14.3,13.6-21.4,20.5c-5.9,5.7,2.9,14.3,8.9,8.9c13.7-12.4,27.1-25,40.4-37.8
			c6.5-6.2,12.8-12.8,19.6-18.5c2.4-2,5.6-4.5,8.9-3.4c3.4,1.1,6.2,5.6,8.5,8.1c24.4,27.7,50,54.3,75.3,81.1
			c50.8,53.9,101.7,107.6,153.2,160.9c12.9,13.4,25.9,26.7,38.8,40.1c2.7,2.8,5.7,5.7,6.6,9.6c1,4.4-0.3,8.9-1.5,13.1
			c-2,6.8-4.6,13.3-7.8,19.5c-6.5,12.4-15.3,23.5-25.8,32.8c-5.3,4.6-11,8.6-17.1,12.2c-6.3,3.7-14.2,8.6-21.7,7.8
			c-7.4-0.7-12.7-7.5-17.6-12.5c-6-6.2-12-12.4-18-18.6c-11.9-12.5-23.7-25.1-35.4-37.8c-23.1-25.2-45.7-50.9-67.7-77.2
			c-44.4-53-86.1-108-127.2-163.5c-5.2-7-10.3-13.9-15.3-20.9C158.5,228.5,154.2,230.9,156,233.6L156,233.6z"/>
	</g>
</g>
<g>
	<path class="st1" d="M233.5,153c-8.5,22.3-27.9,38.3-46.5,53.3c-20.5,16.5-45.6,34-70.9,26.8c-10-2.9-18.6-9.4-26.4-16.3
		c-21.1-18.8-38.5-41.6-51.1-66.9c-9.7-19.6-16.5-42.3-10.1-63.1c8.9-28.9,39.3-44.5,66.9-57c8-3.6,16.2-7.3,24.9-7.6
		c9.8-0.4,19.2,3.5,28.1,7.6c32.3,14.8,64.4,34.9,80.7,66.4s10.5,76.6-20.5,94.1"/>
	<g>
		<path d="M232.5,151.9c-1.9,1.6-4.1,2.5-5.6,4.4c-1.6,2-2.7,4.5-4.3,6.6c-3.4,4.7-7.5,8.8-11.8,12.8c-7.9,7.4-15.7,14.5-24.1,21.2
			c-16.8,13.2-36.7,29.4-59.2,29c-11.1-0.2-20.6-6.3-28.8-13.3c-8.5-7.3-16.4-15.5-23.7-24.1c-14.5-17.2-27.3-37.4-34.5-58.8
			C33.8,109.9,33.6,88.5,48,72c12.9-14.8,31.1-23.7,48.7-31.7c9.4-4.3,19.4-9.3,30-7.3c11.2,2.1,22.1,8.2,32.1,13.5
			c18.6,9.8,36.4,21.6,50,37.9c24.2,28.9,27,75.7-4.8,101c-5.2,4.1,0.4,13.8,6.6,11.3c10.1-4.1,18.7-9.9,25-19
			c5.7-8.2,9.6-18,11.4-27.8c4.1-21.7,0.3-44.1-10.8-63.3c-12.5-21.4-31.9-37.9-52.9-50.6c-10.5-6.4-21.5-12-32.8-16.9
			c-13.9-6.1-28-9.6-43-5.2c-11.8,3.5-23.3,9.6-34.2,15.3C63,34.7,53.1,40.8,44.1,48.2c-19.2,15.9-30,38.8-27.2,63.9
			c3,26.5,16.7,51.6,32.1,73c7.7,10.7,16.3,20.8,25.7,30.1c9.1,8.9,19.1,18.1,30.8,23.4c29.9,13.6,58.6-4.1,81.6-22.6
			c10.9-8.7,22-17.7,31.3-28c4.6-5,8.5-10.9,11.8-16.8c1.6-2.7,2.9-5.6,4.2-8.5c1.5-3.5,1-5.9,0.5-9.7
			C234.8,151.7,233.5,151.1,232.5,151.9L232.5,151.9z"/>
	</g>
</g>
<g>
	<g>
		<path d="M-147.7,120.7c0.5,0,0.5-0.8,0-0.8C-148.2,119.9-148.2,120.7-147.7,120.7L-147.7,120.7z"/>
	</g>
</g>
<g>
	<g>
		<path d="M63.7,52.9c-9.2,41.5-11.5,84.3-6.9,126.5c0.3,2.4,4.1,2.4,3.8,0c-4.6-41.9-2.4-84.3,6.7-125.5
			C67.9,51.6,64.2,50.5,63.7,52.9L63.7,52.9z"/>
	</g>
</g>
<g>
	<g>
		<path d="M78.8,206.1c3.9-54.9,12.9-109.4,26.7-162.7c0.6-2.4-3.1-3.4-3.7-1C87.9,96,79,150.8,75,206.1
			C74.8,208.5,78.6,208.5,78.8,206.1L78.8,206.1z"/>
	</g>
</g>
<g>
	<g>
		<path d="M110.3,205.1c1-43.7,9.9-86.8,26.1-127.4c0.9-2.3-2.8-3.3-3.7-1c-16.4,40.8-25.3,84.4-26.3,128.4
			C106.5,207.5,110.3,207.5,110.3,205.1L110.3,205.1z"/>
	</g>
</g>
<g>
	<g>
		<path d="M136.6,232.9c6.6-56.1,15.7-111.9,27.4-167.2c0.5-2.4-3.2-3.4-3.7-1c-11.8,55.6-21,111.8-27.6,168.2
			C132.5,235.3,136.3,235.3,136.6,232.9L136.6,232.9z"/>
	</g>
</g>
<g>
	<g>
		<path d="M165.2,212.2c16.4-50.1,22.8-103.1,18.8-155.7c-0.2-2.4-4-2.4-3.8,0c3.9,52.3-2.4,104.8-18.7,154.6
			C160.8,213.5,164.5,214.5,165.2,212.2L165.2,212.2z"/>
	</g>
</g>
<g>
	<g>
		<path d="M217.2,191.6c-4.2-2.7-2.9-9.4-2.7-13.6c0.2-5.3,0.5-10.6,0.6-15.9c0.4-10.9,0.5-21.9,0.6-32.8
			c0.1-21.6-0.5-43.1-1.7-64.7c-0.1-2.4-3.9-2.4-3.8,0c1.3,24.2,1.9,48.4,1.6,72.6c-0.1,11.9-0.4,23.9-0.9,35.8
			c-0.3,7-2.6,17.4,4.4,21.9C217.3,196.2,219.2,193,217.2,191.6L217.2,191.6z"/>
	</g>
</g>
<g>
	<g>
		<path d="M50.5,143.3c-1.2-0.6-2.4-1.1-3.6-1.7c-2.2-1-4,2-1.9,3.3c45.6,27.4,96,46.5,148.3,56.2c2.4,0.4,3.4-3.2,1-3.7
			c-52.1-9.6-102-28.5-147.4-55.8c-0.6,1.1-1.3,2.2-1.9,3.3c1.2,0.6,2.4,1.1,3.6,1.7C50.8,147.6,52.7,144.4,50.5,143.3L50.5,143.3z"
			/>
	</g>
</g>
<g>
	<g>
		<path d="M22.8,100.9c53.9,31.4,112.6,54.2,173.7,67.3c2.4,0.5,3.4-3.2,1-3.7c-60.7-13-119.1-35.6-172.8-66.9
			C22.6,96.4,20.7,99.7,22.8,100.9L22.8,100.9z"/>
	</g>
</g>
<g>
	<g>
		<path d="M44.9,75.4c58.6,23.7,115.4,51.5,170.1,83.2c2.1,1.2,4-2.1,1.9-3.3c-55-31.8-112.2-59.8-171-83.6
			C43.7,70.8,42.7,74.5,44.9,75.4L44.9,75.4z"/>
	</g>
</g>
<g>
	<g>
		<path d="M71.9,51.3c6.7-1,12.9,2,18.8,4.8c5.7,2.6,11.3,5.2,17,7.8c11,5.1,22.1,10.1,33.1,15.2c22.1,10.1,44.2,20.3,66.3,30.4
			c2.2,1,4.1-2.3,1.9-3.3c-23.9-11-47.8-21.9-71.7-32.9c-11.6-5.3-23.3-10.7-34.9-16c-9.8-4.5-20.4-11.3-31.6-9.7
			C68.5,48,69.5,51.6,71.9,51.3L71.9,51.3z"/>
	</g>
</g>
<g>
	<g>
		<path d="M113.7,36.8c39.4,22.1,78.8,44.1,118.2,66.2c2.1,1.2,4.1-2.1,1.9-3.3C194.4,77.6,155,55.6,115.6,33.5
			C113.4,32.3,111.5,35.6,113.7,36.8L113.7,36.8z"/>
	</g>
</g>
<g>
	<g>
		<path d="M156.2,32.3c-8.6,21.9-26.9,39.6-29.4,63.8c-0.2,2.4,3.6,2.4,3.8,0c2.4-23.6,20.9-41.4,29.3-62.8
			C160.8,31,157.1,30.1,156.2,32.3L156.2,32.3z"/>
	</g>
</g>
<g>
	<path class="st2" d="M53.8,177.9c4.7,13.3,20.8,21.5,34.3,17.4c7-2.1,12.9-6.9,18.5-11.6c15.8-13.1,31.6-26.1,47.4-39.2
		c22.4-18.5,45.5-37.9,57.8-64.3c-4.7-5-9.4-10.1-14.1-15.1c-1.1-1.2-2.3-2.5-3.9-3.1c-4.6-1.7-8.8,3-11.6,7
		c-24.8,35.5-62.5,59.4-98.6,83.2c-6.2,4.1-12.6,8.4-17.2,14.3c-4.6,5.9-7.3,13.8-5.1,21c2.2,7.2,10.2,12.6,17.4,10.3"/>
	<g>
		<path d="M51.9,178.4c3.9,10.2,13.1,17.6,23.9,19.4c13.5,2.2,23.8-6,33.6-14.1c13.5-11.2,27-22.3,40.5-33.5
			c11.8-9.7,23.7-19.4,34.6-30.1c11.6-11.4,21.9-24.2,28.9-39c0.4-0.8,0.3-1.6-0.3-2.3c-3.4-3.7-6.8-7.3-10.2-11
			c-2.3-2.5-4.8-6.1-8.1-7.5c-6.1-2.5-11,3.4-14.2,7.7c-10.7,14.7-23.1,27.6-37,39.3c-14,11.7-29,22.1-44.2,32.2
			c-7.3,4.9-14.9,9.6-22.1,14.6c-6.4,4.5-12.5,9.7-15.9,16.9c-3.3,6.8-4,15.1,0.4,21.6c3.9,5.7,10.7,8.8,17.5,7
			c2.4-0.6,1.4-4.3-1-3.7c-8.2,2.2-15.5-5.1-15.7-13.1c-0.3-8,4.5-15,10.2-20.2c10.7-9.7,24.3-16.8,36.3-24.9
			c23-15.6,45.7-32.4,63.9-53.6c2.4-2.8,4.8-5.8,7.1-8.7c2.4-3.2,4.5-7,7.6-9.7c5.5-4.8,9.8,1.8,13.3,5.5c3.2,3.4,6.4,6.9,9.6,10.3
			c-0.1-0.8-0.2-1.5-0.3-2.3c-14.9,31.3-43.7,52.5-69.7,74c-7.6,6.3-15.3,12.6-22.9,19c-7.4,6.1-14.5,13-22.8,17.9
			c-14.1,8.4-33.1,3.1-39.1-12.8C54.7,175.1,51.1,176.1,51.9,178.4L51.9,178.4z"/>
	</g>
</g>
</svg>
