<?xml version="1.0" encoding="utf-8"?>
<!-- Generator: Adobe Illustrator 23.0.2, SVG Export Plug-In . SVG Version: 6.00 Build 0)  -->
<svg version="1.1" id="Layer_1" xmlns="http://www.w3.org/2000/svg" xmlns:xlink="http://www.w3.org/1999/xlink" x="0px" y="0px"
	 viewBox="0 0 576 576" style="enable-background:new 0 0 576 576;" xml:space="preserve">
<style type="text/css">
	.st0{fill:#FFA80C;}
	.st1{fill:#696969;}
	.st2{fill:#F7EECB;}
	.st3{fill:none;stroke:#696969;stroke-width:4;stroke-miterlimit:10;}
</style>
<g>
	<g>
		<path d="M-147.7,120.7c0.5,0,0.5-0.8,0-0.8C-148.2,119.9-148.2,120.7-147.7,120.7L-147.7,120.7z"/>
	</g>
</g>
<g>
	<path class="st0" d="M352,299.8c0,91.3,115.1,192.2,57.7,220.4c-15,7.3-187.4-12-204.1-12c-80.9,0-146.4-93.3-146.4-208.4
		S124.8,91.4,205.6,91.4c30.3,0,176.3-2.6,199.6,19.9C444.2,148.8,352,227.9,352,299.8z"/>
	<path class="st1" d="M352.5,299.8c0,14.7,3,29.3,7.5,43.3c4.5,14,10.4,27.5,17,40.7c6.6,13.2,13.8,26,21,38.9
		c3.6,6.4,7.2,12.9,10.7,19.4c3.5,6.5,6.9,13.1,10.1,19.8c3.1,6.8,6,13.7,7.9,21.1c0.9,3.7,1.6,7.5,1.8,11.4c0.2,3.9-0.3,8-1.6,11.9
		c-1.3,3.9-3.7,7.5-6.6,10.4c-1.5,1.4-3.1,2.7-4.7,3.9c-0.8,0.6-1.7,1.1-2.6,1.6c-0.4,0.3-0.9,0.5-1.3,0.7c-0.3,0.2-1.2,0.6-1.7,0.8
		c-2.3,0.7-4.2,1-6.2,1.2c-1.9,0.2-3.8,0.4-5.7,0.5c-3.8,0.2-7.5,0.3-11.2,0.3c-14.9,0.1-29.7-0.5-44.5-1.1
		c-14.8-0.6-29.5-1.4-44.3-2.2l-44.2-2.5l-22.1-1.3c-7.3-0.4-14.7-0.8-21.9-1.1l-2.6-0.1l-1.2,0l-1.2,0l-3,0.1c-1,0-2,0-3,0
		c-4-0.1-8.1-0.3-12.1-0.8c-4-0.5-8-1.2-12-2.1c-4-0.9-7.9-2-11.7-3.3c-3.9-1.3-7.6-2.8-11.3-4.4c-3.7-1.6-7.3-3.5-10.9-5.4
		c-7.1-3.9-13.7-8.5-20.1-13.5c-6.3-5-12.2-10.5-17.7-16.3c-5.5-5.8-10.6-12-15.3-18.4c-4.7-6.4-9-13.1-12.9-20
		c-3.9-6.9-7.5-13.9-10.7-21.1c-6.4-14.4-11.4-29.4-15.1-44.6c-1.9-7.6-3.3-15.3-4.6-23.1c-1.2-7.7-2-15.5-2.6-23.3
		c-2.2-31.2,0.4-62.7,8.2-93.2c2-7.6,4.2-15.1,6.9-22.5c2.6-7.4,5.6-14.7,8.9-21.9c6.7-14.3,14.8-28,24.4-40.7
		c9.7-12.6,20.9-24.3,33.8-33.9c12.8-9.7,27.4-17.4,43-22c3.9-1.2,7.8-2.1,11.8-2.9c4-0.8,8-1.3,12-1.6c4-0.4,8.1-0.4,12.1-0.3
		l11.2,0.3c14.8,0.4,29.6,0.9,44.4,1.6c14.8,0.7,29.6,1.6,44.4,2.7c14.8,1.1,29.6,2.5,44.3,4.6c7.4,1,14.8,2.1,22.1,3.6
		c7.3,1.5,14.7,3.2,21.9,5.7c3.6,1.3,7.2,2.7,10.7,4.7c1.7,1,3.4,2.2,5,3.7c1.4,1.4,2.7,2.9,3.9,4.6c2.4,3.3,4.1,7,5.1,10.9
		c1,3.9,1.2,7.9,1,11.7c-0.5,7.8-2.7,15.1-5.4,22.1c-2.7,7-6,13.7-9.4,20.2c-6.9,13.1-14.4,25.8-21.5,38.7
		c-7.1,12.9-13.9,26-19.2,39.7C356.4,270.6,352.6,285.1,352.5,299.8z M351.5,299.8c0-7.4,1-14.8,2.6-22c1.6-7.2,3.8-14.3,6.4-21.2
		c5.2-13.9,11.8-27.1,18.7-40.2c6.8-13.1,14.1-25.9,20.5-39.2c3.2-6.6,6.2-13.3,8.5-20.2c2.4-6.8,4.2-13.9,4.3-20.9
		c0.1-3.5-0.3-6.9-1.3-10.2c-1-3.2-2.5-6.2-4.6-8.9c-1-1.3-2.2-2.6-3.4-3.7c-1.1-1-2.5-1.9-4-2.7c-3-1.6-6.3-2.8-9.7-3.8
		c-6.8-2-14-3.2-21.2-4.2c-7.2-1-14.5-1.7-21.7-2.3c-29.2-2.1-58.6-2.1-88-1.4c-14.7,0.3-29.4,0.9-44.1,1.5l-5.5,0.2l-2.8,0.1
		c-0.9,0-1.7,0.1-2.6,0.2c-3.4,0.3-6.7,0.7-10,1.3c-3.3,0.6-6.5,1.4-9.7,2.3c-3.2,0.9-6.3,2-9.4,3.3c-12.3,5.1-23.5,12.6-33.5,21.6
		c-5,4.5-9.6,9.4-13.9,14.6c-4.4,5.2-8.4,10.7-12.1,16.4c-3.7,5.7-7.1,11.6-10.3,17.7c-3.1,6.1-5.9,12.4-8.5,18.7
		c-5.1,12.7-9.1,26-12.1,39.4c-6,26.9-8,54.9-6.3,82.5c0.8,13.8,2.7,27.6,5.5,41.1c1.4,6.8,3.1,13.4,5,20.1
		c1.9,6.6,4.1,13.1,6.6,19.5c4.9,12.8,10.9,25.2,18.1,36.7c7.1,11.6,15.7,22.2,25.3,31.6c4.9,4.6,10,8.9,15.5,12.7
		c2.7,1.9,5.5,3.7,8.4,5.4c2.9,1.7,5.8,3.2,8.9,4.5c3,1.4,6.1,2.6,9.3,3.7c3.1,1.1,6.4,2,9.6,2.7c3.3,0.8,6.6,1.3,9.9,1.7
		c0.8,0.1,1.7,0.2,2.5,0.3l2.5,0.2l0.6,0l0.9,0l1.6,0.1l2.9,0.3c7.6,0.7,14.9,1.6,22.2,2.5l22,2.7l43.9,5.3
		c14.6,1.7,29.3,3.3,43.9,4.8c14.6,1.4,29.3,2.7,43.9,3.4c3.6,0.1,7.3,0.3,10.9,0.2c1.8,0,3.6-0.1,5.3-0.2c1.7-0.1,3.5-0.3,4.7-0.6
		c0.3-0.1,0.3-0.1,0.8-0.3c0.4-0.2,0.8-0.4,1.1-0.6c0.8-0.4,1.5-0.8,2.2-1.2c1.4-0.9,2.8-1.9,4-3c2.4-2.2,4.3-4.9,5.5-7.9
		c1.2-3,1.7-6.4,1.7-9.8c0-3.4-0.5-7-1.2-10.4c-1.5-7-4-13.9-6.8-20.6c-5.7-13.5-12.6-26.5-19.5-39.5c-6.9-13-13.8-26.1-20.2-39.4
		c-3.2-6.7-6.2-13.4-9-20.3c-2.8-6.8-5.4-13.8-7.6-20.8C354.5,329.3,351.5,314.6,351.5,299.8z"/>
</g>
<g>
	<ellipse class="st2" cx="378.2" cy="314" rx="146.4" ry="208.4"/>
	<path class="st1" d="M525.1,314c0,11.7-0.7,23.4-1.9,35.1l-0.5,4.4c-0.2,1.5-0.3,2.9-0.6,4.4l-1.3,8.7l-1.6,8.7
		c-0.6,2.9-1.2,5.7-1.9,8.6c-5.3,22.9-13.3,45.2-24.7,66.1c-11.4,20.7-26.3,40.1-45.6,55.2l-1.8,1.4c-0.6,0.5-1.2,0.9-1.9,1.3
		l-3.7,2.7c-1.2,0.9-2.6,1.7-3.9,2.5l-3.9,2.5c-1.3,0.8-2.7,1.5-4.1,2.2l-2,1.1c-0.7,0.4-1.4,0.7-2.1,1l-4.2,2l-2.1,1l-2.2,0.8
		c-11.6,4.6-24.1,7.4-36.9,8c-12.7,0.5-25.7-1.1-38-4.7l-2.3-0.7l-2.3-0.8l-4.6-1.6c-0.8-0.3-1.5-0.6-2.2-0.9l-2.2-0.9
		c-1.5-0.6-3-1.3-4.4-1.9l-4.3-2.2c-1.4-0.7-2.9-1.4-4.3-2.2l-4.2-2.4c-0.7-0.4-1.4-0.8-2.1-1.2l-2-1.3c-10.7-7-20.5-15.3-29.2-24.5
		c-8.7-9.2-16.5-19.2-23.2-29.9c-13.5-21.2-23.2-44.6-29.7-68.6c-3.2-12-5.6-24.3-7.1-36.6c-1.6-12.3-2.3-24.7-2.4-37.1
		c0.1-12.4,0.8-24.8,2.4-37.1c1.5-12.3,3.9-24.6,7.1-36.6c6.4-24.1,16.1-47.4,29.7-68.6c6.7-10.6,14.5-20.7,23.2-29.9
		c8.7-9.2,18.5-17.5,29.2-24.5l2-1.3c0.7-0.4,1.4-0.8,2.1-1.2l4.2-2.4c1.4-0.8,2.8-1.5,4.3-2.2l4.3-2.2c1.5-0.7,3-1.3,4.4-1.9
		l2.2-0.9c0.7-0.3,1.5-0.6,2.2-0.9l4.6-1.6l2.3-0.8l2.3-0.7c12.4-3.6,25.3-5.2,38-4.7c12.7,0.6,25.3,3.4,36.9,8l2.2,0.8l2.1,1l4.2,2
		c0.7,0.3,1.4,0.7,2.1,1l2,1.1c1.4,0.7,2.7,1.5,4.1,2.2l3.9,2.5c1.3,0.8,2.6,1.6,3.9,2.5l3.7,2.7c0.6,0.4,1.3,0.9,1.9,1.3l1.8,1.4
		c19.2,15.1,34.1,34.4,45.6,55.2c11.4,20.8,19.4,43.2,24.7,66.1c0.6,2.9,1.3,5.7,1.9,8.6l1.6,8.7l1.3,8.7c0.2,1.4,0.4,2.9,0.6,4.4
		l0.5,4.4C524.5,290.6,525.1,302.3,525.1,314z M524.1,314c-0.1-11.7-0.8-23.4-2.2-34.9c-1.5-11.6-3.6-23.1-6.7-34.3
		c-6-22.5-15.1-44.2-27.6-63.6c-12.4-19.4-28.3-36.6-47.2-48.8c-18.8-12.3-40.8-18.5-62.1-17.4c-21.4,1.3-41.6,9.8-58,23.1
		c-16.6,13.2-30,30.6-40.4,49.6c-10.4,19-17.8,39.8-22.7,61.1c-0.6,2.7-1.2,5.3-1.7,8l-1.5,8.1l-1.2,8.1c-0.2,1.4-0.4,2.7-0.5,4.1
		l-0.5,4.1c-1.2,10.9-1.8,21.9-1.8,32.9c0,11,0.6,22,1.8,32.9l0.5,4.1c0.2,1.4,0.3,2.7,0.5,4.1l1.2,8.1l1.5,8.1
		c0.5,2.7,1.2,5.3,1.7,8c4.9,21.3,12.3,42,22.7,61.1c10.4,19,23.7,36.3,40.4,49.6c16.5,13.4,36.7,21.9,58,23.1
		c21.3,1.1,43.3-5.1,62.1-17.4c18.9-12.2,34.8-29.4,47.2-48.8c12.5-19.5,21.6-41.1,27.6-63.6c3.1-11.2,5.2-22.7,6.7-34.3
		C523.4,337.4,524.1,325.7,524.1,314z"/>
</g>
<line class="st3" x1="109.1" y1="144" x2="293.8" y2="144"/>
<line class="st3" x1="74.1" y1="230.7" x2="242" y2="231.8"/>
<line class="st3" x1="62.9" y1="347.8" x2="221.7" y2="346.7"/>
<line class="st3" x1="84.3" y1="430" x2="248.7" y2="431.2"/>
<line class="st3" x1="147.3" y1="497.2" x2="293.8" y2="498.3"/>
</svg>
