<?xml version="1.0" encoding="utf-8"?>
<!-- Generator: Adobe Illustrator 23.0.2, SVG Export Plug-In . SVG Version: 6.00 Build 0)  -->
<svg version="1.1" id="Layer_1" xmlns="http://www.w3.org/2000/svg" xmlns:xlink="http://www.w3.org/1999/xlink" x="0px" y="0px"
	 viewBox="0 0 576 576" style="enable-background:new 0 0 576 576;" xml:space="preserve">
<style type="text/css">
	.st0{fill:#F200EB;}
	.st1{fill:#FFFFFF;}
	.st2{stroke:#000000;stroke-miterlimit:10;}
</style>
<g>
	<path class="st0" d="M65.8,83.6c-3.8,11.2-5.1,23.2-6.1,35c-6.8,74.6-9.4,149.5-7.7,224.4c0.9,40.9,3.2,82.4,16.5,121.1
		c1.8,5.4,4,10.8,7.8,15c6,6.5,15,9,23.6,11.1c37.3,9.1,74.8,17.2,112.3,25.2c25.6,5.5,51.4,11,77.5,11.6
		c27.8,0.7,55.5-4.2,82.9-9.1c34.8-6.2,69.7-12.3,104.5-18.5c6.2-1.1,12.8-2.4,17.7-6.4c7.7-6.4,8.9-17.5,9.4-27.5
		c6.8-115.3,11.4-230.7,13.7-346.2c0.2-11.6-0.2-24.7-8.8-32.4c-4-3.6-9.2-5.4-14.3-7.1c-51.5-16.6-106.1-20.3-160.1-23.8
		c-27.2-1.8-54.5-3.5-81.6-0.6c-23.3,2.5-46,8.4-69.1,12.4c-40,6.9-80.8,7.9-121,13.6"/>
	<g>
		<path d="M64.3,83.2c-4.4,13.4-5.5,27.4-6.7,41.3c-1.3,14.5-2.4,29.1-3.4,43.6c-1.9,29.1-3.2,58.2-3.8,87.4
			c-0.7,29.8-0.6,59.6,0.1,89.3c0.6,26.8,1.9,53.7,6.5,80.1c2.3,13.4,5.5,26.7,9.9,39.5c3.6,10.4,8.6,18.5,19,22.9
			c12.3,5.3,26.5,7.4,39.6,10.4c14.5,3.4,29,6.6,43.6,9.8c27.9,6.1,55.8,12.8,84.1,17.3c27.6,4.4,54.7,4.3,82.4,0.5
			c28.7-3.9,57.2-9.6,85.8-14.7c14.2-2.5,28.4-5,42.6-7.5c10.6-1.9,24.7-2.2,32.9-10.1c7.1-6.9,8.2-17.6,8.8-26.9
			c0.9-14.8,1.7-29.6,2.5-44.5c1.6-29.2,3-58.3,4.3-87.5c2.6-59,4.6-118.1,6.1-177.1c0.3-14.1,1-28.2,0.9-42.2
			c-0.1-9.3-1-19.7-7.3-27c-7.4-8.6-21-11-31.4-13.8c-13.9-3.8-28-6.8-42.3-9.2c-26.8-4.5-54-6.9-81.1-8.8
			c-28.2-2-56.5-4.5-84.8-3.5c-28.3,1-55.5,7.7-83.2,12.8c-28.4,5.2-57.2,7.3-85.9,10c-13.6,1.3-27.2,2.7-40.7,4.6
			c-1.9,0.3-1.1,3.2,0.8,2.9c28-4,56.2-5.7,84.2-8.7c26.3-2.8,51.9-8,77.8-13c27.9-5.3,55.6-6.5,84-5.2c26.7,1.3,53.4,3.1,79.9,5.6
			c27.1,2.5,54.1,6.2,80.5,12.7c6.4,1.6,12.8,3.3,19.1,5.2c6.5,2,13.9,3.7,19,8.4c8.6,7.7,8.5,20.7,8.3,31.3
			c-0.9,56.4-2.8,112.8-5,169.2c-2.2,56.4-4.9,112.7-8.2,169c-0.6,10.9,0.1,25.2-8.4,33.5c-4.4,4.3-10.6,5.6-16.5,6.7
			c-7,1.3-13.9,2.5-20.9,3.7c-27.7,4.9-55.5,9.8-83.2,14.7c-27.2,4.8-54.7,9.8-82.5,9.4c-27.7-0.4-55-6.4-82-12.2
			c-27.5-5.9-55-11.8-82.4-18.2c-12.5-2.9-25.6-5.1-37.6-9.5c-6.2-2.3-11.6-5.7-15.1-11.4c-3.6-5.8-5.5-12.9-7.4-19.4
			c-15.4-51.8-14.2-108-14.1-161.6c0.1-56.3,2.7-112.7,7.7-168.8c1.2-13.7,2.3-27.4,6.6-40.5C67.8,82.2,64.9,81.4,64.3,83.2
			L64.3,83.2z"/>
	</g>
</g>
<g>
	<path class="st1" d="M486.4,272.7c-18.3,0.4-36.6-1.8-54.8-3.5c-65.4-6.1-131.2-5.3-196.9-4.6c6.2,73.7-2.2,147.7-3.2,221.7
		c0,3.4,0.1,7.2,2.6,9.4c1.9,1.7,4.7,2,7.3,2.1c20.2,1,40.4-0.4,60.5-1.8c56.3-3.9,112.6-7.9,168.8-11.8c3.2-0.2,6.7-0.6,8.9-3
		c2.1-2.3,2.3-5.7,2.3-8.8c1-66,4-132,9.1-197.8"/>
	<g>
		<path d="M486.4,271.2c-21,0.4-41.8-2.5-62.6-4.2c-20.9-1.8-41.9-2.9-62.9-3.5c-42-1.3-84.1-0.8-126.2-0.3c-0.8,0-1.6,0.7-1.5,1.5
			c3.9,47.1,2,94.3-0.3,141.4c-1.1,23.4-2.3,46.9-2.8,70.3c-0.1,6.5-2.5,18,4.8,21.6c3.6,1.8,8.4,1.4,12.3,1.5
			c6.2,0.2,12.4,0.1,18.6,0c23.3-0.6,46.6-2.7,69.9-4.4c23.8-1.7,47.7-3.3,71.5-5c11.6-0.8,23.2-1.6,34.8-2.4
			c10.5-0.7,21.5-0.6,32-2.3c9.2-1.5,9.4-9,9.6-16.9c0.2-11.9,0.4-23.8,0.8-35.6c1.4-52.8,4.2-105.5,8.3-158.2c0.1-1.9-2.9-1.9-3,0
			c-3.4,43.8-5.9,87.6-7.4,131.5c-0.8,22.1-0.8,44.2-1.7,66.3c-0.2,4-0.3,7.5-4.6,9.4c-2.1,0.9-4.8,0.8-7.1,1
			c-5.6,0.4-11.3,0.8-16.9,1.2c-10.9,0.8-21.8,1.5-32.8,2.3c-43.9,3.1-87.9,6.4-131.8,9.2c-10.7,0.7-21.5,1.2-32.2,1.2
			c-5,0-10.3,0.2-15.2-0.5c-8.7-1.1-6.9-11.4-6.7-17.8c0.4-21.8,1.5-43.6,2.5-65.4c2.3-49.4,4.7-99,0.6-148.4c-0.5,0.5-1,1-1.5,1.5
			c42-0.5,84.1-1,126.2,0.3c21,0.7,42,1.8,62.9,3.5c20.9,1.8,41.7,4.6,62.6,4.2C488.3,274.1,488.4,271.1,486.4,271.2L486.4,271.2z"
			/>
	</g>
</g>
<g>
	<path d="M293.8,264.6c1.4,40.2-2.2,140.4,1.1,140.7c14.7,1.2,41.1,3.3,55.8,4.5c-1.3-47.7-0.8-96.7-6.2-144.2"/>
	<g>
		<path d="M292.3,264.6c1,29,0.1,58.1-0.2,87.1c-0.1,12.8-0.3,25.7-0.1,38.5c0.1,3.9,0.1,7.8,0.5,11.6c0.1,1.4,0.1,3.8,1.5,4.7
			c2,1.3,7.1,0.8,9.5,0.9c5.4,0.4,10.8,0.9,16.2,1.3c10.3,0.8,20.6,1.7,31,2.5c0.8,0.1,1.5-0.7,1.5-1.5
			c-1.3-48.1-0.8-96.3-6.2-144.2c-0.2-1.9-3.2-1.9-3,0c5.4,47.9,5,96.1,6.2,144.2c0.5-0.5,1-1,1.5-1.5c-17-1.4-34-2.8-51.1-4.1
			c-0.2,0-4.2-0.4-3.7,0.2c0-0.1-0.1-0.6-0.2-0.8c-0.4-0.8-0.3-2.4-0.3-3.3c-0.3-3.9-0.3-7.8-0.4-11.6c-0.4-27.1,0.4-54.1,0.6-81.2
			c0.1-14.3,0.2-28.6-0.3-42.8C295.3,262.7,292.3,262.7,292.3,264.6L292.3,264.6z"/>
	</g>
</g>
<g>
	<path d="M398,266.7c4.1,46.1,1.6,143,1.6,143s39-1.1,54.1-1.1c0-42.6-1.7-93.7-1.7-136.3"/>
	<g>
		<path d="M396.5,266.7c3.7,43.2,2.7,87,1.9,130.2c-0.1,4.3-0.2,8.5-0.3,12.8c0,0.8,0.7,1.5,1.5,1.5c18-0.5,36-1.1,54.1-1.1
			c0.8,0,1.5-0.7,1.5-1.5c0-45.4-1.7-90.8-1.7-136.3c0-1.9-3-1.9-3,0c0,45.4,1.7,90.8,1.7,136.3c0.5-0.5,1-1,1.5-1.5
			c-18,0.1-36,0.6-54.1,1.1c0.5,0.5,1,1,1.5,1.5c0.9-35.4,1.2-70.9,0.3-106.3c-0.3-12.2-0.8-24.5-1.8-36.7
			C399.4,264.8,396.4,264.8,396.5,266.7L396.5,266.7z"/>
	</g>
</g>
<g>
	<g>
		<path d="M319.3,408.8c4.8,26.1,7.8,52.4,8.9,78.9c0.1,1.9,3,1.9,3,0c0-0.8,0-1.7,0-2.5c0-1.9-3-1.9-3,0c0,0.8,0,1.7,0,2.5
			c1,0,2,0,3,0c-1.2-26.7-4.2-53.4-9.1-79.7C321.9,406.1,319,406.9,319.3,408.8L319.3,408.8z"/>
	</g>
</g>
<g>
	<g>
		<path d="M423,405.3c1.3,25.1,2.7,50.2,4,75.4c0.1,1.9,3.1,1.9,3,0c-1.3-25.1-2.7-50.2-4-75.4C425.9,403.4,422.9,403.4,423,405.3
			L423,405.3z"/>
	</g>
</g>
<circle class="st2" cx="296" cy="151.9" r="52.9"/>
<circle class="st2" cx="447.7" cy="156.3" r="49"/>
<rect x="75.4" y="118.2" class="st2" width="129.5" height="65.3"/>
<g>
	<g>
		<path d="M94,214.1c16.5-1.8,33-3.7,49.5-5.5c16.5-1.8,33.2-3,49.6,0.3c1.9,0.4,2.7-2.5,0.8-2.9c-16-3.3-32.3-2.4-48.5-0.7
			c-17.1,1.8-34.2,3.8-51.4,5.7C92.1,211.3,92.1,214.3,94,214.1L94,214.1z"/>
	</g>
</g>
<g>
	<g>
		<path d="M94.5,233c31.9-2.6,63.8-5.2,95.6-7.8c1.9-0.2,1.9-3.2,0-3c-31.9,2.6-63.8,5.2-95.6,7.8C92.6,230.2,92.6,233.2,94.5,233
			L94.5,233z"/>
	</g>
</g>
<g>
	<g>
		<path d="M84.4,266.7c18,0.9,35.7-0.9,53.3-5c18.3-4.3,36-7.8,54.9-7c1.9,0.1,1.9-2.9,0-3c-17.8-0.8-34.7,2-51.9,6.1
			c-18.6,4.5-37.2,6.8-56.3,5.8C82.4,263.6,82.4,266.6,84.4,266.7L84.4,266.7z"/>
	</g>
</g>
<g>
	<g>
		<path d="M105.4,296c16.1,3.4,32.3-5.7,47.6-9.6c8.6-2.2,17.3-4,26.1-5.2c4.9-0.7,9.8-1.2,14.7-1.6c2.5-0.2,5.1,0.2,6.8-1.8
			c0.4-0.5,0.6-1.3,0.2-1.8c-0.7-0.9-1.1-1.3-2.3-1.1c-0.8,0.1-1.4,0.6-1.5,1.5c0,0.1,0,0.3,0,0.4c-0.1,1.9,2.9,1.9,3,0
			c0-0.1,0-0.3,0-0.4c-0.5,0.5-1,1-1.5,1.5c-0.1-0.1-0.2-0.2-0.3-0.3c0.1-0.6,0.2-1.2,0.2-1.8c-1.5,1.8-9.9,1.4-12.2,1.6
			c-3.3,0.4-6.6,0.8-9.8,1.3c-7.8,1.2-15.6,2.7-23.3,4.7c-7.3,1.9-14.5,4.2-21.7,6.6c-8.2,2.7-16.5,5.1-25.2,3.3
			C104.3,292.8,103.5,295.6,105.4,296L105.4,296z"/>
	</g>
</g>
<g>
	<g>
		<path d="M108.8,324.7c14-0.3,28-0.6,42-0.9c6.7-0.1,13.3-0.2,20-0.4c4.9-0.1,9.5-0.5,13.7-3.3c1.6-1.1,0.1-3.7-1.5-2.6
			c-5,3.4-11.3,2.9-17.1,3c-6.3,0.1-12.7,0.3-19,0.4c-12.7,0.3-25.3,0.6-38,0.8C106.9,321.8,106.8,324.8,108.8,324.7L108.8,324.7z"
			/>
	</g>
</g>
<g>
	<g>
		<path d="M99,350.3c28.8-2.8,57.7-3.9,86.6-3.4c1.9,0,1.9-3,0-3c-28.9-0.5-57.8,0.7-86.6,3.4C97.1,347.5,97.1,350.5,99,350.3
			L99,350.3z"/>
	</g>
</g>
<g>
	<g>
		<path d="M92.1,381.6c31.6-2.6,63.1-5.2,94.7-7.8c1.9-0.2,1.9-3.2,0-3c-31.6,2.6-63.1,5.2-94.7,7.8
			C90.2,378.8,90.2,381.8,92.1,381.6L92.1,381.6z"/>
	</g>
</g>
<g>
	<g>
		<path d="M95.3,412.2c27.7-9.7,58.4-5.6,87.2-4.3c1.9,0.1,1.9-2.9,0-3c-29-1.4-60-5.4-88,4.4C92.7,410,93.5,412.9,95.3,412.2
			L95.3,412.2z"/>
	</g>
</g>
<g>
	<g>
		<path d="M96.7,434.9c27.8,0.3,55.5-2.2,82.7-7.4c1.9-0.4,1.1-3.3-0.8-2.9c-27,5.2-54.4,7.7-81.9,7.3
			C94.7,431.9,94.7,434.9,96.7,434.9L96.7,434.9z"/>
	</g>
</g>
<g>
	<g>
		<path d="M144.3,184.5c0.6,70.5,1.1,141,1.7,211.6c0.2,20,0.3,39.9,0.5,59.9c0,1.9,3,1.9,3,0c-0.6-70.5-1.1-141-1.7-211.6
			c-0.2-20-0.3-39.9-0.5-59.9C147.3,182.6,144.3,182.6,144.3,184.5L144.3,184.5z"/>
	</g>
</g>
</svg>
