<?xml version="1.0" encoding="utf-8"?>
<!-- Generator: Adobe Illustrator 23.0.2, SVG Export Plug-In . SVG Version: 6.00 Build 0)  -->
<svg version="1.1" id="Layer_1" xmlns="http://www.w3.org/2000/svg" xmlns:xlink="http://www.w3.org/1999/xlink" x="0px" y="0px"
	 viewBox="0 0 576 576" style="enable-background:new 0 0 576 576;" xml:space="preserve">
<style type="text/css">
	.st0{fill:#FF34ED;}
</style>
<g>
	<g>
		<path d="M-38.3,213.6c0.5,0,0.5-0.8,0-0.8C-38.8,212.8-38.8,213.6-38.3,213.6L-38.3,213.6z"/>
	</g>
</g>
<g>
	<path d="M438.6,562.6c-27.5-4.2-110.9-35.4-137.6-46.8c-12.3-5.2-24.7-10.6-36.1-19c-21.3-15.8-37.4-41.8-48.4-69.6
		c-10.9-27.8-17.2-57.6-23-87.3c6.8-1.9,13.6,5.5,18.8,12.3c17.2,22.3,34.3,44.5,51.5,66.8c5,6.5,10.5,13.3,17.4,14.8
		c4.9,1.1,9.8-1.4,11.7-6.9c1.6-4.8-0.2-8.8-2.1-12.5c-15.7-30.7-38.5-54.9-59.1-80.8c-20.7-25.9-40.3-55.9-46.4-90.7
		c-0.4-2.4-0.7-5.2,1.5-6.4c0.8-0.4,1.7-0.5,2.7-0.3c25.3,4.4,46.9,27.6,65.6,51c18.5,23,37,48,60.8,59.9
		c-1.4-29.4-22-52.8-39.2-74.8c-20-25.6-37.5-54.5-51.6-85.5c-1.4-3.2-2.9-6.7-0.8-10.2c1.2-2,3.2-3,5.3-3.3
		c12.9-1.4,24.2,11.2,33.7,23c22,27.4,43.1,56,63.1,85.6c2.8,4.2,6.3,8.8,10.7,8c3.4-0.6,5.6-4.2,6-8.4c0.7-8.1-3.5-14.8-7.3-21.2
		c-19.1-31.6-34.5-66.5-45.4-103c-2.1-7-3.7-15.9,0.7-20.2c56.9,50.4,104,119.5,134.6,197.5c4.8,12.2,22.2,19.8,22.9,15.3
		c3.5-23.2-0.5-31.5-1.6-55.7c-1.7-36.5,5.1-72.6,19.4-102.5c1.8-3.8,5-6.2,8.6-6c7.6,0.4,10.1,10.5,10.5,18.6
		c1.2,20.9-2.7,41.4-1.3,62.3c3,42.3,26.9,79.2,43.7,117.7c10.2,23.3,18,48,23.3,73.2c4.8,23.2,6.8,49.7-4.7,66.7
		c-8.1,12-21.2,16.5-33.5,20.5c-15.6,5.1-31.3,10.2-46.9,15.2c-8.4,2.7-17.2,5.4-26,2.3c-1.2-0.4-1.8-3.8-2.8-3"/>
	<g>
		<path d="M439.1,560.8c-16.4-2.6-32.6-8.3-48.3-13.5c-19.8-6.6-39.3-13.7-58.8-21.1c-18.7-7.1-38.1-14-55.5-24
			c-24.1-13.9-40.6-37.1-52.3-61.8c-15-31.7-22.1-66.5-28.8-100.8c-0.4,0.8-0.9,1.6-1.3,2.4c9.5-1.9,17.9,13,22.6,19.2
			c6.2,8,12.4,16,18.6,24.1c6.4,8.3,12.8,16.6,19.2,24.8c5.2,6.8,10.2,14.5,16.6,20.3c4.4,4,10.6,7.4,16.6,5c5.4-2.1,8.3-8,7.7-13.6
			c-0.9-7.9-7.1-16.1-11.1-22.7c-4.7-7.6-9.9-15-15.3-22.1c-21.4-28.4-46.6-54-63.9-85.4c-4.6-8.3-8.6-16.9-11.8-25.8
			c-1.4-4-2.7-8.1-3.8-12.3c-0.5-1.9-1-3.9-1.4-5.9c-0.2-1.1-0.5-2.3-0.7-3.4c-0.4-2.4-1.2-3.3,1.2-4.8c3.2-2,8.4,0.6,11.7,1.9
			c4.1,1.7,8,3.8,11.8,6.2c7.7,4.9,14.6,11.1,21.1,17.5c27.1,27.3,46.4,65.5,81.7,83.6c1.2,0.6,3-0.1,2.9-1.7
			c-1.9-33.2-25.9-57.5-44.7-82.7c-10.8-14.5-20.6-29.7-29.5-45.4c-4.4-7.9-8.6-15.9-12.5-24c-1.8-3.7-5.3-8.7-5.6-12.8
			c-0.7-8.7,9-7.5,14.3-5c7.7,3.5,13.7,10.3,19,16.7c6.2,7.4,12.2,15.2,18.1,22.8c11.8,15.3,23.3,30.8,34.4,46.6
			c5.3,7.5,10.1,15.3,15.7,22.6c3.1,4,8.1,8.2,13.3,5c4.8-3,5.4-9.8,4.6-14.8c-1.3-8.1-6.5-15-10.5-22c-10.6-18.1-19.8-37-27.7-56.4
			c-3.9-9.6-7.5-19.4-10.7-29.3c-2.5-7.5-9.7-22.6-3.4-29.8c-0.9,0-1.8,0-2.7,0c44.8,39.8,81.2,88.5,109,141.5
			c7.4,14.1,14.1,28.4,20.2,43.1c2.5,5.9,4.2,12.6,8.1,17.8c3,4,7.1,7.4,11.6,9.7c2.6,1.3,6.3,3.2,9.2,2.3c3.8-1.2,3.2-7.1,3.5-10.1
			c1.3-12.8-0.6-25.3-1.8-38c-2.9-32.6,0.7-66.1,12-96.9c2-5.5,6.5-23.1,15-20c6.1,2.2,6.8,12.1,7,17.4c0.9,17.5-1.8,35-1.6,52.5
			c0.3,31.4,12.3,60.4,25.7,88.2c14.4,30,28.4,59.5,37,91.8c4.1,15.4,7.7,31.3,8.4,47.3c0.6,14.3-1,30.3-10.7,41.5
			c-10,11.5-26.2,15.1-40.1,19.7c-8.4,2.7-16.9,5.5-25.3,8.2c-8,2.6-16.3,6.1-24.7,7c-4.1,0.5-8.9,0.7-11.8-2.2c-1-1-1.2-2.2-3-2
			c-2.4,0.3-2.4,4.1,0,3.8c-1.1,0.1,1.9,2.7,2.3,3c3,1.6,7.7,1.6,11,1.4c8.1-0.5,15.9-3.7,23.5-6.1c16.3-5.3,33.1-10,49.1-16.1
			c12.2-4.7,22.9-12,28.4-24.2c5.7-12.5,6-27,4.8-40.5c-3-32.9-13.8-66-27.1-96.1c-13.2-29.9-30.4-58.3-38.7-90.2
			c-4.5-17.2-5.2-34.4-4.2-52.1c0.5-9.1,1.2-18.1,1.3-27.2c0-6.6,0-13.6-2.2-19.9c-1.4-4-4-8-8.3-9.2c-5.1-1.3-9.6,1.7-12,6
			c-7.7,13.3-12,29.8-15.2,44.7c-3.5,16.2-5.1,32.7-5.1,49.3c0,14.9,2.6,29.4,3.2,44.2c0.1,3,0.1,6.1,0,9.1
			c-0.1,1.7-0.1,11.4-1.3,11.9c-3.4,1.6-11.1-5-13.2-7c-5.6-5.3-7.5-12.5-10.4-19.4c-2.9-7-6-14-9.2-21
			c-25.9-55.8-61.1-107.9-105.1-151c-5.3-5.2-10.7-10.2-16.2-15.1c-0.7-0.6-2-0.8-2.7,0c-4.1,4.7-3.6,11.1-2.5,16.9
			c1.8,8.9,5.2,17.6,8.2,26.1c6.1,17.4,13.3,34.4,21.5,50.9c4.1,8.3,8.5,16.6,13.2,24.6c4.4,7.6,11.4,16.2,11.2,25.4
			c0,2.3-0.5,5.7-2.5,7.3c-2.8,2.1-5.8-0.1-7.7-2.2c-3.4-3.8-6-8.4-8.9-12.6c-5.6-8.1-11.3-16.2-17.1-24.2
			c-11.2-15.5-22.7-30.7-34.6-45.7c-9.1-11.5-20.2-28.7-36.1-30.8c-5.4-0.7-11.4,0.7-12.7,6.8c-1.5,6.8,4.4,15.2,7.3,20.9
			c8.2,16.7,17.4,32.8,27.6,48.3c10.8,16.3,23.5,31.2,35,47c11.4,15.6,21.2,32.8,22.4,52.5c1-0.6,1.9-1.1,2.9-1.7
			c-32.4-16.5-51.2-50.8-75-76.8c-11.1-12.1-23.7-23.9-39.1-30.4c-4.3-1.8-14.1-6.7-18.2-2.3c-4,4.3,0.3,14.8,1.6,19.4
			c9.2,34.4,30.7,63.4,52.9,90.4c11.9,14.5,24.1,28.8,34.8,44.2c5.3,7.7,10.3,15.7,14.6,24c2.5,4.8,5.1,10.5,1.1,15.4
			c-4.1,4.9-10.3,2.6-14.5-0.8c-8.5-6.8-14.7-17.3-21.4-25.9c-7.2-9.3-14.4-18.6-21.6-27.9c-6.6-8.5-13-17.2-19.8-25.6
			c-4.7-5.8-11-12.5-19.2-10.8c-1.1,0.2-1.5,1.4-1.3,2.4c6.1,31.2,12.6,62.5,24.9,92c10.2,24.4,24.6,48.5,45.8,64.8
			c17.1,13.2,38.3,20.7,58.2,28.5c19.9,7.8,39.9,15.1,60.1,22c18.6,6.4,37.8,13.5,57.4,16.6C440.5,564.9,441.6,561.2,439.1,560.8
			L439.1,560.8z"/>
	</g>
</g>
<g>
	<path class="st0" d="M396.5,11.9c-50.1,16.9-109.6,40-158.8,59.5c34.7,24.5,74.8,43.5,117.9,55.9c7,2,14.2,3.9,20.8,6.8
		c2.5,1.1,5,2.4,6.2,4.6c1,1.9,1,4.2,0.9,6.4c-2.8,55.1-26.2,110.5-26.4,165.4c24.8,5.5,48.5,13.7,70.5,24.2
		c1.6,0.8,3.3,1.6,4.2,3.1c1.1,1.8,0.6,4.2,0,6.3c-7.4,29.7-17,59.3-28.6,88.4c19.4-43,38.8-86.1,58.2-129.1c-23-3.5-46-7-69-10.4
		c17.9-59.3,15.8-120,29.1-179.8c-33.2-3.9-64.8-13.3-92.9-27.6c24.3-23.3,46.8-48.1,67.2-73.9"/>
	<g>
		<path d="M396.1,10.7c-53.5,18.1-106.2,38.7-158.8,59.5c-1.1,0.4-1.3,1.7-0.3,2.4c33.7,23.7,71.2,41.6,110.5,53.7
			c4.9,1.5,9.9,2.9,14.8,4.3c5.2,1.5,11.8,2.9,16.3,6.1c5.6,4.1,3.2,13.3,2.7,19.3c-0.6,6-1.4,11.9-2.3,17.8
			c-3.4,21.7-8.7,43.1-13.4,64.6c-5.2,23.7-9.6,47.7-9.8,72.1c0,0.6,0.4,1.2,1,1.3c13.7,3.1,27.3,7,40.6,11.7
			c7,2.5,13.9,5.2,20.7,8.2c3,1.3,6.1,2.6,9,4.1c2.3,1.2,3.9,1.8,4.1,4.9c0.1,1.8-1,4.8-1.5,6.6c-7.4,28.8-16.7,57-27.7,84.7
			c-0.6,1.4,1.8,2.4,2.4,1c19.4-43,38.8-86.1,58.2-129.1c0.3-0.7,0.1-1.8-0.8-2c-23-3.5-46-7-69-10.4c0.3,0.5,0.6,1.1,0.9,1.6
			c17.5-58.6,16.1-120.4,29.1-179.8c0.2-0.9-0.4-1.6-1.3-1.7c-32.1-3.9-63.4-12.8-92.2-27.4c0.1,0.7,0.2,1.4,0.3,2.1
			c24-23.1,46.5-47.8,67.2-73.9c1.1-1.3-0.8-3.2-1.9-1.9c-20.8,26.1-43.2,50.7-67.2,73.9c-0.6,0.6-0.5,1.7,0.3,2.1
			c29.3,14.8,61,23.9,93.6,27.8c-0.4-0.6-0.9-1.1-1.3-1.7c-13.1,59.4-11.7,121.2-29.1,179.8c-0.2,0.6,0.2,1.5,0.9,1.6
			c23,3.5,46,7,69,10.4c-0.3-0.7-0.5-1.3-0.8-2c-19.4,43-38.8,86.1-58.2,129.1c0.8,0.3,1.6,0.7,2.4,1c6.8-17.2,13-34.6,18.5-52.2
			c2.8-8.9,5.3-17.8,7.7-26.8c1.3-4.8,5.4-13.5,1.2-17.9c-2.2-2.2-5.8-3.3-8.5-4.6c-3.6-1.7-7.3-3.3-11-4.8
			c-8.1-3.3-16.4-6.4-24.7-9.1c-8.2-2.6-16.4-4.9-24.8-7c-2.2-0.5-3.9-0.4-4.4-2.7c-0.4-1.9,0.1-4.4,0.2-6.3c0.2-4.5,0.6-9.1,1-13.6
			c3.7-35.6,14.2-70,20.5-105.1c1.4-8,2.6-16,3.5-24c0.7-6.1,3.4-16.6-0.8-21.9c-3.9-4.8-12.5-6.6-18-8.3
			c-8.4-2.5-16.8-4.8-25.1-7.6c-36-12-70.3-28.9-101.4-50.7c-0.1,0.8-0.2,1.6-0.3,2.4c52.5-20.8,105.2-41.4,158.8-59.5
			C398.4,12.7,397.8,10.1,396.1,10.7L396.1,10.7z"/>
	</g>
</g>
<g>
	<path class="st0" d="M62.3,414.8c7.8-64.4,19.4-141,29.3-204.3c22.9,43.4,42.1,93.8,56.5,148.4c2.3,8.9,4.6,18,7.6,26.2
		c1.1,3.1,2.5,6.2,4.3,7.7c1.6,1.3,3.4,1.1,5.1,0.9c42.8-5.5,83.6-37.1,126.5-39.2c7,31.3,15.9,61.3,26.6,89c0.8,2,1.6,4.2,2.9,5.2
		c1.5,1.3,3.3,0.6,4.9-0.2c22.5-10.5,44.5-23.7,66-39.4c-31.6,26.2-63.1,52.4-94.7,78.6c-5.2-29.2-10.4-58.4-15.6-87.6
		c-44.4,24.8-92.1,24.2-137.4,43.2c-6.6-42.1-17.4-82.2-31.6-117.4C96.9,357.5,80,387,62,414"/>
	<g>
		<path d="M63.6,414.8c8.3-68.2,18.6-136.1,29.3-203.9c-0.8,0.1-1.6,0.2-2.4,0.3c16.4,31.1,29.9,63.7,41.1,97
			c5.9,17.4,11.1,35.1,15.7,52.8c2.3,8.7,4.3,17.6,7.7,26c2,5.1,4.4,8.5,10.3,8c15.9-1.5,31.5-7.7,46.1-13.6
			c15.7-6.4,31-13.6,47.1-18.8c7.5-2.5,15.2-4.5,23-5.7c2.2-0.3,4.6-0.9,6.9-0.8c3,0.1,2.6,1.7,3.2,4.4c1.1,4.7,2.2,9.3,3.4,13.9
			c4.5,17.7,9.7,35.3,15.7,52.5c1.7,4.8,3.4,9.6,5.2,14.4c1,2.6,1.9,6.8,4.4,8.5c2.1,1.5,4.1,0.7,6.3-0.2c4.6-1.9,9.1-4.4,13.6-6.7
			c18.3-9.5,35.8-20.6,52.4-32.7c-0.5-0.7-1.1-1.4-1.6-2.1c-31.6,26.2-63.1,52.4-94.7,78.6c0.7,0.2,1.5,0.4,2.2,0.6
			c-5.2-29.2-10.4-58.4-15.6-87.6c-0.2-0.9-1.3-1.2-2-0.8c-42.7,23.5-92.6,24.6-137.1,43.1c0.5,0.3,1.1,0.6,1.6,0.9
			c-6.4-40.1-16.5-79.7-31.6-117.4c-0.4-1-1.9-1.5-2.4-0.3c-15,30.4-31.7,59.9-50.5,88.2c-1,1.4,1.4,2.8,2.3,1.3
			c18.8-28.2,35.5-57.8,50.5-88.2c-0.8-0.1-1.6-0.2-2.4-0.3c15.1,37.7,25.3,77.3,31.6,117.4c0.1,0.7,1,1.2,1.6,0.9
			c44.8-18.5,94.8-19.7,137.7-43.3c-0.7-0.3-1.3-0.5-2-0.8c5.2,29.2,10.4,58.4,15.6,87.6c0.2,1.1,1.5,1.2,2.2,0.6
			c31.6-26.2,63.1-52.4,94.7-78.6c1.2-1-0.4-3-1.6-2.1c-11.8,8.6-24,16.7-36.6,24c-6,3.5-12.1,6.8-18.2,9.9c-3,1.6-6.3,3.7-9.6,4.7
			c-3.4,1.1-6-0.1-7.4-3.5c-0.7-1.7-1.3-3.3-1.9-5c-10.2-27.4-18.3-55.5-24.7-84c-0.1-0.5-0.7-1-1.3-1
			c-41.3,2.4-76.1,28.3-115.7,37.2c-5.5,1.3-13.4,4.1-17.2-1.5c-3.3-4.9-4.5-12.3-6-17.9c-3-10.8-5.7-21.7-8.9-32.5
			c-6.3-21.7-13.5-43.1-21.7-64.2c-8.6-22-18.3-43.6-29.3-64.5c-0.5-1-2.3-0.8-2.4,0.3c-10.7,68.1-21,136.2-29.4,204.6
			C60.8,416.5,63.4,416.5,63.6,414.8L63.6,414.8z"/>
	</g>
</g>
</svg>
